<mxfile host="app.diagrams.net" agent="Mozilla/5.0 (Windows NT 10.0; Win64; x64) AppleWebKit/537.36 (KHTML, like Gecko) Chrome/131.0.0.0 Safari/537.36" version="24.8.6" pages="2">
  <diagram name="Page-1" id="MwvFb8mABGRsxgzPZIA4">
    <mxGraphModel dx="1732" dy="496" grid="1" gridSize="10" guides="1" tooltips="1" connect="1" arrows="1" fold="1" page="1" pageScale="1" pageWidth="850" pageHeight="1100" math="0" shadow="0">
      <root>
        <mxCell id="0" />
        <mxCell id="1" parent="0" />
        <mxCell id="0kGeUMnXcMIaWcKACGD8-2" value="Welcome to Java" style="rounded=0;whiteSpace=wrap;html=1;fillColor=#fa6800;fontColor=#000000;strokeColor=#C73500;" vertex="1" parent="1">
          <mxGeometry x="40" y="40" width="120" height="60" as="geometry" />
        </mxCell>
        <mxCell id="0kGeUMnXcMIaWcKACGD8-3" value="Welcome to Java&lt;div&gt;(source code)&lt;/div&gt;" style="rounded=0;whiteSpace=wrap;html=1;fillColor=#dae8fc;gradientColor=#7ea6e0;strokeColor=#6c8ebf;" vertex="1" parent="1">
          <mxGeometry x="100" y="120" width="120" height="60" as="geometry" />
        </mxCell>
        <mxCell id="0kGeUMnXcMIaWcKACGD8-4" value="class&lt;div&gt;(bytecode)&lt;span style=&quot;color: rgba(0, 0, 0, 0); font-family: monospace; font-size: 0px; text-align: start; text-wrap-mode: nowrap; background-color: initial;&quot;&gt;%3CmxGraphModel%3E%3Croot%3E%3CmxCell%20id%3D%220%22%2F%3E%3CmxCell%20id%3D%221%22%20parent%3D%220%22%2F%3E%3CmxCell%20id%3D%222%22%20value%3D%22Welcome%20to%20Java%22%20style%3D%22rounded%3D0%3BwhiteSpace%3Dwrap%3Bhtml%3D1%3B%22%20vertex%3D%221%22%20parent%3D%221%22%3E%3CmxGeometry%20x%3D%2260%22%20y%3D%2250%22%20width%3D%22120%22%20height%3D%2260%22%20as%3D%22geometry%22%2F%3E%3C%2FmxCell%3E%3C%2Froot%3E%3C%2FmxGraphModel%3E&lt;/span&gt;&lt;/div&gt;" style="rounded=0;whiteSpace=wrap;html=1;fillColor=#dae8fc;gradientColor=#7ea6e0;strokeColor=#6c8ebf;" vertex="1" parent="1">
          <mxGeometry x="340" y="120" width="120" height="60" as="geometry" />
        </mxCell>
        <mxCell id="0kGeUMnXcMIaWcKACGD8-5" value="javac" style="rounded=0;whiteSpace=wrap;html=1;fillColor=#f8cecc;gradientColor=#ea6b66;strokeColor=#b85450;" vertex="1" parent="1">
          <mxGeometry x="220" y="120" width="120" height="60" as="geometry" />
        </mxCell>
        <mxCell id="0kGeUMnXcMIaWcKACGD8-6" value="jvm java" style="rounded=0;whiteSpace=wrap;html=1;fillColor=#f8cecc;gradientColor=#ea6b66;strokeColor=#b85450;" vertex="1" parent="1">
          <mxGeometry x="460" y="120" width="120" height="60" as="geometry" />
        </mxCell>
        <mxCell id="0kGeUMnXcMIaWcKACGD8-7" value="tsc" style="rounded=0;whiteSpace=wrap;html=1;fillColor=#dae8fc;gradientColor=#7ea6e0;strokeColor=#6c8ebf;" vertex="1" parent="1">
          <mxGeometry x="220" y="180" width="120" height="60" as="geometry" />
        </mxCell>
        <mxCell id="0kGeUMnXcMIaWcKACGD8-8" value="" style="rounded=0;whiteSpace=wrap;html=1;fillColor=#f8cecc;gradientColor=#ea6b66;strokeColor=#b85450;" vertex="1" parent="1">
          <mxGeometry x="100" y="180" width="120" height="60" as="geometry" />
        </mxCell>
        <mxCell id="0kGeUMnXcMIaWcKACGD8-9" value="main.ts&lt;div&gt;(executable code)&lt;/div&gt;" style="rounded=0;whiteSpace=wrap;html=1;fillColor=#f8cecc;gradientColor=#ea6b66;strokeColor=#b85450;" vertex="1" parent="1">
          <mxGeometry x="340" y="180" width="120" height="60" as="geometry" />
        </mxCell>
        <mxCell id="0kGeUMnXcMIaWcKACGD8-10" value="&lt;div&gt;&lt;br&gt;&lt;/div&gt;" style="rounded=0;whiteSpace=wrap;html=1;fillColor=#dae8fc;gradientColor=#7ea6e0;strokeColor=#6c8ebf;" vertex="1" parent="1">
          <mxGeometry x="460" y="180" width="120" height="60" as="geometry" />
        </mxCell>
        <mxCell id="0kGeUMnXcMIaWcKACGD8-11" value="Packages&lt;span style=&quot;color: rgba(0, 0, 0, 0); font-family: monospace; font-size: 0px; text-align: start; text-wrap-mode: nowrap;&quot;&gt;%3CmxGraphModel%3E%3Croot%3E%3CmxCell%20id%3D%220%22%2F%3E%3CmxCell%20id%3D%221%22%20parent%3D%220%22%2F%3E%3CmxCell%20id%3D%222%22%20value%3D%22%22%20style%3D%22rounded%3D0%3BwhiteSpace%3Dwrap%3Bhtml%3D1%3B%22%20vertex%3D%221%22%20parent%3D%221%22%3E%3CmxGeometry%20x%3D%22100%22%20y%3D%22180%22%20width%3D%22120%22%20height%3D%2260%22%20as%3D%22geometry%22%2F%3E%3C%2FmxCell%3E%3C%2Froot%3E%3C%2FmxGraphModel%3E&lt;/span&gt;" style="rounded=0;whiteSpace=wrap;html=1;" vertex="1" parent="1">
          <mxGeometry x="50" y="310" width="120" height="60" as="geometry" />
        </mxCell>
        <mxCell id="0kGeUMnXcMIaWcKACGD8-12" value="Group related classes together" style="rounded=0;whiteSpace=wrap;html=1;" vertex="1" parent="1">
          <mxGeometry x="120" y="370" width="120" height="60" as="geometry" />
        </mxCell>
        <mxCell id="0kGeUMnXcMIaWcKACGD8-13" value="Datatypes" style="rounded=0;whiteSpace=wrap;html=1;strokeColor=#b85450;fillColor=#f8cecc;" vertex="1" parent="1">
          <mxGeometry x="480" y="310" width="120" height="60" as="geometry" />
        </mxCell>
        <mxCell id="0kGeUMnXcMIaWcKACGD8-14" value="8 Primitive" style="rounded=0;whiteSpace=wrap;html=1;fillColor=#dae8fc;strokeColor=#6c8ebf;" vertex="1" parent="1">
          <mxGeometry x="323" y="370" width="205" height="60" as="geometry" />
        </mxCell>
        <mxCell id="0kGeUMnXcMIaWcKACGD8-15" value="byte: An integer type&amp;nbsp;&lt;div&gt;short: An integer type&amp;nbsp;&lt;/div&gt;&lt;div&gt;int: An integer type&amp;nbsp;&lt;/div&gt;&lt;div&gt;long: An integer type&amp;nbsp;&lt;/div&gt;&lt;div&gt;char: An integer type&amp;nbsp;&lt;/div&gt;&lt;div&gt;float: A floating-point number with single precision&amp;nbsp;&lt;/div&gt;&lt;div&gt;double: A floating-point number with double precision&amp;nbsp;&lt;/div&gt;&lt;div&gt;boolean: A Boolean type with logical values true and false&lt;/div&gt;" style="rounded=0;whiteSpace=wrap;html=1;fillColor=#e1d5e7;strokeColor=#9673a6;" vertex="1" parent="1">
          <mxGeometry x="320" y="430" width="205" height="190" as="geometry" />
        </mxCell>
        <mxCell id="0kGeUMnXcMIaWcKACGD8-16" value="Abstract Data Types" style="rounded=0;whiteSpace=wrap;html=1;fillColor=#dae8fc;strokeColor=#6c8ebf;" vertex="1" parent="1">
          <mxGeometry x="570" y="370" width="205" height="60" as="geometry" />
        </mxCell>
        <mxCell id="0kGeUMnXcMIaWcKACGD8-17" value="" style="shape=image;verticalLabelPosition=bottom;labelBackgroundColor=default;verticalAlign=top;aspect=fixed;imageAspect=0;image=data:image/jpeg,/9j/4AAQSkZJRgABAQAAAQABAAD/2wCEAAkGBxISEhUSEBIWFhUTFxcTGBIXFxIRHRIXFxIXFhcaGBMYHCggGB0lGxYVITEjJSkrLi4uFx81ODMsNygtLisBCgoKDg0OGxAQGzUjICUvLSstMDcuKzc1NS0tLTUtLy0wMS8tNS8rLy0vLS0tNS0vKy0tLS8tLy0tMjAtLS0tLf/AABEIAOEA4QMBIgACEQEDEQH/xAAcAAEAAwADAQEAAAAAAAAAAAAABAUGAgMHAQj/xAA8EAACAQIEAwUFBQcEAwAAAAAAAQIDEQQFITESQVEGImFxgRMyUpGhB7HB0fAUQlNicoLhIzND8WOywv/EABkBAQEBAQEBAAAAAAAAAAAAAAADBAIBBf/EAC0RAQACAgECAwgBBQEAAAAAAAABAgMRIRIxBBOBIkFRYZGh0fAjFEJS4fEF/9oADAMBAAIRAxEAPwD3EAAAAAAAAAAAAAAAAAAAAAAAAAAAAAAAAAAAAAAAAAAAAAAAAAAAAAAAAAAAAAAAAAAAAAAAAAAAAAAAAAAAAAAAAAAAAAAAAAAAAAAAAAAAAAAAAAAAAAAAAAAAAAAAAAAAAAAAAAAAAAAAAAqM67SYbC/7tRcX8OPek/7Vt5uyPJmI7vJmI7rcgZrnNDDR4q9WMOi3lLygtWecZ39olepeOGj7GPxaSm/XaPpfzMfWqSm3OcnKT3lJuT9ZMjbPH9rPbxEdqt1nX2kyfdwsOCO3tZpOXmobL1v5GfyjtbicNiPbVak6sKmk4ybd43teK/da1t8uZlcVmlKF09X0XUlYLExqRSb7rvr8Ltaz+mnP5HMWt3lPd7cz6P0JgMZCtTjVpSUoTV01+tH4Eg8j+zXNK1HE/s3vUp3bi37jS96N/wBNa8j1wvW22nHfrgAB0oAAAAAAAAAAAAAAAAAAAAAAPkpJK7dktW3pYymd9vcNRvGl/rT6Rdorzqflc8m0V7ubWivdrDPZ32xwuGvFz9pNf8dO0mn4y2j87+B5tnXa3FYm6lPgg/8AjheKt4veXq7eBQNpb6fQz2z/AOLPbxH+LU5326xVe8ab9jB8oPvPzqb/ACsZab5ye+rb5+N+Z10cRCbahJSs0nblfn+uhVdpIVFFSi24L3kr6rr4olG7W9pHU2n2pTamaUU1Hi1btfkvNnbj6DnTcYtxlwu7+F3aXpbh+ZjYu+xfZHmO1Op5Rb/eXODfiVti1zCt8PT7UKFNpuMtJR3X4omZdjXSl1i/ej+K8S4znKlViqlOynHkuV792Xmldf4ZW4LKZz95cP8Agp5lZjlTzKzXVmpwmNd4zhNqS70KkXZ76Xfhz/7Nv9n3arE/tDw2Jcqsajco1Hq6b6P+V/TyZ5/hMIqcLRe2t9rPzLHLcdUpzjUpvhqQ1T3TXRrmRi+uYQrbnj/sfl7+DA9ie28603SxjgpSnanKPdvdX4XHppo+um9r741RaJ7NlbRaNwAA9dAAAAAAAAAAAAAACJmOZUaEeOtUjBeL38Et2/BGDz/7TVG8cJTv/wCSpovNQX4v0PJtEJ3y1p3l6FiMRCnFzqSjGK3lJqKXqzGZz9o1GF44aPtZfG7xgvL96X0XieYZpm2IxEuKvUlPweiWnKOy9EQ4v0J2tOuOGW/ipntwvs4z/E4p/wCtUbjypruxX9q383dlZJpat2XXYrc0zGVOF0tb2vrp4mdrYiU9ZNv9dCNcU25mSmKcnO201s7bq31T2+X3GQzHEVHUlGo7Wei2TXJ+Jb5HmPFanN95WcX8SXJ33/I7c5yqNVOUH342f9Lavwvw0er3sxT+O3Lqn8dtT+/Nn8JiZU5KUeXLqujNXhqlOtBaXUna3wyk0nxeGi8FuY+nFt8NnxLRroy+yTBVINuWkWtYvn0K5da3tTN063+yrs0yqVGd4JuEnsv3H+R24PJ5ys5d1Gma+iS9ErL6JHxyRKMttahn/qbRGofIrQ+8XLfwOKd05XUVG3vaXve1nzemyLLAZJOtwuEGl73tJ7J6NKMbXlZ8+d+WiJzqsbtLimK959n9/fmrlBtN3UeHe+nilrvfZWv6blpl2U1qqShHhjo3VmrcTvdOOrdrW5256XNFl+R04S2lXreKvZ/07R9dfuWqwXZ2pPWvLhXwR/GW/wBxOL3ycYo4+MvpY/CUx85J9I7/AF93ox2HyV05cFKMa8pK0pSupUpfEpLk+aeui9PTsmhVjRgq74ppWcuvS/jY7MHgadJcNOKSJJrw4OieqZ3Lqdf28QAA0PAAAAAAAAAFDnfa7C4W6nPimv8AjhaUvXlH1aPP86+0DE1rxo2ow/lfFNrxnbT0S8zi2StUb5q1el5vn2HwqvXqKL3UF3pPygtfXYwOd/aPVneOFh7NfHK0pPyj7sfqYeUnJuUm23q22234tsjYnHQp+89d7IhOW1uIZ7Zr34hNxWKnVk51ZynJ7yk3J/NkTFVYRV5u35+BHweZxqtxjeLW17Pi9PwGdYaNWDtpaTtzs0rpProycVmLcpxXU6srsRnW6pxSvzev0J2CxaqxutJLddH+RmE3qpK0lo0d+FxDpyUo+q6roa+mNcNV8FbV9lpqkFJOMlps0ZbFYZ0Z8D1i/dl+DNPQqqcVKPP9WZxxOHhUVpq/3o4idMmLLOO2pZqlFt9291rpyNhgJzcE5rvWs1rZ72bXXmRKFGNNdxbdeel9OrJ1Osmr3Ocu59zrL4iL9uD2Eb8XCr9TlKSX6/A6p4lJXLbKssrV492CjBtPjmt+9FprS75baa+OsJ9mN27J4qzknphWtSa4la3W+kvBPm+ttiyy3KKlVp04NQatKc7KL2fdg9Zbbvx1Wpo8uyOlTaT4q9XxXFb+29orzf8AnV4LIKk9a0uCPwRevrL8rfccRe+TjFHHxl9LH4OuPm86+Xv+rK4DI6UJap1qt76q9m9+7sv7tfuWqwXZ+pPWtLgj8Ed/WW/y+pocFgKdJWpxSJJenhKxO7z1T9vo0eZ0x00jUI2CwNOkuGnFJEkA1pAAAAAAAdWJxMKcXOpOMIreUmoperA7T5KSWrei59DDZ39pNCneOGi6svjd4QX/ANS+SXief5z2jxWK/wB6q+H+HHuQX9q39bslbLWGe/ia17cvTs77fYWheNN+2n0hbhT8am3yuYDO+2eLxN48fs4P/jp3jdfzT3f3eBnLCL3tule3he17dLtL1IWyWlltlvedPp1vFQ4lHiXE9kUWcY2pxuD0W65cXqVqZ3XDuNq08PuNzLZzjePR6rr0s/r9DG14yjNwm7yWt/iXW5pMpx3tFrbjimnfaSas3ZNX0f8A0cc3yqNSHFTumm+GT30drSPKT0TyY7eXbUs7CbTTTs1qn0NTl+PVSPFZcSVpR25p3W9ttHbm0ZelSlJ24XfZroy8ynLpQlxydtLW636lMvTMKZ5prvy5Z5lXG/aUtWtntxxv9+hHweSt61NPAv7AhGSYjUMvn2iNQhwpKHdirJfkiZg8RBRnCpG6lHSaunCSs09PeWmz+aIHtE3Lxf5WLfLMirVtVHhh8crxX9q3fXT8Ve17RSN2nTjHF739mNyq4ten4X6Fnl+Q1q0rwjw03tUmuFva9kt3/jqanLchoUmlwutV8UpW/t92OvN/VLvazBdn6tTWs+CPwRer85evLq+rvnjPfJxij1l9DH/59axvNPpH7+/FlMs7P0KTXddar5KVvKPuxXn93va3Bdn6tTWtLgj8EW7vzlvze3V73d9Dgcup0lanFLx6+pKKU8JG+rJPVP2avMisdOONQi4LL6dJWpxSJQBrTAAAAAAAAAABTdrcdXoYadTDRUpxtunKy5uy3sjxfN84deo5V8ROSv3VPe9tVGEe6tb7WPf5xTTT2Z4d9pnY39nlxwv7KpJuMv4NRu6X9L5fIlkrvlDNXcxM9vez9Kqpark+enloRcxzJU7K15Pb03/A78swUlD2tSSU0pL2aas3rF3+K6d+Vm10IOcYR1FGy71uKMum6aevVWJRWOrjsz2x0rb4xKsr4+pLeTS6LQussxrqRtdcceuz8bL6mZhLqrNaNdGd1Cs4SUo7r9WLWpExw03xVtXUNDnGXe1Tadt3DZuOrSUreXyMyr6qStJaNGwwNdTSkvdmrSXle1tbXT580R8TllOclNrXw5+ZKuTpnUs9M3RxKgwampJ007r9fI1sNL/zWvz26fN6nClRjHSKsfZ1Ujm9pvKWbN1T8HKMFvbV8z6pK9ufRXZxlF2TdlGSupXfS6fWS22tv4FngMkq1HeEeGKaftKiS1V+9GGvO7524d9LnE9NY3aXlMF7z0/b3q8s8tymvVjaC4ISTvOStxJ+e/p03000GAyajSkkoutV6WTs/wCnaOvX8HxanBdn61TWtL2cfgju/Of5fN63hW98k/xx6+5vxeBjHzlt6QwmC7JyjJTpQ46lFpTi7yjUTvwzUZPS60ceWjVnc3eCyCtU1rS9nH4IvV+c/wArGkwGX06MeGnFJff5ko1U8JG+rJPVP2+jV5vTHTjjUImAy2lRVqcEvH/JLANaQAAAAAAAAAAAAAAAAQ82y6GIpSo1VeM1Z/n5kwAeMdquxP7HSVX9pTleypStHjX8q34krf4Mrxbp+7q3ZXafDZOy15JPw9D2zt12e/a6Hd/3Kd5QfjzXrb7jxrEYGtSSlUoThBu3tGrJS6PmZsldTxDBmpNbcRx+91FmuUNz4oWunwyStrrvdepzwmTpaz36Fp9w473trbf/ACzmL2mNQn51pjphypwUVZKx8c0fOFp/6itHfXiTStdd35Kz6lxlOR1qmqi6cNJKdS3Emlo4R/d1trp7q10ZxbprG7S9phtknWvz6/BUJpqTm+C3Wyvvolu3p4WLbLMkq1kmoKEedSXFHZWfDDle0ntyeuhpMtyajSkuCDq1VztxOL/9Yeuu3Rp6jBdnatTWvLgj/DhdPlvPfktrbLexOMl8vGKvHx9z6GPwVccfyz6R+fxplMBkdClLSLrVvFKTjbRabQt47ePD3tVguztWprWlwR+CG/LeXotrbLoaPA5dSox4acFFLoiWWp4Ou+rJPVP2X83pjpxxqETAZbSorhpwS9CWAbOyQAAAAAAAAAAAAAAAAAAAAAAAAY37T6FZ4N+xScE71YpJuUPB8rOz06GyOM4Jppq6eljyY3Dm1eqNPzf7aMZQcpJRbSkmk+KLfeSvs7bNWZcZVkdSvadNxhT1j7RqMpSSdu7Fe69LaW1v8WuxzPs9Vw1WccLQp1KeITTjOPEob7aq2/kTezPYWVKLVarLhk+J04uyva2++33GHWSd1pGp+fZLFiisxF+3O9cf7U+W5TQpStSg6tXrpUabfX3Y/iuvE7ajB9nKlTWvLhj/AA4N/We79Lc+rvo8HgadJcNOCil0RJO8fg6xPVeeqW2cuo6aRqEXBZfTpR4acFFeCJQBsRAAAAAAAAAAAAAAAAAAAAAAAAAAAAAAAAAAAAAAAAAAAAAAAAAAAAAAAAAAAAAAAAAAAAAAAAAAAAAAAAAAAAAAAAAAAAAAAAAAAAAAAAAAAAAAAAAAAAAAAAAAAAAAAAAAAAAAAAAAAAAAAAAAAAAAAAAAAAAAAAAAAAAAAAAAAAAAAAAAAAAAAAAAB//Z;" vertex="1" parent="1">
          <mxGeometry x="20" y="680" width="175" height="175" as="geometry" />
        </mxCell>
        <mxCell id="0kGeUMnXcMIaWcKACGD8-18" value="" style="shape=image;verticalLabelPosition=bottom;labelBackgroundColor=default;verticalAlign=top;aspect=fixed;imageAspect=0;image=data:image/jpeg,/9j/4AAQSkZJRgABAQAAAQABAAD/2wCEAAkGBxAQEhUQEBAPFRAWDxUSEBUQDxAPEA8QFREWFhYRFRUaHiggGBomGxUVIT0hJSkrLy4uFx8zODMvNygtLysBCgoKDg0OGxAQGy0mHSIxLi8vLSsuLzctMS0vKy0tLTcuLSsuLS4tLTAtKy0rNSstLS0tLS0tLS0tLS0tMS0tLf/AABEIAOEA4QMBEQACEQEDEQH/xAAcAAEAAQUBAQAAAAAAAAAAAAAABQECAwQHBgj/xABLEAABAwICAwsJBgMECwEAAAABAAIDBBEFEgchMQYTIjNBUXFygaGyMjRhc3SRsbPBFCMkQlJiY4KSQ0SD0RUWU1WTorTCw/DxCP/EABoBAQADAQEBAAAAAAAAAAAAAAABAgMFBgT/xAAxEQEAAgECAwUHBAIDAAAAAAAAAQIRAzEEEiEzQVFxoQUTImGBkbFCweHwMtEUU/H/2gAMAwEAAhEDEQA/AO4oCAgICAgICAgICAgICAgICAgICAgICAgICAgICAgICAgICAgICAgICAgICAgICAgICAgICAgICAgICAgICAgICAgICAgICAgICAgICAgICAgICAgICAgICAgo9wAJJAAFySbAAcpKDzn+v2E5sv8ApClvz74MnY/yT70EnR47RzcTV00nq54n/AoJEICAgICAgICAgICAgICAgICAgICAgICAgICDl2nnFZI6eGnY4hkz3b7b87GZbMP7buvb0BBw8IKEXQbNJWSw8TLLH6qR8XhIQTVHu1xSLyK+q/xJDN8zMgmaTSri7PKmik9bTx/+PKgmaTTPWDjaWlf6t0sPxL0EzSaaITxtFK31UzJfEGoJik0s4Y/yvtMfrIc3gLkEvS7vcKk8mtiHrA+HxgIJelxill4qpp3+rmjf8Cg3kBAQEBAQEBAQEBAQEBAQEBAQcc//AEH/AHX/ABPixByAICC4IKhBIYLC2SZjXi7STcHYbNJ1+5Y8Raa6czG7HiLTXStMbvVvwWmP9k0dUuZ8CFyY4rVj9TkRxWtH6mF256n5A8dDyfjdXjjdXx9F447W8Y+zE7c3HySSduR3wAWkcffviGke0L98QxO3NnklHbGR9VePaPjX1/hePaPjX1/hifufl/VEe1wPwWkcfp98S0j2hp98SvgoqyHinvb6qYs+oV443Rnv9Gkcboz3+iRgx7F4tlRV9sjph7iStI4nSn9UNI4nSn9UJGHSDi0flSFw5pKdlveGg960jUpO0w0jUpO0x90jTaV6weXFTO6GyMPiPwV10pBpb/XR9JZP9C36oJKn0qUTvLiqW9DY3DxIJKDSHhjts7m9eGX6AoJKn3V4fJ5NZT/zSNYf+ayCRgroZPIlid1JGu+BQbCAgICAgICAgIOJaesYzSx0e8jgNEplsS+7iRvQt+Wwv0tCDk2centBCA2Vp1XCDIguBQSe50/iI+k+Byw4rsrf3vfPxfY2/ve9yuG4SiIEFVUEBAQEFHNB2gHpF1MTMbJiZjZidSRnbGz+kLSNbUja0/dpGtqRtafuxuw2E/k9znD6q8cXrR+ppHF6sfqYnYTGdheOhw+oWkcdqxvhpHHaseH2Yzg45Hu7Wg/5LSPaFu+sNI9oW74hjODu5HtPS0t/zWke0a99Wke0a99WvTYnPGPu5pmcvAle23uK6LopOl3Y4jEQW1cxtySO31p6Q66DumD1hnp4ZyADJBHIQNgL2B1h70G4gICAgICDjmnWlgbJTytt9oe1zZOGSTEzyCWXsNbni9tfptqDmcSCGrm/fE3HlgW15uLHC5rIMqCqCT3PH8RH0nwlYcV2Nnz8V2Nv73vdrhuEl6ukbJSwTRMAeJHU8waNb5NRjd0lveVtasTp1tWOu0+fc3tSLaVbVjrtPn3NrHtz4ikgjhIO+BsLiCSBUtIa+/NtBt0q+toctqxXv6fXvaa3D8tq1r39Pr3r34ZRB1U5xqd5gkijbvToy9xcXMcTmFjwh7lM6Wl8cznFcR0/n5k6Wl8c9cVxHT+UdiWHRtjbPBI58DnlhztDZIpAL5HgatY13H/3HU06xHNScx6xLLU0qxXnpOY9YlZhmGb8HyPkZFCy2eR4LuEdjWtGtzvQFGnpc0TMziI70aelzxMzOIjvW4lh4iDZI5o5YnEgPaCwhwAJa5jtbTYgpqafLEWicxKNTTisRMTmJaFwssslUBBeIyQXW1DbrGrs7VOE4WKECCoUDyDXfBeljZ6WNlcylL6L3JeY0nsUHyWoJZAQEBAQEHFNOw/FU/sx+Y5BzmEoIau489YeAIMwQVQSW54/iI+sfCVhxXY2YcV2NnvVw3Beg3JYpHDvrZgCzIJmAn+3hOZgHpP0C+nhtWtMxbbf6w+rhdWtMxbbf6wzbnMYaxszprGRhdVwX1XqC10bh6b526vQTyKeH1oiLc28fFHnt+63D60RFptvvHns18Bp3zU1XE0tMjnU5Gd7WZssjy43JVdGs307xG/T8q6FZvp3iN5x+VK6MU1KaZz43TyTiR7Y3B4hYxtgHEasxJ2cyXj3elyTPWZz5IvHu9LkmesznyW4dEaikfTx65m1IqAzVmlj3re3Zect229KrSvvNKaV3ic+mEadZvpTSu+c+mEhDQxs+zyOpXU8xroGMD5pHulaHjO/I7W0Xt71rGnFeW015Z5o7/u1jTrHLaa4nMd7NT1Zlkq5HvDZISGQFtMyYwRGZ4cWx6r7G8I3tmKvXUm1rzM9Y6R0ziMz3L11Oa15neOkdM4jPgtbHTOdNPePMymgJdNRyCLfXvcJJvs45CAw31gF5KjGnM2v4RG8TjPjhGKTNr/KN4nGe+cfZryGlaJ544oZcsNO4DJLHC2Z8jmvysNiGkWdbZrVbTpxFrxETiK+WZnCs+7jmvEROIjyzM9URjsDGTERtyscyORrbk5N8ia4tBPJclfPr1it/h26T94fPr1it+m3SfvCPWTEQVCgeLDl6WNnpY2VDlKX0huS8xpPYoPktQSyAgICAgIOLadx+Ip/Z3fMQc2iQQ9dx56w8AQZQgqgkdz5/ER9f6FYcV2NmHFdjZ79cNwRQgUAQgAIKtcQbgkEawQbEHnBRMThe6d5cHl7y8Ws4ucXixuLO2iynmnOc9UzaZnOeq6nqpI374x72yXJzBxDjfbc8t0re1ZzE9StrVnmierMzFKgSb+JpN9tYvJzEj9JvqI9GxXjWvFubPVeNa8W5s9VKjEppM+eQu3zLvlw3hBhu0bNQB5rKLatrZzO+/0RbVvbOZ33YamodIczzc5Wt2AcFrQ1o1egBVtabTmVbWm05liUKiCoUDw4cvTQ9LGy4FEvpPcl5jSexQfJaglkBAQEBAQcZ07j8RTeof4x/mg5pEghsQ489ZvgCDIEFUEjgHnEXX+hWHE9lbyYcT2VvJ79cNwUsKffY2siYwSAR5w6MtlvJIGtma/8zHF7RY7L6hyrXl5q4rHXp59e/PhLbl5qxFY69PPrO+fBs1FMyJ+qFpjdDMWiUEuD4IX2NwR5WWN5H77K16xSdukxO/yif4n6tL1ik7dMTv8AKJ/O7Wq8PIgE29uabiRxAcI97lJDGtvzZWHb/behVtp/BzY+fy6/31Utp/BzY+fy6/31WwRQljCWghpaaizpBM1pkILg2+V0ZaWi4Fwdu3XEVriOnnvnf8IrWsxE48987/hdJDExuZ0TXBz2Bu8yyFpaWuu6Iuubkt2OuQQQpmtYjMx4bT+P5TNaxGZjw2n8fyj6qLI97L3yvcy/PlcRfuWNoxMx4MbRiZjwYlVUQEBAUggqFA8GCvTQ9NC8FB9LbkvMaT2KD5LUEsgICAgICDjWnkffUvqZPG1BzONBDYhx7us3wBBegqCgkcB84i64WHE9lbyYcT2VvJ0BcNwWdtZKGhglkDBrDRI4NB16wL2G0+8pz2iMZTz2jpnosZI5osHEDXqBIHCbldq9LdXQoz0wiJmIwGV1ycxu5uVxvrc3VwT6NQ9wTM7kzO7KyulDQ0SPDWkFoDiMpBuLdpJt6VPvLRGMrRqWiMZXjE5wSRK4E22WFrCwy/ptc7LK3vr+Kfe38WosmYgICAgyCJx12KtiVuWTeXfpPcmJTySo5hG0KJhWYmHPmlelelXgoPpncl5jSexQfJaglkBAQEBAQcc09cbSeqm8UaDmEaCHxHjj1m+AILroK3QSGAn8RF6wLHiOyt5MeJ7K3k6GuE4D1VBgFA+Jj5K+Nj3Rtc9plgBY4tBLbE31FfXTh9GaxNr4nzh9tOH0ZrE2viZ+cM/+rmG/7yj/AONTq3/G4f8A7PWFv+Nw/wD2esPMYpBHHK9kUgkjBGV4LSHjKCTcatpI7F8WpEVvMVnMeL49Wta3mKzmGqqMxAQEBAQEG0QTlAdbgDlsrtes4wZHf7TvKfU5Z8Vkt8us34Z17eRJ2ROznDSvRvRL7oPpvcj5jSexQfJaglkBAQEBAQcg09U781LLYb2BJHe+vO7K61uazdqDlcSCKxJzd8IynNnac2bVl3scHLbnsb35EFEFUG/gXnEXrG/FY8R2VvJjxHZW8nRVwnAFRAiREF0C6ApSucwjaCL7Lgi/QmJgmML4GA3vewF9SmIWrGV1o+d3/vYpxCfhPu/3JiD4AtYQbX1DlTEGKzHQzx/oPvToZp4KPPBFtmcpOyJ2c1YV6N6NkBQfT25LzGk9ig+S1BLICAgICAg5Lp6qjalhy6i6SUOvytAaW2/nBug5PGghsTH35/l8IQVQVCDfwM/iIvWt+Kx4jsreTHiOyt5OjLhOBKQbJFkFjGJMlrmLOxutut12Elx4X6hq1Wvqv8OPn/fl/v1axNcfPy/j/a9s8IcXCwBje1o3u5jcXuLXHVbYRsJ2K3NSJzC3NTOYYvtTBvli4Xa3KWsDSXtbbNqNmgu4VrHsICpFo6qc8dWV+JN1kCQPLpHB2YXs8OaGc4AG9nbtZs5Vb3kb9/X+/hb3kfXr/fwsdXguzZpR901nBOVzS0sJsS47cp16tuxPeRM567InUjOfkvfi17AxjKCLtzHKW73lLbcnwFhqvcmZ1vkmdb5NOqqN8IJBzBoBJLTmIAF9QHNfXfasrW5mVrc3VSn/ADdQqKprtLCoUEGWHY7oUwvXaWJQqyu8gdY/BW7lv0w5mw6gvRvRrwUH1HuT8xpPYoPktQSqAgICAgIOP6e/Lo+pP8YkHLowgh8T449LfCEBAQb2C8fF65niCy1+zt5Sy1+zt5S6MuC8+qFEoFAICAgICgZqf83UKtVeu0sKhQQZYtjuhTC8bSszmwHJtUZRkN7ei/epHM2HUOhekekX3QfU25TzKl9jg+S1BKoCAgICAg4/p78uj6k/xhQcuYgiMU47tb4QgtQVQbmD8fF65njCy1+zt5Sy1+zt5S6QuC8+qFEoFAICAgICgbMTS0Xte4tYc3pV4jDSsYjK4OdyRjuUx5LZnwHCQ/laE6omLEcThty2O3WkRJFZjdi3oXPCAAPKq8qOWMk1g0AEHWT3KZROMYctj2DoXo3o16D6p3LeZUvscHyWoJRAQEBAQEHKNPMLMlLJn+8EkjAy4uY3NBL7bdRY0X2cJByaNBFYq5u+Wsc+ZpvmGUNya25bbb2N78mxBiQVQbeEcfF66PxhZ63Z28p/DLW7O3lP4dJXAefVCiUCgEBAQLpIqwF2poJP7Rc9yR12I67N+Ghq3ABkFQRyWgfb32WsU1J2rP2ltWmrO0T9m3HudxB2yCTtcxnxIV44bXn9LSOH157pbUe4uudtEbevNfw3WkcFrT4fdaOC1p/9bUW4CoPlzQDq53/EBXj2fqTvMNI9n3neYbcWj0fnqf6Ybd5cVpX2d429GkezvG3o2huBpgCXSznUeWNo2dW/erx7P0++Z/v0Xj2fpxvMvm2nddrTztB7l9772RB9V7l/M6X2SH5TUEmgICAgICDiunmhlbPFVNjJjNMIi/K7Ix0cj3ZXOGoF2+i19uU25UHJvt0nJkHY4/VBrSgvdncdfoFhqQXoCDcwZhdUQtG01ETQOdxkaAPeVTUiZpMR4SpqRM0mI8Jdri3FVztrI29aVv8A23XJjgtWe71ciOC1p7vVtw7gKk+VLA3ql7/oFeOAv3zC8ez9TvmG5Fo9/XVdjYbd5d9FePZ/jb0aR7O8bejci3AU48qac9BjaPCVpHs+nfMtI9n075ltx7iaEbWSO60rx4SFpHA6Ph6tI4HR8PVuRbmKFuymjPWu/wARK0jhdGP0w0jhdGP0w3IcLp2eRBA3qxMHwC0jSpG0R9l40qRtEfZtNAGwAdGpXwuqiRSCAgILZfJPVPwUD49pjwG9VvwQZiUH1buZ8zpvZIflNQSSAgICAgIOTafj91T9Mo7mIOHoCAgqgkNzvndL7bT/APUMQfW6DSrMXpoXBks8THnYHva0257cg9KyvradJxa0Qzvq0pOLTEMtdWshaHuuQXtY0NF3Pc9wa0DtKte8VjMpveKxmVmKV4gZmylznPayNjbB0kjjZrQTs578gBUal+SMo1L8kZaUOJzsljiqYomiXMInRSukAe1ube33aNdgdY5lnGreLxW8R12xP8QzjVvForeMZ8JTC+l9AgICCHfupomv3s1DA4ZM2YOa1geJS0ucRYX3iQbdoA/MLhiqt19DE7K+cbWgODHvYXOfIzKHNBG2N/o1II/Et20bW3hADs4BNUDEzKYal7bct3PpnR2Ivc7DqBDUO7Gpe4sipHlzHMMgEcr3lj3W4to4OwgHMRqubBBO7n6yqlbIamFzCbOZcBrbGNoLA08IcIOPC18K3IoHyrTngN6g+CDITq7EH1jucH4Sn9lh+U1BIoCAgICAg5Np/wCJputL8GIOHoCAEFUG/uf86pvbIPnsQfXCDztTA2lglEgbLPUSyBoA4U75CcjNfI1tvQA0lfJasadJies2z9c7PktWNOk56zaZ+udvRga+OKWngmmjDKSna57pHtY11Q5m9sHCPI0PP8zVTNa2rS8x8Md/jtH7ozWtq1tP+Meu3+2rFi4mNNI+QOyV8geQAGta8TMhJIFrWtr9I51SNbn5JmdrT+8QzjV5uWZna0/vEJXH3l01PHGM0rHvqC0bQxkL2i/Ndz2hb605vWI3jM+k/vLbVnN6xG8Zn0lrVc4MZ3p7pXOp5M7hUSOLXGJxuYBwW8IAW4JBNudReenwzmcT3/LwRaenTr08f2SWBxlpkAaBGXNc0tgfTtzFuVzWxu5LNac3KXHmWmj0mfDyx6NdKMZ/1hKr6Gwg8vLuEonvfJIJXF8ksjg54yB0skchsLbGmPVzB7+dQMU7cEpXkyS0bJC/O4SVIc9ztevIXEm1yLW1XUpaNTpLwWC+9vLyOSGme25BJ1OcGtOtzuXlPOoQ8/V6Z6Vhc6moHl7iM7pZI4HPsLAuLA/NYelSlA4npkr5AWxR00QLSL5HySNJG0OLre9qhDm0ETnWaxrnW1ANaXHuQegwXcTiFY9scdO9gcbGSZrmRsH6nar+4IPpygphFFHEDcMjawE6rhrQL9yDOgICAgICDk+n/iabry+FiDhyAgIK3Qb2A+c0/tUPzmoPrlB584ZWundOZKVpsWRXjkn3mPlyi7RmOq57Ni+T3WtN5vmPlvOI9Hze71ZvzZj5d/T0SdLhrBw5GxPnPly7yxjnnYDy7BYbeRb1043nEz44a104jrO/jghwuFsRgLA6JznOc19nAl7y8957EjSrFeTHQjSrFeXHRoGtwzDwQZqOnueFmmjY5xGzablTTSpT/GMFNKtP8YwiK3SfhEVx9pL3c0UMrwf5sob3q2F3nK/TfStvvFHUPI2b6+OFp7W5zbsRLz1fpsrXcTT0sY/fvkzuw5mjuUjz1bpMxeY2+2PaDsbEyKO3QWtDu9SIt3+kq3U77bPfkkM0wP8AWSglqDRxi01rUzmD+K4MARL0WH6Fat3HVELBzNBeffsUIekoNCtG3jqieTotGO5B6TD9G+FQ6xStceeQl5QehpMLp4tUcETerG0INxAQEBAQEBAQco0/cTTdeXwsQcOQUQUQVCDYoJ97kjktfJKyS17XyODrX5NiDttVpuowPuqSrc61/vDDE2/NdrnHuQefrtN1Y4fcUlLGf4jpai3uyIPPV+lDF5f73vY5oYoWD3lpd3olAVGLV1VcPnrJr7Q6WaZv9NyApG3h243EZuKo5rc5Zkb3oh6Sg0Q4nJ5e8xD9z8x9wUD0VBoPbtnrD6RGwW95QekoNEWFR+UySQ/xHkg9iD0tBuTw+DiqSAfyAnvQS8cTW6mtaB+0AfBBegICAgICAgICAgICAg5xpzw90lC2ZoJ3mW77ckbxlzf1ZPeg+figtQAeRBvUWDVU3FU87+iN1veUHo8P0ZYtNb8NkB5ZXhlkHpcP0J1TuPqYWDmY0vPv2IPSUGhWibbfpp5Dy2IjHcg9Lh+jnCodbaRjjzyXeUHoKXDIItUcMTeqxoQbaAgICAgICAgICAgICAgICAgICDFU07JWOjka10b2lj2uAc17HCxaRyggoOY1WhOjdKXR1E7ITsj1SFvoDzrI6bn0oJXD9EeFReVHJIf4khIPYg9LQblaCDiqSBv+GCe9BLxxtbqa0AegABBcgICAgICAgICAgICAgICAgICAgICAgICAgICAgICAgICAgICAgICAgICAgICAgICAgICAgICAgICAgICAgICAgICAgICAgICAgICAgICAgICAgICAgICAgICAgICAgICAgICAgICAgICAgICAgICAgICAgICAgICAgICAgICAgICAgICAgICAgIP/2Q==;" vertex="1" parent="1">
          <mxGeometry x="25" y="860" width="170" height="170" as="geometry" />
        </mxCell>
        <mxCell id="0kGeUMnXcMIaWcKACGD8-19" value="" style="edgeStyle=none;orthogonalLoop=1;jettySize=auto;html=1;rounded=0;" edge="1" parent="1">
          <mxGeometry width="80" relative="1" as="geometry">
            <mxPoint x="200" y="767" as="sourcePoint" />
            <mxPoint x="280" y="767" as="targetPoint" />
            <Array as="points" />
          </mxGeometry>
        </mxCell>
        <mxCell id="0kGeUMnXcMIaWcKACGD8-20" value="" style="edgeStyle=none;orthogonalLoop=1;jettySize=auto;html=1;rounded=0;" edge="1" parent="1">
          <mxGeometry width="80" relative="1" as="geometry">
            <mxPoint x="195" y="910" as="sourcePoint" />
            <mxPoint x="275" y="910" as="targetPoint" />
            <Array as="points" />
          </mxGeometry>
        </mxCell>
        <mxCell id="0kGeUMnXcMIaWcKACGD8-21" value="" style="shape=image;verticalLabelPosition=bottom;labelBackgroundColor=default;verticalAlign=top;aspect=fixed;imageAspect=0;image=data:image/jpeg,/9j/4AAQSkZJRgABAQAAAQABAAD/2wCEAAkGBxMSEhUSEhMVFhUXFhgYGBgYGRcYGBsaHhcWGBgYGhgaHSggHRslGxUYITIiJSkrLi4uGB8zODMtNygtLisBCgoKDg0OGxAQGyslICYtLS0vLS8tLS0tLS0tLS0tLy0uLS0tLS0tLS0tLS0tLS0tLS0tLS0tLS0tLS0tLS0tLf/AABEIALcBEwMBEQACEQEDEQH/xAAcAAEAAgIDAQAAAAAAAAAAAAAABgcEBQIDCAH/xABMEAABAwIDBAcDBwoDBQkAAAABAAIDBBEFEiEGMUFRBxMiYXGBkTKh0RRCUlNyscEIFyMzYnOCkpOyFTSiVLPC8PEWJUNEZHSDo9L/xAAbAQEAAgMBAQAAAAAAAAAAAAAABAUBAgMGB//EADcRAAICAQIDBQYGAQMFAAAAAAABAgMRBCEFEjETQVFhcTKBkaGxwRQiM9Hh8FIGQmIVIyQ08f/aAAwDAQACEQMRAD8AvBAEAQBAEAQBAEAQBAEAQBAEAQBAQXbvpQpMNcYSHTVFtY2WAZcXHWOO64INhcoCFUXT9d4ElCQ0/QkzO4cC0A8eKAtDZLa+lxFhfTP7TbZ43DLIy/0m/iLjvQG/QBAEAQBAEAQBAEAQBAEAQBAEAQBAEAQBAEAQGFi+Jx00TpZXBrGNLiTuACGG8FC7WdNdRI8tomtjjFwHvF3u7w29mjxufBZyYx4lz7B1cs1BTyTm8jomOcbAXJF72Gg8kYRIFg2CAIAgCAIDor6nqopJDuYxz/5Wk/ggPGGIVklRLJPIcz5HOe897jc+WqA6qR5a9rmi5ac1vDn3ICQ7M7UzUmIxVZOUh4EoGgdG4jOCAdezqO8A8EB66BQBAEAQBAEAQBAEAQBAEAQBAEAQBAEAQBAEAQFCflDbQOMkVE11m261456kMB7tHG3hyWTVbvJAujzZCTEalrQ09SxwMruFt+Ud59ywG8HrKkgEbGsaLAAAIZSwjuQyEAQBAEAQGDjsZdTTtG8wyAebHBAUBRxMfSNw8UgIkomzwzDNnNQWuJOe+UNzjq7HvuVxu1FdMeax4RvCEpvEUcsLnfg9FG4UgfUPqi2UvGc5MrcjW5HEXJNt/A8wVpRrKL9q5J/X5mZ1Th1REukyhZDiMzY25AWxyGPf1b3xskezyc4qScz1ZgshdTwuJuXRRknndgN0BmIAgCAIAgCA+E21KA0tZtZRxmzpgTyYHP8Ae0ELdVyfRGvMjFbt1RcXvHf1ch+5pWeyn4DnRt8NxmnqL9TKx5G8A9oeLTqPMLRprqZTTM5YMhAEAQBAEAQBAaXabaenoYzJO8NG4De5x5NaNSVlLJq5YKixbpwmLj8npRl4GRxuf4W7vUrblZpzrxO7BOnB+YCqprN4uiN7fwO+KcrHP5nVtXiuB1korJnyPkyhvVtbICbXIBbYDid5smDHOah3Sy6nb1VBRxxRjRue5Nu9rLAHzKYMrHiZ2F9N1U0j5RTxvbxMZc027g64PqEaCl5lubIbY02IR54H3I9pp0e08nN/HcVrg3UiRrBsEAQBAEB1VLA5jmncWkHwIKApDo2qWCkhBztBDg293A2c7Plte3aubab15LjdN7t5nvHu8i00so9nhde8l82Lg2jjaXHmRYem8+5VNWlssklHr3Jdfj3HX2VmWxTG3OFSS4nMyzWPLGvAJAz9gXII0ubE+RXuNFVZXRGNjy/XPzKu6UZTbj0L+6KcabV4ZTuBGeNghkHEOj7Ovi0Nd/EpZyJcgCAIAgCA0u1W0sNBF1kpu43EcY9p55DkBcXPD0B2jFyeEYcsFK4/ttUVbiZH2ZwjbcMA4XHzj3n3blLhXGJwcmzT/wCLd62NTkMU71kA4lqDcgjUEEhwPNrhqD3hMJ9QtidbHdJ7o3NhrnZojo2c+2w8Ot+kz9veON9SI1lWN0dozzsy32uBFxqCuB0PqAIAgCAIDHxCqbFG57jYNBJPIDeURhvCPMe0OMSYjUunkvkuRE3g1l9NPpHQk/Bd60Rbm0jlDgd+ClKCZU2XSi9jNj2avwR1ojy1Uzm7Zc/RWvZo0/F2IwqrZkgXLTZauCJFern3mhrqDLoN3euU1gtqJKZZvQlsXM14xB7nMa5pDGDTO027T+7S4HgVxZLXkXgtTcIAgCAICt+lva90TW4ZSdqrqrR6GxjY85b3G5zrkDkLnkgNth+w8dPRw0zAHdW3tE/OcTmc4cu0T5LWcIzWJLKNoycXlG0wfZqOHtFovyH4k71pXTXX7CSMyslL2mQD8oTZwPpWVzBaSFwY8jS8bjYX+y63k4rqaFddD22gw6rLZjanns2Q62Y4exJ4C5B7j3ID1CxwIBBBBFwRqCOYQH1AEAQHVVVDY2Oke4NYxpc5x3AAXJPkEB5g2u2nkr6l9Q+4bqImfQjB7ItzO89/gFNhDlWCNKWWdWzdP1z3ZhdrQNDuud3uBUbV2uEdifw7Txtm3JbImlPhzLWyt8LBVE9Rh7yL5UQisYXwNLjeCNdLHFDZr3Ne930crbAXHe5wF1N0mrXK3J7FLxOuuvDityO1WHVEZs6N3iNR6hWELoy6MqVOPidDo5A0ucLAc/EC1vNb824U4t4Rb3QbtYZGuw6U3MTc8BJJJjvZ0f8AAXC37Jt81R7Y4eSRXLKLaXI6BAEAQBAQjpgqSzDZg3e/JH5PkYw+5xWUavqimcPo9dykQON0diaYRQablKiyolVlkmo8MHJYlI6Q0hsP8KbbcufMdHo0anGKEAHRMkedPL0K7xDCQ+aGI7pJo2H7Jddw/lBHmuViJek2PQ1DAGMa1osABYKOyzisI71gyEAQBAa7aLFBS0s9S4XEUT323XIaSG+ZsPNAef8AoqwaoxDFHVsjzeMmWR+vtvBysF+IF9OAACA9GGM5bXPigPrm6WuR38UBo9ocB+UwyQyPc+ORpa5ugdY8WndcGxHggPLGP4A+lnmpn3L4XWJto4EZmOA+aSwg21QFzfk97UumikoJXXdCA+K516smzm+DXEfz24IC4UAQBAQHpsxIxYY5gNjPIyL+G+d482sI811pWZHOyWInnwNU7BDTJDs8+OJmaWRrMxJ1O8bhpvO73rz3EVbbZywTeD1HDZV0afmm0m99ybYJjNHI4RtnZmO4G7SfDMBdee1Oj1UFzOLx8Tu9TGb/ACNM5YNTddV1k3zWFlOz+EZpP9bvcpyhyaWEX1e79/Qo9XZ2lj8jqxqj3rhCTg9iusiQDHSRZnM3PgNB7z7l6fh8pzTbZygsZZx2TxB1LXU07TbLMwO+w5wY8fyuKnWx/KSKpfmPVyhEsIAgCAICC9McROHPP0XwuPg2aMk+l1lGr6oriip9VKihOGSZ4PGNF27jhGnck1M0LRkmNRmFwstDd1kex6ezTYLZFZqlyrYqnEMRdFVQzPcS2OZjyOFg4ZtB+zda2ogaOyXPhnovD6hskbXNIIIBBHJRWX0XlGQsGQgCAICpOnzahscLMPYbvl/SSgcI2dprT9pzfRp5oCT9EeCClwyE/PnAqJDxJkAIHk3KPVAS97tWjnf7kBzQBAeePygqcx4jFI0262FhIHFzHuAJ56W9EBGui3FDTYvTlps18vUnvbIcoHqWnyQHq5AEAQFWdPrSael5de716t1vxUjTe0cb/ZKaycBvU5oiolmA00bHDstvzsL+qkKEVHYiOxuXUnFXTUj6WR9RFG9rI3O1ADhZpPZcNWnvBUOyO5KrljdGpwDDcQo6WN0cbKiOVoldFcRzRueA49pxs/fx1XnNRPT2zeXy9y8MIsOwnjK3OvEKmrk0FBK3ve+NrR53VfOOmhvK1e5PJhaO2eyRAsSY4yuz5btOXs6jTkV6zQVxVK5ej3Ic49nJwfcYMsR0tvuLeN9FJsX5Waw9pHrhu5VZYH1AEAQBAajazDBU0k0B3PY5vqFlGsuhSFHi8UcbTNI1rwLObe7g9vZeMo19oFSYS2O0VzG7wrahjtI2m3N2nuUhI6qkk1NiZcNSsNHeMEjMFfpvWvKYmjTYvWgg6reMSo1cdisdpnXJWLY7FNTFxsNv0a9KDqMtpKkOfDcNjeNXMuRZpbvc3lbUbrHhBl1LyPTKPQ8b7gFaHU5IAgCAoLpE2Lqamvq6qN8cg9ljNcxHVhrmgkWDgb271VX8Xopu7KWfN9yJMNJOUOZFubC4tDUUUPUuB6uNkT27nRvaxocx7d7SCFaJprKIxu3+03+L8FkHYgPkjw0EnQAXJ7liUlFZfQyll4R57/KArg+sp3AEtbCcp3XdnJI11sNPVR9Nq6dSm6nnHr9zadcoe0RDo5wsz4jSZCezURvcLbmscHudfloB4uC7ynGPtPHd7zVJvoetlsYCAICF9LuGGfDpHNF3QuZKPAGz/RjnHyXaiWJrJztWYlD07Nb8tfh77KzUcsgZNjS1oaRv96788ehGnF9Ub0VhqWx0zTpNIxjvsZsz/wDS0qv4lZGnTys8iTo052KJaDqgAWGgAsF81s1blseqjUaHHcSDWOdfcCfctdJS7r4x8Wd5JV1ub7ip+rJ7R3k3PmvqtVfLBLwPGym5PJmbLYSamvpoWi461r39zGOD337rDL/EFx1L5YnahZkemFWE4IAgCAID44XFkB5s6ZdmTSVvyhjf0U5JNtwk4jzGvqt4vc2plh4NFguJ5CFLiycnkl8G0AsNV0TNjsftJ3pk1lua6rx2/FbpohX15I5i1VmF7rSbKp1YkZ/RTswa2va9w/RQkSOPAuBGRvrr5KBLqTV7OD1CxthZaHU5IAgIVilRK6eVpkkaGusA1zmgCwtusvHcU1uohqZRjJpLwZb6aqDrTaRjRxgCwVJKTk8slkA20NRhtQ3E6F2XNZtQ35jjfsl7eIN7X3g2tvXqeBa7mj+Hm9109PD3FZracPnRbGwe1UeJ0jalrMjg4sew65XgAkA8QQQR4r0ZAJGgNXtJUGOBxBsLEE91iuOo/Sl6P6G9ftr1Kk2y2UFcY3lxaWiwI10PAheQ4dxF6ROOM5Le/Tq0zdi9ko6EOc0kyOFi477b7DkL/guWv4lPUyWdknnAq00a0W3QVjZWhzfMcQeRXsdLqq9TWpwf8PwZU2VyrlysyVJOYQHGRgcC0gEEEEHcQd4KA8+7W7LuoakxEXidd0Lubb+yT9JtwD5HirfTWqxeZW3wcH5GvipQpigiDO1mZSQPieJIzZw3G194sfcbKPqtDXqKnXPoxRrJ0z549Tdf9opLdqO55h2noQvI2f6UfN+Se3mj0Nf+oY4/PD4M1WJYm+UFmXKDv1ufwVnw3/T8dNYrJPLXlsRtZxuV8HXFYXruamYBjSToAvQtKK3KyDcnhFqdEeyroGOrZmlsszcrGuFnMivfUHc55AcRwAbxuqXUW9pLYtaa+SO5Yq4HYIAgCAIAgNHtfs7HX0z4JB7Q0PEHeHDvBWUzVrvR5b2hwafD53QztIsTldbsvHMfDgusZ46neFpiQVj3ENYHOJ3BoJJ8hqtu1OvbJdTcjAMRLcwpZreH4Xunamn4mJpKqeRji2RrmuG8OBB9Cnah2KXQ7sFop6yVsMDC9ziB3AfSceAC1dmSLOK6nqHYLZSPDqZsTdXb3u4ucd5/55Lk2ZiiTLBsEAQEAmqRJNM/gXkDwb2QfOy8HxSztNTJ+f02LzTx5a0jndVp2MfEKZksb45BmY5pa4cwV0qslXNTi8NGs4qSwz7sxtthdMz5IXR0jo/aYW5WOP02u3G9uOvBfQ9Nd21Sn4lHbXyScTMxbpVwqBpd8pEp4NiBeT3X3DzIXc5lQ7SdJM+K1UMLQYaYStcIwbueQbh0jhv55dw77XXDVPFMn5HSlZsRadL7A8F86l1ZfHY+QDef+eSRi5PCQbwbrAMPl6wSOBY0A6HRzrjiOA8eS9Pwfht9U+1nt5ePqV2r1EJR5I7kkXpSuCAIDX45g0NXEYZm3adQRo5p4OaeB/6bltCbg8o1lFSWGVLjuxtTRm4aZ4eD42kuA/bYNR4i48Fb0a6Etp7MqdRopreG6MCknY7c4ab1OUlLdMrJJxeJLB3SZOYQw5LuNcCZX9XTsfM/6MYzEfaI0aO9xAXGzUV19WSadNbZ0RO9kOjgte2or8rnNIcyAasa4G4dI7c926zbZQfpaEVGo1UrduiLrT6ZVb9WWSopJCAIAgCAIAgCA1uMYFT1Tcs8TJBycAUMNGLhOyNHTaw08bPBoCzkxyo3PVDdYLBtg1OLbLUlT+ugjf8AaaCs5NeVHZg+ztNSi0ELIx+yAEyZwjarBkIAgCA1Fds1TSkuMeVx1LmEtN+emhPiFEt0NFm8oo7Q1FkOjNFV7GTN1p6nwbK248M7fgVX28Dpl7LwSY66X+5EdxKmxJv6L5K5xOgcwhzPHNpYeNlAXA5Rmd/xsMHLDuh2Gb9NiD3vldY5Izlawby0u3uNzv07ua9Hp6VVDlK22znlk2P5mMJ+ql/qvXc5mDiPQxRsaZaMyMnbqwOkvGSPmuu0kA6681zur7SDj4m9cuWSZ0UUOIC0XySUO3XIAZ4575beBXl5cFslPoWn4yGMk82ewAQAPlIfMRq75re5l+HfvPuV7o9BXplst/EgX6iVj8jeKeRwgCAIAgCA1uJbP0lQbz00Mh5uY0u/mtdZTa6GGk+pgDYfDv8AYoD9pgcPQ3Cy5yfVmFCK6I3lNTMjaGRsaxo3NaA0DyC1NjtQBAEAQBAEAQBAEAQBAEAQBAEAQBAEAQBAEAQBAEAQBAEAQBAEAQBAEAQBAEAQBAEAQBAEAQBAEAQBAEAQBAEAQBAEAQHF7w0XJsgEcgdqDdAckB8e8AXJsEBxjlDtxugOaAIAgCAIAgCA+EoDFdikANjNEDyL23+9c3bWtuZfE6rT2tZUX8GZMcgcLtII5g3W6afQ5tNbM5LJgIAgCAIAgCAIAgCAIAgCAIAgCAIAgCAIDHqDZzSeN2juJtY28k6owzAZWZb9Y9rJGdl5O5w+a4C43/EKNDUKMWrXhr+5XqYycTjkP1/+g2+5a/j9P/l9THMvE5PxFhGdsjZCNGMboS86C4v/ANNVvLV18uYPL8PMzky6YnMGuIL2s7Zta5NrWHLQrtWpKC5nlmUZi2MhAEAQBAdc8zWNL3kNa0XJOgAWJSUVlm0YuTUYrLZX+P8ASA4kspBYfWOGp+y07h4+iqruIN7V/Ev9LwZJc1/wX3f7ELrK6WY3lke8n6RJHkNw8lXynKe8m2XVdVdaxCKRjWWp0ydkEzmHMxzmHm0lp9QspuO6eDWcVNYkk/UlWCbezxWbN+mZz0Eg8DuPn6qbTr5x9rdfMqtTweqe9f5X8v4/uxY+FYnFURiSJ2Zp9QeRHAq2rtjZHmizzl1E6Z8k1hmYuhyCAIAgCAIAgCAIAgCAIAgCAIAgCA4yPDQSdwQGhxvFTDoNZnC+uoY34/DwUHW6zsVyx6mkng0T8PkfCalzwddx1O+2/wAeCqnROdTvlL+/3uNMbZNYohqbGhwxz4nzNeG9XfnfQXOvBSatNKdbsTxg2Udsm2wPFzKRFIe2PYfxJ+i7n+PirHQ61yfZz9zNoyzsySwSZhfcdxHI8VaG6OxDIQBAfCbalAVJtltKap+RhtCw9kfTP0z+AVFqtS7ZYXsr5+Z6zh+hWnjzS9p/Ly/cjaiFkZNBh8s7ssMbnnjYbvE7hu4reFcpvEVk523V1LNjwbtuwtaRfq2juL2392ikLQ3eHzIL4tpc9X8DbbEbOgVEraqMdZE1hax1nDtZu3pcH2R4XXbSaZdo1Yt1jYi8S1rdMXTLZt5fTpjYyOkrCoWRMmYxrH5w05QBmBa46gcRYa96319UIxUls8/E58H1FspuuTbWM+hDsCxiSklEkZ03Obwc3ke/keCgU3SqlzRLjVaWGor5Ze5+Bc2HVzJ42yxm7XC4+4g94Oi9BXZGcVKPQ8bbVKqbhLqjJW5zCAIAgIdt/tn8hDY4wHTPGbXc1t7XPiQfRAVyekSuP/iD0PxQD84dd9aPQ/FAPzh131o9D8UA/OHXfWj0PxQD84dd9aPQ/FAPzh131o9D8UBlYf0l1bHgyFsjeII4eqAuHB8SZUwsnj9l4uO7WxB8CCPJAZiAIDhJKG7+O4DUnwCA6JpL5W5XC7hvGmmu8bt3FZMEWxXCKiSZ7+rJBcbHM3cNBx5BUOo0t9lspcvf4rp8Tm4tsxv8BqbW6s25Zm2+9cfwWoxjl+a/cxys+f4BU/Vf6mfFPwN/+PzX7jkZ9GA1O7qzrv7Tfin4LUf4/NfuOVn2PA6lpDhGbggjtM3jUcVmOj1EWmo/NfuOVkxbJZ7hlcbhrtBx1B13fNC9H3HU7o5gTbUHkdCsGTsQBARTpGxXqabqmmzpjl/gFi/1uB/EoOvt5a+VdX9O8teEaftLud9I7+/u/f3FVKlPVG/2Q2dNZIc1xEy2cjeeTR3nnwHkpOm07ul5LqV+v1q00NvafT9yVYu2PDKmKeIBsMg6uWNu/sjsva3iRxP/AOlNtUdLZGcej2a+5Vadz11Mqp7yW6fr3N/T+Drf0kx37NO8t5lzQfSx+9YfEl3RNlwOeN5r4GbT19NiL2uilkgqWA2tYPy8Wkate3jb7l0jOrUNOLcZL++84zpv0UWpxUoP4Z+qZpdvMBna1s7pnzNbo7MAMl9xaBpY7j5eUbWaecUpuTl9ibwzWVSk61BRb6Y7/XPyIOq8uyddGGKEPfTOOjgXs7iLBw8xY+RVlw63EnW/VFHxrTpxVy7tn9ixlbHnQgCAICi+maS2Igf+nj/vlQGPg2K4Y3DpY54waoiTKSwl5cR+jLH2s0DTS43HmgNVshgLq6XLmyRtsZH7yAb2a0cXGx8N/cQJhU4jgdI4wGnM7mnK99s5BG+7nEAn7IsgMbH9maSopzWYaToCTHqQQPaADu014+jx9EBotg8AbXSu61xbFGGl2X2nE3ytB4DQkn43AEkfjmAscYvk2Zo06wMcQe8OLsx8bICCY9PB8ok+SgiDN+juTe1hc9rXU33oC6uiCXNhkfdJKP8A7HH8UBNEAQGoxqpdHHLI32gWsB5A5b2/m9wUbWWyrpco9f5NZPCNJs3iUpnaxz3Oa69w4k8Cbi+7cqvQ6ix2qLeU/E0i3kwcQrZRLIBJIAJHgAOdb2j3qPdbYrJLmfV978TDbyY/y+X62T+d3xXPtrP8n8WYyx8vl+tk/nd8U7az/J/FjLHy+X62T+d3xTtrP8n8WMsGvl+tk/nd8Vh3Wf5P4sZZvtqcRka5kbHFoyBxIJBJJI3jhorLX3zi1CLxtk3m2ZOz9Y+SK7zdzJAATvsbAg8959ylcOulZW1J5wZi8okKnG4QFXdJ1ReqYzgyIernOv7gFTcQlmxLwR6fgsMUOXi/oYWF7GVM8XWtDGtIu0ONi4cxYGw8Vxr0dtkeZHe/idFU+R5b78dxOdhgyOlLLFr43uEwI1D958RltYjgFZ6PljVjvXX1KPiblO/m6ppcvp/96lZ47ijqmZ8ribEnKPot+aB5e+6p7bXbNyf9R6XS6eNFSgvf5swFzO5zhlcxwe0lrmkEEbwRuKym08oxKKknGSymXPhNS2tpGueBaVha8cL6sePUFegqkrqk33rc8ZfW9LqHGP8Ate31RTNRCWPcw72uLT4gkH7l59rDwz2cZKcVJd6ybDZeoMdXA4fWNb5O7B9zl108uW2L8yNrYc+nmvL6bl2L0R4sIAgCA86flAVLmYowt/2WO44H9JMgM/ZONkmB1Ezo2Zg2o7RaC4WZcWda+iAz9iJOqwaepjPatPJfvY3K30yX80BV/W990BY3Q5UOc6pi+aBG+3I3e0+oA9EBj7N49FQV9XBKcsTpnAO4MLXvy3A+bZ1r8LDvQGZjPRyJAZ6CVrmuu4RkgtPGzJAbW5A+qAqrFqmWGR0Lo3RvYbODh2gfD8UB6G6CDfCIifrJv7ygLCQBAaLaT/Ly/bZ/wKFxH9B+76mkuhHtm/8AMx+Lv7XKo0X68f73M0h1MbEv10v7x/8AeVyu/Ul6v6sw+pjLkYCAIAVh9Abza79az90373Kx4j+ovRfc3n1MvZX9TJ+8Z97VK4V7EvX7GYdCUq0OgQFUdJUdqy/0omH3uH4Kj4gv+97keq4M/wDxvRv7EmwHbWlFOwSuyPYwNLcrjewtdthxtuUynW19mlLZorNTwu/tW4LKbznK+Zm7PxOnZU1BGUVJOQaXDAzI1xtxOpXShOanP/Lp6YwcdXJVSrq6uHX1zllSyRlpLXCxaSCORBsR6qjxjZnrVJSWV0ZxQBDJY+zWyLH0sT5JJ2OcC6zJC1oBJLdLfRsVa6fRxlWpSbWfM85rOJShfKMFFpbbrPr8yvavL1j8pJbndlJNyRc2JPE2VW8ZeD0FeeRc3XCMnAmF1TAB9dH/AHhb1LNkV5r6nPUvFE3/AMX9C8l6Q8OEAQBAeb/yhx/3oz/2sf8AvJkB1bNY31eDTwX9plR722QHPo+2ib8gloZDoesBH7EjbG3gc3qEBAq3CpoXlmV7hfsuaCQ4cCLfdwQFgdHtccOhmmmJD5A0kEm7WMDiAeTiXHTw4oCB1JqKuSadrXuzSOe4NN7F7nOsBvPkgN5sBXVlLUtLDKyK/wCla7MIy3vB0zX3W196A+dKNe2orGyNtfqWB1uJDn2v35cvoEBeHQU22Dw975v944fggLAQBAaLaT/Ly/bZ/wAChcR/9d+76mkujI9s3/mY/F39rlU6L9ePv+jNIdTGxL9dL+8f/eVxu/Vl6v6mH1MZcjAQBACsPoDebXfrWfum/e5WPEf1F6L7m8+pl7K/qZP3jPvapfCvYl6/YzDoSlWZ0CAgPSnQEiKcbheN3nq335vUKs4jX0n7i+4Jck5VPv3X3K9VUegLA6NseaAaSR1jcmK/G+rmeN9R4lWmgvX6b937FBxjSPPbx9/7nVt9gbDURmH9fOTeMWsbD2737Pfz38CtNbSu0XJ1fd9zbhWrkqpKz2I9/wBvMjD9nasHKaaW/c0keo096iPT2p45WWi1unazzr4kh2d2HeXCSrtHG03yEi7u5xvYN9/gpVGhk3zW7LwK7V8WilyUbt9/h6eZI9stoWQU5bE5pkkBazKR2Raxdpy4d6l6vUKFeIvdldw/RSutzNbLd+fkVOFSHrCT9HdB1lWHkdmJpefEjK0e8n+FTNDXzW58Nyr4tdyafl75bfv/AHzLZV4eUCAIAgKA/KGwt4rYKix6t8IjBtoHse9xaTzIeCPA8kBXEFYWxGLKCCHC9zx7kBiQ5mEOabEcQgNm3GZAN3jYke5AYdZVPk0cezyG7z5oDlQVb4gQACCb23a7r38kBlPxiQjQa8ySfdogNXKCSXONydSSgPUnRRhT6bCqaKVpa8h73NOhGeRzwCOeVwQEuQBAYdbTBwcHNzMcBmA33G4j3egWtlcbIuMuhhowMNwuKF4c0SOcdAXCwboe4crcVGo0NdMuZbswkkRPEv10v7x/95VDd+rL1f1OT6mMuRgIAgBRgnGJ0McxDXh4LWgh7RfQ37NteXJeku0kL4py6nZpM78PoWsaGMaQwHMS72nHw9PRdaaIUx5YhI2K6mwQGJiuHsqInwv9lwt4HeCO8EA+S0trVkHF951oulTYpx6opPEqB8EropBZzT5EcHDuI1XnbK5VycZHtabo3QU4dH/cGO0kG4NiNQRoQeYK0OnXYkeAbUdVUGepa6ZxYGNdcZmAb7C1jfxHHfcqVRqeSfPPd9Ct1XD+epV0tRWc48SZM2/oyLkyA8shv7tPerD/AKhT5/Ap3wfU57viY+HVUWKVDy4OMELWZYnaBznZrve0HW2WwB5rSucdVY89Fjb7nS6uegqWPbk3lruS7l8dzWdIWz8EMbJoWNjJeGFrdGkFpN7cCMvDmuWu08IRU47dxJ4TrLrJuubztkgrGEkAAkk2AGpJ4ADmq30L1tJZZcWx2B/JIA11useczyOfBvgB77q/0tHZQw+r6nj+Iav8Rbleytl+/vN6pJBCAIAgMPFcLhqYzDURtkjdva4XHcRyI5jVAQw9DuFfVyj/AOaT4oD5+Z3C/q5v60nxQD8zmF/Qm/rSfFAPzOYX9Cb+s/4oB+ZzC/oTf1n/ABQD8zmF/Qm/rP8AigM7B+i/DKaQSsgL3tN29a90gBBuCGuNr99kBMkAQBAEB1zsJGm8EEeXD8ERhkersBZLIXNeY3OJJa5t9d5tqPxVbfw1Tm5xeMmjjki0jbEjkSPQqkksNo5m+p9mg4MPXAF7Q4Ny67r/AEtVZ18McoKXN18v5N+TzNDI2xI5EhVklhtGhIaTZ5nYc+S4IDsgbqRvtvOnkranhqliUpbdcG6gSenadXEWJtpyA3D7z5q3Oh3IZCAIAgNJtPs5HWM17MjfYfa9u4ji1RtRpo3Lfr4k3R62emltun1X97yqMXwiamfkmYRydva77LuPhvVJbVOp4mv2PVafU1XxzB+7vRgrmdwgMvDMSlp39ZC8tdax4gjkQdCFvXZKuXNFnK+iu6PLYsozK7Eaqve1rs0jh7LGNsBfebD7yt52W3ySe5xro0+jg2tl4v8AvyRO9kNjhT2mms6bgBq1nhzd38OHNWel0fZ/mn1+hRa/iTv/ACV7R+b/AIJcp5UhAEAQBAEAQBAEAQBAEAQBAEAQBAEB0y+0zxP9pQwVzU+2/wC077yvJ2e1L1f1ODJxR/8Al/3Q/tXqKNqY+i+h2XcQapHad9p33leXs9p+rOJYGH7mfumL1FP6cfRfQ7ozV0MhAEAQBAEB1VNOyRpY9rXNO8OAIPkViUVJYaybQnKD5ovDI1X7A0slyzPEf2Tcfyuv7rKHPQVS6bFlVxfUQ2liXr/BqndGovpUm3Ix3PrnH3Lh/wBN/wCXy/klrjjxvX8/4M6j6O6Zusj5JO64aP8ATr710hw6te02yPZxm+XspL5/Uk+H4bFA3LDG1g42Gp8TvPmpsK4QWIrBW23WWvM22ZS3OQQBAEAQBAEAQBAEAQBAEAQBAEAQBAEB1zR5hyI1B5FAa2bCo3Pzuhu+9zZ3ZJ5kX/BRpaOmU+drc15UZvycnUntaEW3C24eGp9SpWTODClwqNz87obvvc2d2SeZF/wUWWjplPna3MYRsYYyLuO88twA3AKSZO1DIQBAEAQBAEAQBAEAQBAEAQBAf//Z;" vertex="1" parent="1">
          <mxGeometry x="330" y="736.69" width="295" height="196.31" as="geometry" />
        </mxCell>
        <mxCell id="0kGeUMnXcMIaWcKACGD8-22" value="" style="endArrow=none;html=1;rounded=0;" edge="1" parent="1">
          <mxGeometry width="50" height="50" relative="1" as="geometry">
            <mxPoint x="270" y="909.85" as="sourcePoint" />
            <mxPoint x="270" y="760" as="targetPoint" />
          </mxGeometry>
        </mxCell>
        <mxCell id="0kGeUMnXcMIaWcKACGD8-23" value="" style="endArrow=none;html=1;rounded=0;" edge="1" parent="1">
          <mxGeometry width="50" height="50" relative="1" as="geometry">
            <mxPoint x="650" y="1130" as="sourcePoint" />
            <mxPoint x="650" y="670" as="targetPoint" />
          </mxGeometry>
        </mxCell>
        <mxCell id="0kGeUMnXcMIaWcKACGD8-24" value="" style="shape=image;verticalLabelPosition=bottom;labelBackgroundColor=default;verticalAlign=top;aspect=fixed;imageAspect=0;image=data:image/jpeg,/9j/4AAQSkZJRgABAQAAAQABAAD/2wCEAAkGBxITEhUTEhMWFRUXGBgYFhgYFhUXHRcYGhcYGRgXFRcaHiggGBolHRgXITEhJSktLi4uFyAzODMtNygtLisBCgoKDg0OGxAQGy8lICYrLy4wLi0tLS0yLy0uLS0tLy0vNS8tLS0vLS0tLSsvLS0tLy0tLS0tLS0tLS0tLS0tLf/AABEIALcBEwMBEQACEQEDEQH/xAAcAAABBQEBAQAAAAAAAAAAAAAAAQIDBQYEBwj/xABVEAACAQIDBAUFCQwHBQgDAAABAgMAEQQSIQUGMVETIkFhkQcycYHRFBVCUlOSobHwFhgjYmWTpLPB0uHjM1Ryc4KisggXJCXxNENjZIOjwuI1RHT/xAAbAQEAAgMBAQAAAAAAAAAAAAAABAUBAgMGB//EAEMRAAIBAgIHBAgEAgoBBQAAAAABAgMRBCESEzFBUWFxBRSR8CIyUoGhscHRFSMz4UJTBjRicnOCkrLS8aIWJDVj4v/aAAwDAQACEQMRAD8A9woAtQC0AUAlqAKAAaALUAXoAtQBQADQC0AUAUAUAUAUAUAUAUAUAUAUAUAUAUAUAUAUAUAUAUAUAUBDh5sw7+2gOTae3MPhyBNKqk6gas1ueVQTbvrDaRwq4mlS9eViv+7XAfLH81N+5WNNHD8Rw3tfB/YX7tcB8t/7c37layqwjtZNwf8A7xtUE5W25NLxdkWmztpwzqWhkVwONuI9IOo9dbRnGWxnatQqUXaorHZWxyG2Ps7qAW9AUeP3wwULtHJNZ10YBJHseRKqRfuqbS7OxNSKnGOT5pfNkeeLowei5Z+8fsvejB4h+jhmzPYkKUkS9uNs6i/OwrWtgMRRjpTjl1T+TM08TSqPRi8y5vUQ7iMw7SKAB3H9tALegC9ALQBQBQBQBQBQBQBQBQBQBQBQBQGQ3v3raB+hhtnABdiL5b6gAc7WOvMVOw2FU1pS2EerVcXZGY+7DG/Lf5Iv3amd0o+z8X9zhrp8STDbz7QkOWORnbjZYo2NudglYlhqEVdq3vf3MqrUexnbHvRj4CGxCMUJtZ4xHfmFIA18a5vDUKitB58nc2VWpH1j0DDTrIiupurAMD3EXFVcouLaZLTurktYMhQHDMhRgw4fbSgPM4CshxeKlTpnR1sjFsoDuwzvbUqoUC1ceLPORtJ1Ks1pNPZ1e18kjk3jwAjZHXowsq5lWPpLACwv19bE3I7Kw0csVSUJJq1nnlf68SixTsEJQXbTv9OlQ551HpH0nsaKh2bS1S2q76vb8TQeTvEyDFQ30L5lcc1ysdR6Qp9VbUcqq0SRj1pYRue1W8bnsJNWJ5YTP6PGgC9AYTYuxMNK+IaaMO3umUasVIW4II6wHEt9hre4jFVqcYKm7LQW7f4FJhYUqkqjmrvTkvcSNsjDw43CGFAhzyZgGLaZOqSSTzP1dlzosRVqYaqqjvkvmbSjTp4mkoK12/kbSXEopszqp5FgPrqms2XViOOZWJKkMLDzbNrrxtS1jFiWLhw7T9dYBJQBQCWoAtQEUklr6gae2gJb0AXoBaAZNKFFzw0GgJ1JAGg7zWspKKuw3YbDiFYkC9xYm4I0N7cR3HwrEZqWSMJ3BsSgNi6g97CulmdFTk80mOjlVvNIPoINLWNXFrajyTyqbyY8Y9MHhcR7miWETSyDKLXZgWdjwUBQABa5Y37uc56KuR8RXjRhpNXexJbW+BQe+uIcZYdtytL2XkiIJ/sgX8CfXUfXzW2ORVfiWKg9KrRaj0fz2fI33kf2/i8TBPHjGzS4eXo8xABIKg9awANjfXtBHpqUmmrouoTjUipxeTM7vzJ/x0/pT9UlXeF/Sj53kOr67KLpa7nM9P8AJ8ix4JprXLF2bmQlwBflofE1VYxuVXRJdFWhcxu8O9j4tVVkVArZhYk8RaxvU2jh1SbaZwnUc0el7pn/AIPD/wB2v1VWYj9WXUl0/URbVxNwoBrqCLGgPEExckUrNE7IwZhdTbS/A8x3GuF7Hk9OUKjlF2d2WOy9ny4yQySuxUec5NybfAX7WFQcbjVQVlnJ7F58sn4LBVMbU05t6K2v6LzkWe9uwgiB0XLlABA+Lz9IrnQwtaNJzqv0nnbh5+B7nszFQpzWHirR3df3+Z1bhbMyskzec3m9y/xqww1Oy0ntZy7VxTnPVLYvi/2NhvIzjC4hozZhE5BFuxSe30VPw8YyqxUtjaKWq2oNrgeV4bGYlwh90v1nVP6NDZjwGhv2dtu69quZ4ejFtatZK+17PPXnYgxqzdvS5bjfeTqeV8JmlYsTI2W4AsvVFtBzDH11XdoU4U6ujBWyJOGlKULt3JsbuhFI7PnZcxJIsDqTc2v31vT7SqQio22FXX7CpVajmpNXd7ZEmy91ooZBIGZit7XAAuRa+nHjWtftCdWDha1zphOxqeHqqppNtbNhzbwSZZZQskMchhg6NpbZdJZs9rg9nd2io9NZLhd7PcXsNi953bvSKzSlWRv6MEpbKWEYzWt31pUvkaz3F1XM0EtQBQBegFoAoAoAoBLUBHiIcwsDY3Ug8eDA8L91azjpKxho4vcnQxSFSBaM5QosBlzt2k9rGsYeioSSWzJfH9zejFaaXNHnmEaNGcOzqsYsxjC53fNY3Zuy99PR23JvZU5NJpLPjsSPT1JTkk4pNvjeyXu8+4td2iBjer1bO6HQDOhSRlzgWGYGPUjjpy1414fk3fC/xX3IuMlfDZ8E+juk7cszMeULGpHtlkc5RLhIlVjp1s8thfsvrrzAqjxEW0mtx4vtahOdJTgr6LvbkVT7JI/pXDR3u+d3ICjU3WYyKR2aZbXuDpUXTvsXn3WKJYpP1I2lusle/wDlUX/u6Gx8i+MWb3fKnmtOgU8wsSrf12v66nUouMEmeowVGVGhGEtq+uZnt/5LbQxHpT9VHV5hv0o+d5pV9dlfsDHRxYiOSZc0akllsGuMpHmnQ6kV0qpyg1HaawaUrs9k2NtPDy4UzQplhs/VyKvmk5uqNNbGqipCUZ6MnmTIyTjdHl++W3MLiDF7li6MKGzdREuTlt5vG1j41ZYenOF9N3ItSUZWselbrYpEwOGLuq3iW2ZgL6Dheq6v+pLqTaFOU4rRTfQuIMVG98jq1uOVgbem1cbG86c4esmuo8g0NB9AePbO2K000ma6xq7Z24ahjdR39/ZVVjcYqCss5PYvPllFg+z5YmrJyyim7v6Lzkde2NqKV6CAZYl00+F3D8X6/rv+wuwnQfesVnVeaXs//r5bETsXi4uOoo5QXx/b5lnsTbKzxnC4k6sCqSHvFgrHnyPbwOvGb2h2fk501lvX1RtgsY4zjpbU1Zmk2dhOjeNOwaD0AVTpWVifKTlJye8tto4bpYpI75c6Mt7XtmBF/prrSnq5qfB3Oc46UXHiZP7hm6v/ABZ6pBX8ENCOB8/W3ZfhVl+Jwz/L28/2Ifc5Zens5fuaHd/ZXuaERB8/WJvbLxPC1zUHFYjX1NO1iTRpauOjcxnlB8rUGzZ/cyQHESgAyDOI1TMLgZsrEtaxta1mGvZUc6mV++E/J36V/JoA++E/J36V/JoBPvg/yd+lfyaAPvg/yd+lfyaAX74T8nfpX8mgD74T8nfpX8mgE++E/J36V/JoA++D/J36V/JoBfvhPyd+lfyaAPvhPyd+lfyaAF/2giTYbOuT/wCa/k0Bfp5XjYXwVjbUe6L2PK/Ra1mxi4Hyv/8Ak/8A3/5VLC5FifK5mVl9x2zAi/T8Li3ydbR9GSZtGWjJMqoN6ocgHSmNsyuSI8xLqAFYnQg6ajUE3OlzV06+Gbve+VrO6snu2NFw8VQbve+VrO6snu2W82Eh32iglWVA05DMzZj0ZdmVlzMbEKBmNgL8TrrpxxVei6WjF3eSyvZL324HLE4qnKloxfBZXsl7+h3pt7Zu2cRFDjsEUk1WKQTMeOuRmQIQD2A3F+V6qbFWmad/JRssqFMUpUcFOJxBA9Az2rWy2mqhFS0ks+Jc7vYXA4OERYVOjivm0WQ5i1uuzsCWJFtSeAA4AV21M1lb4o5rEU2r3+DPMfKhhHix7uw6kwVkPYcqKjC/MFeHJhzqwwsk6aXA41laRkulqQcz2HcNv+Tk/i4j/U9VuI/W8CVS/TPHo3JsACSbAAakk6AAdpPKrNsinta4R4IMLGxyyLhZUDZC4SUiG1wAb2IPZraqeclKbfMvcCkqbTz9KN1e10tK/A793yc5zNnYQxh3CFAzZ5OAygdo4CucjfF20MlZaTsr3srLmy+rUrxaApNu7A6dcqSdFcktZcwa+puLjidTzrXCUaFDEvEuGlLdnsfFc/KNKylUp6tOy6bTOT7hlf8A9i//AKX/AN6vfxj+x8f2IPcH7Xw/cWHcLML+6R6Oi/mU/GP7Hx/YdwftfD9zYbKwTRRqryGVl0zkWNvE+NVNacZzcoxtyJ1OLjGzdyqw8LER/g2KtFmaTpH0axNrZu4eNVMIyajk7ON27vb4mqRc4R/wSEn4AJJPcOJqdTfoJvgdI5pBhcZFIoeN1dTwIIIrZSUldHSdOVOWjJWZz4rA4Q5nkihJ4szIh4DizEcqzsNUm3ZHnPlC3O2a8SYyCCIZmysYxlVwc3WyrYZgRa/bfXhUjCaE3Zq5wxkalLbdNbjCLu5hfkV/ze2p/d6fAg66pxOpN2MGRfoF8W9taamnwGuqcSePdXB/IL4t7axqafAa6pxJ13SwX9XTxb201NPgNfU4jvuRwP8AV08W9tNTT4DX1OIx908Feww6f5vbWyoU+A19TiTxbl4Li2HT0Xb21q6VPchrqnEl+4/Af1ZPF/bWNTDgNfU4h9x+A/qyeLe2s6mHAa+pxJMPujgQQww6Ajhq3HxrDow4GVWqcTs94MN8kPFvbTVQ4DXT4iHd/C/JDxb21jVQ4DXT4iHd/C/Ir4t7aaqHAa6fEb9z+F+RXxb21nUw4DXT4nNidm4BDZ1jU8bFyDb0XrlN4eDtJpEuhhsbXjpUoSkuKRm9nmOPacLqVWFMRE2bMMoUMpJvfhxqDUrUtJ2kiyp9mY3RV6cvA91G92A/rcH5xa011Pijf8Oxf8uXgyCHBy5F6kt+hSLLni6MEZbuBnvfTjbhVi6kG9q2t7HfpsKCNGokk1K+io2urddpdY7AxTJkmjSRfiuoYX52Pb31DjJxd0yxaT2lP9xOzv6rH4H21019Tia6uPAtMFsuGKLoY4wsfW6g4da+bxua0c3J3e02UUlZGWxUuAwGISLD4LPiCLjokBZQb/COo4HQdg1qZTpVK0HKU7LmYVO2aR1vvZMASdn4iw5ZT9A1rTu0P5iO0ablvRbbv7bjxcXSx3ABKsrWurAA2NtOBBv31wq03TlZma1GdKWjIsstczkOoBruACTwAufQKA+cNt+VfaWIkd4Jhh4L9VAkRst+qXZ1Ylzpe2l6A4I/KRtMHTHycNT0MHG2mmThfS9AW27/AJVtoQusmKxAnhuuaMxxgshNmeNkVSCuuhvfhblht3tY6RhFwcnLNWy4/wDR7971wfIx/MX2Vy7tR9leCOOiuA7GqBG4AsBGwA9VdGrRyOtP111PP9j7OmigixGFfrMgMkbaq/8AH7XqNCnJRUobeHEuMRiac6sqNdZJ5NbV+3nM7vceIxpzYi8UI1EQ4sR2ufb4CttCVTOeS4HF16OF9Gh6Uvaf08+JVzG+wsMf/EP6yWpnZeaXRkDtxWrT6r5Iyairo8+X2x9hYmZM8cRKX0JKqDztmIv6q4VKsIuzZ1hSnJXSLJN1cWP+6/zx/vVz7xT4m/d6nA5sXgpImyyKVPHW2o7iNDXSM1JXRylCUXZoXCYKSS+RS1uPAAes6VHxWOw+FSdaSV/OxXZtClOp6qudkew5xr0ev9pPbUL8e7P/AJn/AIy/4nXulb2fivuRYrCSR2zqVvw4EeIqXhcfhsVfUzTt1T8HZnKpRnT9ZWOOfEKgzMQBzNTEr7Dmcnv3B8p/lf2VtoSFjpw21YXIVHBPYLML+i4F61cJLaZOwNyrUydnvTiOPRN4W+uuethxOmqnwGS7LnUFjE1hxNr+vSsqrB5XMOlNK9jgL10OZg95dcTJ/h/0LXmcf/WJe75I+n/0f/8AjqX+b/dI7MHudi3BLRmMCw6yyM1zqB0cSu4NgTqotXBUJsk1O08PB2Tv0aS8W0viVu2NkyYcgSWIYHKwvY20YWYBlYE2KsARppqK0nBx2knD4mFZXju2r/q6ae5ptH0Hu0f+DwvfBF+rWran6i6Hz/Gf1ip/efzZJtDa8EBVZZApY2AJPibeavedKlUsNVqpuCvYrq2KpUWlOVr+fDmO2ltSGBVaVwoY2Xib94A7B2msUcPUqtqCvYzWxNKik6jtc6o5AwDKwZTqCDcEHtBrlKLi7PadoyUldO6MNvPgs8+LI0zQwISOOUypmHoIGo7aj1cY6aavss/F2L3BKKp021vl8E7FZjNmCASsmHSLJYQSi5Z7uBxYkMxS7h1AKley9qysZLPS2buZKpyjV0U5OV/WXDLlszys73NJuZEQ2MC2A92zad110FSJT0rFZ2lso/4cTWVqVg1nA4kCsOSW1mUmyHHMDFJY36jf6TRNPYGmj5AwOJaIxMlgwF+tYglgVuRyAPq41kwdUmCBTMXjzGRrtm46KeXMk+ugOTHYkydKz6sdbqABcAKTYcwPGgPsdaAjnjzAr8ZSPGsNXMxdmmcGydjiGJI82bILXta/qvpWIR0YpHSvV1tRzta51nCd/wBFbHIw+9mAXCbNgwufORJobWLeezHLc2AzAesVI7Pp6DtwRr2piNdJzatd7DCA1bWKc2+3d55sHh8EkAQZ4FZiyk/BS1tR2lia81jq8oVGo8X8z2XYfZ1LE0nKpfK1rdCuxe921YkjkcII5FDI3RgqwIuBcHQ27DY6VEdeskm9jLan2Z2fUlKEW7xyavn8i02jtNsVg8LOwAdjKDbhdWyG3IHLerns+bnHSZ5HtvDRw9d047Fs96TOvZWIWHDO7aKud2PcoufoFeT/AKQqVTHqK9mKXvbN+z4/k35sy+E3ux8ueUJHEqdcJKCqvF8K0hIOYcbgWN+y1mjTwWHhaN228rrc+nl/SUrs1G0ccs2EEiG6sEYHXtI4XA767dhQlT7RUXwkvgyNjl+Q30+Zgd4jcwqeBY38VH7TX0SGSbKOObN5hthbKVmiSENJ1h1+kaxHSji91H9E+v8AZPwhevlVrNXby/6+5YKnSWVjDbwbEjwww7x5wXkYENIr+Z0ZBBVFseufAVNpVXO6fn4si1KailY1277gYhGbgodj/hRj+yuFVNxst9vma0ZJSu91/kcW19uvI7FjwubcQoAJNuQAvr3XNWVOhToU9J5JbWUdZ4jGV1Tirybsltze5eepPunvE/SLr+DYjTmCfPt2HW/eOPdEnTWJpOqlZfw32vn0e5e/eWkacuzsQsM5aUl66XqxfsrjKP8AE1lf0d13Fj0USyADg7gDl1jpXKDvFdDtPKT6mNlxaR7SEkmiqy9a18h6IBZLduViG/w157FtLFNvl8kfReyqcqnY8Iw2tP3+m7r3rI9F2dtCBTE4SMKgAHRy4cOptZ+tnAnhe1zmswNiVv5nSMlk/t5aKurRqNSi27vipWfDK3oyXLK2SftYrykbajnbKgXMXMjZSrZbRrGoZkJVnOUk5SQAqC9wbRsRNS2F32PhZ0leWy1ltV828k87cLrNts9d3Y/7Hhf7iL9WKn0/UXQ8ljP6xU/vP5sxG08HgTjirYpgpN3PnWf4nSk6ekg2ta/L01GriVhrqGe7dlxt5ueRr0MLLFWlUy39eF/Ni23t2TgVhRjJ0TKgWKxMhZRqAEJ1GvEW48aiYHEYmVRpK6bz3WfUl4/C4VU029FpWW/Lp56nfuLFCMPeKUyE6uCSMjfFCX6vp7eN+FcO0pVHV9ONuHNdd/0JHZcKcaPoSvx5Ppu+pZ4zZpaQyLl6y5WDcCB9h4V57EYWc6mnBrNWaewvaWIUaehLc7po4cVsZzqscFxqCc5sew2JIPrFcI4OrF3jGH/kSIYyC9aUre46929kth42Dtnd3Mjn8YgDTnw495qzpRcY2k8zhjcSq804qySsuhbV0IZUbUHXa2QNkTKXFx57Zuw9lVeMXpytbS0VbS2bXfc9xNw/qrba7vboh+GjDJMEtroLaAnolBt66kYTR9PRttWzZ6sTliL+jfhv6s+TMGVBUTKWyaGMllJ4grfihB+r02mEcaUky9HY9rDTmo1vysAaAkxYVmKQKR0hCrGCW42CoGJu12+n1UB9Xb0bdTA4V8TIrMqWuq2ubkDS9daNLWS0bnKrU0ErK7bsedHy74T+qz+MftqZ3Be18P3NNOt7K/1P/ibLcPfOHaccjxRyR9GwUhyNbi9xY1HxGH1Vs73M06spScJKzST23235LgeVb/b/AG0sPtiXDQ4kpCskShMkRsGSMsLspPFj29tcaaTkk+J1m7RbRLjtoSzNnldnbhdjwHIDgB6Ku4wjBWiiolOUndsgDVsanoWP3XOPwuCkilVSkIQ3UkHRQdQdCCrD191ebxuHc6rztmz1vY/accLSacbp22PgcEvk3xT5Q+JRgoCrfpDlUCwVQeA04Cojwk3tZbR7doRvo03nm9mb5lptHZYwuFw2HzZynSEm1rlmzE27Bdjb0VbYGnoRseU7YxPeazqWtfdySSGbNZXiZDqDmVhw4jX6DXlP6RKUMapf2Vb3NkvspKVC3NmJ/wB3swkfLiV6NxlZiGMmXMrWI4E9Ua315dlcvxWm4q8M14XJXdpX2mw2hEkOFESaKoRFudbAjxNhet+wXKp2ipvhJvw/cj9pRUMM10+Zhd4JLGJuxWN/8p/Ya+hR3o89Dab3D747JZnkuUlYPq0bgkuqq2q3W5EaDj2d5qA6FZK24nqrTvcwm29uRYj3PHDE6ZJGY5iDcv0Y0sT8T6amU6coXcmRqk1JZI2W7oVsSivwYOp/xIwt9NcarcY3W63zOdGzmk99/kcW0o58Cz2XK79USmwAT/wr6Bm7dbjgAOJtaUqWLSu8l/Dz58lu3P4EWdGeHbcdr38uXN7+HxHbm7EkllVyPwakEt8GwN7KfhE2tpwBJ5Xxj8VCnTcVt4edlvO8xhMFKU1J+Pnbcj2lODLIQbgu5B5gsbGq2C9FdCVN+k+pkts7LeSVnUrZrcSRawA/ZVRi8BVqVXOFrM9n2P29hcPhI0at0433Xvdt/Uooos2IXDAjpWdYwNbZmIAGa1u0a1Alg6sXZr4lzH+kGCkrqT8Ga7/dnj+BEI9Mo0+itHh5LbbxNvx3C7VfwPaNlYXooYYrhujREuO3KmW/0VZQVopHjK89ZVlO1rtvxZld891kb8NDCSwuZFjIGbhbqW9Nyuvcb3F1gMdJflzl0b3e/wC+XNFFj8BCX5kI570t/nln1MdsnCS4t+jEROX4SgIIx8RiRbLx43Yanrag2tapDDx0tLbxzvz6/DptKujSniZaOjs4ZW5dPj12HrOzNlRYePJEgUdp4ljzY8Sa8xWrzrS0pu56ajQp0Y6MFY7C3qridW0togYcxWbMxpR4jhWDYWgA0Al6Aym2vJzszFStNNhh0jasySSx5jzYIwBbvtc0BXv5JtkAG+HfQXt0+I+jr0MpXdjn3b3WwMDJicNsqbMQGjd5onsCLhlEk5ymx42vW7iuPz+xNnhKcJOMqsbrLZP/AIkvlVxYl2JLKAQHCMAbXF2GhsSL1JwatVtyK3HU3SmoPdJHiMGKwbiGKRUsIwWcgqFYKQR1AHkJJuQWHmi3fa5FZKniYuc4t7clxV+eS5Zb8z03/Zy/7Pi/71P9FV+O2R9/0JsP6xL+7H5yPOvKj/8An5/72D9XFUGl666o71PUfQvs1X1imDNWQdeD2xNDpHM8YJ4K5UE87XtetJ04S9ZI3jOS9Vl3s7eCdtTiX9ch9tR506S3I21tTizuxeMNszMWY8CTe/rPZWIxWxGkpN5sqIsSym6sQTyJ1rFehRqxtWimuaT+ZtTqzpu8G10Jvd83x38TUT8P7P8A5cPCJ177iPbfiQTYl2PWZiey5P0VKoYehST1MUk+CX0OVStUqevJvqdcOCDL+EAI+Kf210cuBqiCXZ2G7I46wp8xpMbDhYUN0RQeYAv/AAra995jSbJGlrNjFyxTbGLsLSyn1sfpri6VPgjuqtXiyLFbXxRUh5Zcp0NywB7jWVSp3ySMOrUtm2Uz4jlXWxzuR9LWbC5kdkv/AM7w/wD/AFwf60qpr/qMtaP6aPorHDrvYxhsy6uL3TIL20PbVJiV6ctHRvdest1t2RaUfVV72s9nG53bNAyHLoM72tp8I8Km4XR0Ho7Lv5sjV76SvtsvkdetSTicjY2BGKmWJWvqMyg3PMX48K2tJmVF7kddudamCn3mjkaNeiVmYODZePmsPDWpmCcFN6bsrfVELHUp1IJQW/6MpcGuLeWLPAyKGQm3A2YEk8h3fXUyepjCVppuzIMcLUU4u29fM2QqnLs5mxgvoL0B0t7ProDKeUDbxgjWKJsssmtxxVAdT6zp86udTZYru0MU6MUoP0n8kT7H2hJaN5Ay51UlWJNgwvevO069TCYrRqSbjzb2PY/PNF9TtiMOpqNm1f38DQzC6m3I/VXpiJHKSMfgdngPhZ3hxIlghSLKFjynKjKb63+G3b2CurltRc1a941KUZQ0ZSbvnfNp/QsW2PDNs9MNjBlQoodS2QgjW1weNbUpTjO8Fcpe0pUpVJSlKyvdO9vmZn/ddsL7Yk/vVL7xiPY+DK3XUf5/xh9jSbq7F2fs9XTCuqh2DNeUNcgWHE1wrOvVtpReXJm9Ovhoyctam3xlHd0txZ8/eVFgdvTkajpYP1cVcKatUXVEqbTg2uBcF6vymEMlLAvPJ1uRHjGfF4tTInSPHBGQxQ5D1nlynzL9ULwJDXvpVDXk5VJN8S5opKCtwPRdobgbPlV0fCQBbC3RwpEycb5HjAa/A66fTXE67jyvDbIkwOJxGEZi0adHJCTpdJAxvb4J0sRp1lJ7ascC27roV2OSumbLd/CqYXkZkRVN3d2yqovYXPZXlO38PicZjtVTfoxituy7v8X9DnQpaaOtsGQ/R65r5baceHGvJOjVVXUtele1uY1Wdhu08Eqi90YqxUlWzZXFsyN8VgCNO+vU9i4XFYLGxhN+jNPZsyV/H9+ZmrS0EZbeGUno0BsGax+gC/PjXqca3ZLiRnnkadfJ5hVDhsSzSKrHKCieaoN2WzNYZkvr8Ic6g6CJiwcFtZi8dsx8M0ZMiNmZl6hJsVyFgbgdjis0rxmmuJDnScLXNLujEsmMiVhcXY2PC6qxF/WBV1iG4020dcMk6iTLnb2+M5meLC5VWMkM7ZdSDY2LHKBe4HEm16ofzqtTV0Y3Z6nCQwXd9fWnldro1u4339C33Y2tiJrx4qNSGXquChDi2qsoJBuNbjT9vGni7VnQqZTW6zRri6GH0FUoSunuPL9pqEmlReCyOo9CuQPoFeohnFPkeVnlJrmc2et7Gtzq2Tu8pnDxRZ5ywdW4lWWxBUnRLWGtd3hsPTTnUS5tlP37GYiooUW1wSy8f3yNrNgNrLbryNf4soNvTrUeNXAvcvAlTodqx/ib6NFZjdoY+I2lkmQ9lywv6DwPqqTTo4WorwSZCrYnH0XapKSLndDeaVpVhmbOHuFY8VNrjXtBtbXuqJjsFBQdSCtYsOyu1Ks6qpVXdPYy82jgpfwhvlQiX/vAqESKAGkBHFfTVQpxSuz1kM2kldlmdrYf5eL84ntqPrYe0vE37pX9iXgxPfXD/LxfnE9tNbD2l4julf2JeDOjD4lHF0dXA4lWVreFbqSlsZynSnTdpprqrEGJmv1V/wCvdWTQVcJpqT6qA629n10B5vv1sWf3WJUR5lcKRZC4XJYFGAHmnj35j312wtCNWqtY7R3529xSYzDTdfTtdP37N3nmJNtHaUhF4XvwH4Bhx5m3Cp+I7J7Lr2dRrL+19mTKeMxcMor4HoWAiZI0V2zMFAY8LntsOVVWjCPo01aK2XzyJ95POW06KA862nMZsRM0jERxMVJ42AYqqoPjMQfpJ4V6GjFUqUYxWcl+7b5I8Vi08Tiak6jtGLt0V7JLm/u3sOfD4suwjghjBN8oZUdjYXN2k0vYHgBXSVNRjpVJP4pfD9zlTbnJU6FOPK6Un73LLwSGLjY3OWVVjPAOi5cp/HQaEc7AEd/CtnTnDODvyefg/KNU6VX0asVF+1FWt1WxrjazRgvKZs5UaCRlAlWdIyR2qbsNe0dW4PJu+oeLjGShVXFFp2RrKU6lCWxJu3Pl1v7zkMlSSZYYZKCx6V5HdvocO+Ht+FgeYkZjco8pkVgoBuLs4JGoyjQ5gK8/V/Ul1fzLmn6i6I9DVApJ6Ri7NZrG4zZM2XKbiMZQOXZqSbnmb3PFN4tux4naE7QkGOOOGEMGzBiplZirfCGZ2APaFuNCKsMBtl7vqQcd/D7/AKFhgcVh3w5gxKGSMsHsHZCGW9iGXuZgR3153tbF1MLj5NRunGO+2wiUcXGi2mXR3gi/p72kEgIXs04DLyt237K8tOpWeJ11vSvpX3dPL+5OU8O8K8Q5ele1ud+HC2fmxWNjMNHEYcLH0aM5kYZme7EAcW4ABQAK9P2bjKmKxsLx0UlLffOxDqYyNVqKKPa04zxEnQNc+K1f49er7/oc96PVY8XhXebERYmNy0TIVV0NgouvDrAg5ze1zn/FFQstpaJxbckzzLenbUc/RdGxbK8hNzIdGEIGrqttUbQX+mkM5x6ogV5qdrc/oWW4GKJ2hCOA/Caf+m9XeLX5T87zOFX5iJ9u7Lkws8qvGzRSPmR17TdsovYi/XIKm3YfTU4bFPCTc7ZWz6bSJVhVo1HBpuLd1bi/ru55G53Z2eyrHcZQi876m5IBsL6k62qjhOrj8e8ZJWju8LL7s9TGKoYZUt+/5s8i23OfdM9vlpf1jV7SHqLovkeemvSfV/M4431HpH11stpzn6j6HqPk2y55r+flW39m5zfTl+ite1r6MeGfn5kP+j2jpT42Xhnf6FhtPbMzYtsOkyYdUA6zgEuSAbDNp2/RXCjhqcaCqyi5N7lu8CZiMZVlinQhNQS3vfs45bztwGHmnSSHGKjrpkkW3XvfUW4Eaa2HGuNWdOlKM6Dae9PcSaNOtWhKlikmtzW/n1Ri9i4UxY9IzxSUrfna+vr41b4ianhXJb0ecwdJ0cfGm90rFv5Z5SNmSFSR1hqD3MfrA8K8liFdRT9pH0bs+Ti6ko5NU5WfDYfOuzi8s0URldRJIiZszHLnYLmtfW17+qttVD2V4I5PE1l/HL/U/uNxckiO6Z5BlZlIZmBBBsQwB0IIsfRTVQ9leCHea3ty/wBT+56n5BMQ5kxAzMbqOJJ7U5+k+JrnGKjXslb0fqSKlSc8FebbtU3u/wDCe24eC3p+3CpRWHRQBQHJtDaEcC5pXyjgNCSTyAGprWU1FXZ2oYepXlo01cqPuywvN/mfxrl3iBP/AAbE8vEQb5YXm/zKd4gZ/BsTy8S32ZtSKdS0TZrcRqCPSDXWM1LYQcRhauHdqisecbakAuL2DYvEZzxtlKAXtxsHY/4q9Vh1vtshG3vv9keKxMMmr5OpNv4L4JssIcPDho7+6lWSUK0cnRObRgg3CWJBZhxPYulR5TqV521d1HJq629eSJNOhSw8L6y0pWs7PZt2c38jl27BC4bExzAB/ghGs0ovnC/EvbN1uZrrhp1I2oyjs5rJbuvDI44vD0p3rwlt3Wect/S+3Mw/lNkvh8CTxLRX9CviEU/NVR6q4YtWVv8A7F8Y3fxZJwC9NN/yvlKy+CRQl66knRJIRrrQw0DYZekEqM8cgNw8blGBta4I1BtyqNUwtOb0mdoV5wVkWG0NqYqdDHNjMQ6N5y51UNpaz5VBcWsLNfhXPuNPn59xv3qfI48HEkYyoLc+Z9NSKVKNNWicak5Td5HUuItUTGdm0MW06l7retpHnRjPaSrKOPbUD/09heMvFfY07pDi/PuJEntUzB9mUMK3KF78X5RvToRhmhuImVhZqmVKMaitI66JXyKnf9HsqN+H0uL+H2GgNBrpTwVKEtJXfUzoEmGxciOsiOVdSCpHEEVKklJWZsk1mjWx+UraFtWiPeY+PgbVEeDpczvr6nISfyiY91K50W+l1QAj0Ek29NYWEpph16hls1SSPYfE3WHpH11lbTSovQfRno24uOWPE2Y2Ei5Afxrgr42I9YrftKk50rrdmU/YleNLEaMv4lb37jR7cdemZcVhDJFYdHJGrFhpqHINxrfl6+NV+HT1adKpaW9N5e4uMY4us44ilpR3SSu+jI9zcK6yzMqSRYc+Ykl7301APdfXvGptW2PqRlCKbTnvaNeyqU41JyjFxpvYnx8+ciqnQDa9gb/hFPigJH01Ji74D3fUgyVu1vevkSeWsf8AK5P7Q/0vXmsR/D/eR7nA7Kv+HL6HgO7mBDydLJpBD15Ga6qStskWa3nOxQWFyASbaV2REbLDHQ4TEyNMcWsUz9eVRE+RpSSXeJ5DGFDHrFWtYsQCRazIwrm5/wBnofhsTrfq8efWTWuC/X/y/Umv+pP/ABF/tPc6kleFAFAYLyhMemjHYI7j0ljf6h4VDxPrI9P2GlqZPn9CnwAEcbTkAsTkhDAEZuLPlOhyiwHZdhyrlHJaXgT616lRUU8tsrZZbl73t5Idij00PS2AkjbLLYBcyt5jkCwve6n0rWX6Ub7zFP8AJq6u/oyV477NbV4Zr3nduI5GKsOBRr+INb4f1yN2yk8NfmvqUePlUzYrDSsEvPI8bNoFfMw657EdSBfssp4Xr3VOLVOnVgr+ik1xVt3NPdvzR8uqQTnOnPK8m0+D58mvDJlbtmWYSE4hSjHgCLCw4ZLaFeRBPO541Jw8abhak7rzt5nGvGeneos/OzkdOzDM0TrmyYZipkkYdVSpBBQ8WfS2Vbk/SOdbVxqJ2vNbEtvv4Lm9htTpzcHHZB7Xu93PktplPKLtBZehyjKoljWNTxEaKwF+/W572NQMfT1dGCbzc7vrnfzwJuDelVk0slGy6ZWKsNWpIsSq9qyYsL0lBYTpKGbC9JQWHK9BokhmrUzojTiDS5nRGmWlxojekpczYM9LiwB6wLDhJQxYd0lBYXpKGLCrLYg8qGHG6sajC4pJBdGBtxF9VPJh2GrCE4zV0eOr0J0ZaM1+/Q02A3xxUa5brIBwzgkj1ggn13qHU7Oozd9nQsaHbWJpR0XaXXyvidx3+ly26JM3xrtb5v8AGuP4VC/rOxK/9QVdG2gr8f2/c590MDLNihO1yqkuzn4Ta6Dmbn1D1VvjqsKVHVrbsscuyqFWviVXlsWbfFl35U9kTYrZ8kUC53uDbtIsRpz415iunZNK9mme9wEo6U4SaWlFpN7LvieHz7nbYeKOBoG6OPzVCFdbsbtZLsRmaxPDM3axvp3j+zLwOncX/Mp/60cv+7naf9Vf5r/u0169mXgZ7jL+ZT/1o9P8iW62LwjzviIjGGFhe4JN1OgIB+DSnedXTs0rWzy3ivGNLDapyTk5X9F3ytbaermpRWCa8/ooB9AYTfuIviYlUXZkCgd5dgKh4hXkkem7GmoYecpbE2/gjmhn/CPFCetHEyQHtLhg0rL+O/XsR3VhPO0dyyO0oflxqVVlKSculrRT5RyuNkxuUwdOSzOjrPfzuic9TMfjADOO3hWHK1tL39DMaOmqmpySaceGkttuT2PdtJt0sMY8cY24qri/PhYjuIsfXWaKtUsc+06qq4JTW9o4t9tqbFedlmmdZ16sjQqzajTK5ylSw4aai1jwtXpMFiMXShaCTjwf0zTPD4ijQnK8nZ8irwO2tlxjLFtDHKvxQOr6lyWFSKlevUd5UoN+eZxjGjTVlUkvPQvtn7tYPaC9KmOxM1jY52W6HllZLr9Vc32lWw/oqnFdE/ubxwtKv6Wm356Hh/lQi6Dac0KMSkJjEYY3teNHN7W4kmq6vjKteanN7NnBEylQhTjoxKP39l5L4H21nvtTkNREX3+l5L4H21nvtTkY1EQ9/wCXkngfbTv1TkZ1EQ9/5eSeB9tO/VORjURD3+l5L4H2077U5GdRE6V209uKX+3fWO+1OQ1ERDtp+aeH8ax3yry8P3M6mI07bf8AE8P41nvlTl5941MRp25J+J4H2075U5DUxEO3JPxPA+2nfKnIamInv7L+J4H2077U5DUxE9/pfxfA+2nfanIamIe/8vJPA+2nfanIamIe/wDLyTwPtp32pyMamIfdBLyTwPtp3ypyGoiH3Qzck8D7ad8qchqInduRiC+1cGx0LYqC9uH9ItR5TcpOR0UUlY+u+jHIeArW7M6K4GP29v5Bh5mhWEyFDZjdVAPaBob27asaGAqVIKTla5WYjtCnSm4KN7HG3lMUAXwrgHh1wLju6utdPwtv+NHN9rJLODNRsbbS4uISQggG4a/FSOI09R9Bqvr0ZUZ6Miyw9eNaGnEhhxRDIhks0hcKOjB81iNTfuqsVZ6Si5Zu9suBtpFps+ctEjNa7KCTwFyKk0ZOVOMnvRvF3RP0y/GHiK6GRy86AWgCgMlvpgZekixESlslr2F7ENmU2HEcb1Grxd1JF72TXpaudCo7X+qszPCaJW6VcPKJL5gpP4NW4giyhiAdQL+uuN0ndLMtHCrKOrlUjo7L/wATXjb3hLNHIekmglMnwshyrIR2sCpKX7bfRRtPNrMzGnUpLQpTjo7r5tfGz5XLzdPCTSYh8VIpQEEC4IuTawUH4IAtf0d9daMZOTkyt7TrUqdCOHpu78fHm2eZ+SPACXaQaQZ8iSyHNrcmyXN+Or3r0WMejRy5HjMN6VXM9g27s+CWCSNoo7MrBTlW4YghWXTQg2NV1KUoyTTJlVRlBpoxvkeiKS4lT2BAfSGce2p/aOcYsruzPWmun1LDeLCRtiZS0aEki5KqSeqvEkVUlwcAwEPyUfzF9lASLgIfko/mL7KAkXZ8PyUfzE9lASrs+H5GP5ieygJV2fD8jH+bT2UBKuzofkY/zaeygJF2dB8jF+bT2UA8bNg+Ri/Np7KAPe2D5GL82nsoBh2dB8jF+bT2UBG2zoPkYvzaeygIm2dD8jH+bT2UBE2z4fkY/mJ7KAjbZ8PyUfzE9lARNgIfko/mJ7KAjbAQ/JR/MX2UB0bKwUQniIjQESJYhFFusNRpQHo9Aec7uuRjtpMqhmWTS6l8t5WDMFGrWFzlGptarbEZ0aSb3fQqcPlXqtLf9TQ7SwkWIRXnhVn6MecCMt7k2B1HoPCoEas6UmoSyuT5UoVYpzjd2KzyRm+Dk/vm/Vx1M7U/WXT6shdkr8l9fojVJs8jzZnAuSBaI2uSTYlL9tUqotbJP4fYstHmSiEJFkFyFUAX46DtrrCChFRW4ylZWHuBY8OFbGR8Pmj0D6qAfQBQBQBQBQBQHh/k42pDgsROcQGVyOjXTgc/XDEnqi4Xwq6xVKdWEdDqU2HrwpTlp7Sz3j3nkD9HA6MuUXcHOQxvfK17DS3ZW2HwqavJEfFY1xdoNPmWfkkjIec9mVLnvu38a59qerH3m/YzvKfu+pp9t7Cd5DJHY5rXBNrEC2ndpVOXxwDd7Ecl+cKAcNgT8h84UBIuwp+Q+cKAeNizch84UBINjzch4igJBsmXkPEUBS7Q2zDBI0UhYMtr2UkagEajuIoCD7qMNzf5jUAHenDc3+Y1APw28EEjrGpbM7BVupGpNhr2UBfNsmXkPEUBG+yJeQ8RQEfvPMeAHiKAY2w5uQ+cKAYdgT8h84UAxt35+S/OFAdOydgSCRXksoU3sDckjh6BQGnYW14fbtoDzXaWwdpxYuafA6rM2Y6xA662ZZO8mxHZVvTxGGqUowrbV1+hU1KGJp1ZTo7+n1OHaux9t4gqXjsVFupLElxf4QD2NdKVTA072d+qb+hzqwxtS11bo0vqbbcPYT4TDdHIRnZy7AG4FwoAB7dFHrJqvxtdVqmlHZaxPweHdGnovbtNJUQljWF9KAb0C/FHhQDhpp4UA6gCgCgCgCgCgKPaG6OBmkMkkClzxILpc8zlIBPfXeGKqwVosj1MJRqO8okS7k7PHDDj58n71b99r+18jl+H4b2fn9zubZ8UEDJEgReJtpfUak8Tp2moONqynTbmydg6MKUlGCsQRefwQfhAEytcldb3Fz3VXU/1M0l6StZ7VntzJ0vU37M7rf4F1VqQAoAoAoAoAoDzXeHBF8TK1uLW8AF/ZQFd71NyoBPepuVAdOzdnsk0TW82RD4MDQHqVAI3I0A0C3o8TQDwKACaALc6Aaz2oBoS+rcOwe2gHMt7a2t9P8KAUD7c6AUigFoBBQC0AGgG2NAOoAoAoAoAoAoAoBCKNXA0RqOweArVQitxtpPiDPWxqRtiKAibGgUBG20RQEbbVoCKTbBA0Un7c6Ay0kGIJJJ1JJPr1oBvubEc6APc2J5/RQB7nxXMeFAajD7XcgZ1sba2Gl+23dQE6bUFASrtGgHDGeH24UBLHiQeGtAP6blqaAcqdp1P24UAI9/RQD6ARu6gFBoANALQBQBQBQBQBQBQBQBQBQBQBQCEUBEYr0AxsIO00BGcCKAYdmCgGNshaA4W3TgJLWIJ4kM4+o0A47sRfHk/PSj/AOVAJ9zUfxpLd8sv71AOG7Efx5Pzsv71AH3Mx/Gk/Oy/vUBF9ycFwSCSOBLufrPGgO9dkKO2gJBs1aAU4ADW/poAXC24cO3uoDoSADhQEgFALQCigFoBKADQC0AUAUAUAUAUAUAUAUAUAUAUAUA3NyoBeNAJegC1AAegGuxHIeugF4C9AsyD3elr2ex7TG4Gvfas2Ouply8UdHD0fVWDkOoCHF+Yft20BBNGgGlr6dtAdhNqAYATx+32+3OgH0Ayxv3dv8O6gHg0ACgEfTUa91AKD20AyK/b+ygEZiGHaP8Ar7KAerXoAsb8dOVAOoAoAoAoAoAoAoAoBL0AXoBDQCZfUaAVaAa3HTs40AqrprrQDiKAKAjkGhHcft6KGYuzKwYR9Tle5VVILJlFsuoF7/Bra5L1keK2t7HfeW17m1akMYLg93qoBzAdutAMMSchQDgNdaAfegE+r66AUmgIxHY3oCUUAUAxhr9dAOv20A3Jfj9uNANdwgvrxoCRGuAedALQBQBQBQBQCFrUAa0AZaAWgGlqALE0ApFAJ9dAHePt/GgDvFAKDQARQBQDTpwoAAuL/YUAZuPMfa9AKNPRQCZba+NAOvegE4+igAUAooBaAjckHTh20A8mgEGgoBgBv4Ej7fbSgJAaAGUHiL0AgFvRQDqAKA//2Q==;" vertex="1" parent="1">
          <mxGeometry x="680" y="736.69" width="305.52" height="203.31" as="geometry" />
        </mxCell>
        <mxCell id="0kGeUMnXcMIaWcKACGD8-25" value="" style="shape=image;verticalLabelPosition=bottom;labelBackgroundColor=default;verticalAlign=top;aspect=fixed;imageAspect=0;image=data:image/jpeg,/9j/4AAQSkZJRgABAQAAAQABAAD/2wCEAAkGBxITEhUTExMWFhUXGB0bGBgYGB0aIRodHh8YIBsdHh0fHygiICAlIB8aITIhJSkrLi4uGx81ODMtNygtLisBCgoKDg0OGxAQGzUmICY1Li8tLS0tLy8tLy0vKy0tLS0tNSsvMC0tLy0tLzItLS0tLS0tLS8tLy0tLS0tLS0tNf/AABEIAKgBLAMBIgACEQEDEQH/xAAcAAABBQEBAQAAAAAAAAAAAAAEAAMFBgcCAQj/xABQEAACAQIEAwYDAwgGBQoHAQABAhEDIQAEEjEFQVEGBxMiYXEygZEUQqEIM1JicrHR8BUjNZKywUN0guHxFyQlNlRjc6KzwjRTk6PD0tMW/8QAGgEBAQEBAQEBAAAAAAAAAAAAAAECAwQFBv/EADARAAIBAwEFCAIBBQEAAAAAAAABAgMRITEEEkFRcRMiYYGRodHwBbEjMlLB4fEU/9oADAMBAAIRAxEAPwDXu0PHaGSomvmGKUwQCQpa5MCwBOKp/wAsfBv+0t/9Gr/+uGu/n+yKv/iU/wDEMZD3Q9h8vxR8wuYeqopKhXwyo+ItMyp6YA27h3enwis2lc4qn/vFemP7zqF/HFxpuGAIIIIkEXBHpjE+0/cPTWiz5GvUaqokU6ukh/1QyhdJ6TI6xuKv3OduquSzSZOsxOWqvo0tP9U5MAidgWsw9SdxcD6WwsMZ7O06KGpVqLTRd2dgoHuTbFRqd6/Bg+g5xZmJFOqR/eCRHrMYAuuFgfJZ6lVpirSqK9NhIdWBBHuMYD38dsaOZfL0cpmBUSmHZzTaVLMQFEixIAP97AH0NhYpHYDtnkKuXyeVTMo2Y8Cmvh+adS0wWFxEiD9MWXjfH8rlF15mvTpA7a2gn9kbn5DAElhYpuR70uD1XFNM4oY7a0qUx/edQo+ZxcQcAe4q/aTvB4bkX8OvmFFTnTQF2HPzBQdNiD5o3wb234o+VyGZzFP46dJivOGiAfkSD8sfNvdf2Wp8Vzr08zWZQEaoYYa6jSJuwPUkm5/fgDeOE96vCK7hFzQRjt4qtTH95hpHzOLoDjGuOdwdBiDlMy9MT5lqgPbmVI0mfQ79Ri/8Z43kuE5RabVEp+HRIo02bzP4awoA3J2E9TgCz4WPmvuT7U0ctnK9XO5jQHpQGqFmli6k9b7nG91e1WTXKjOmuv2YmBUhiPi07RO9tsATOFiBp9s+HtlmzYzVP7Oh0s97NY6YjVqgjyxJnDOS7d8Oq5apm0zANCkwWo5SouliVAEFQTOpbgc8AWTCxDdnu1WTzpcZWutXw41wGEapjcDeD9MMcd7a8PydTwszmFp1NIbSVY2MgGykcjgCwYWGcnmkq00q021I6hlbqpEg36jFd413h8LyrmnXzaBxYqoeoVPRvDVoPocAWjCxDcA7VZLOqWy2YSpAkgGGA6lWhgPUjGK9/PbKjmWy9DKZgVETU9Q02kajAUSLGAG2/SwB9B4WKL3edsshUy2SyiZlGzH2ekhp+adSUhrG0Wg8+WJXOdvuG0q5y9TNKtZW0FNLzqMWssc8AWXCwJxXiVLLUmr13CU0jUxBMSQBsCdyMR/Z/tZks6XXK11qlAC0BhAMxuB0OAJvCxAL204f9p+yfaU+0atHhkMDq/RkiJ+eGc1294bTzS5Nsyvjs4QIqu3nYwFLKpUGbQTbnGALLhYE4nxKjl6Zq16qUqY3Z2Cj0F+fpisZXvT4PUfQudQE82Soi/32QL+OALlhY5RwwBBBBEgi4I5EYrfHe3/DMo5p5jNorixVQ1QqejBFbT84wBZsLEN2f7VZLOgnK5hKpAkqCQwHUowDAe4xM4Azzv5/sir/AOJT/wAQxSPyafz2d/Yp/vfF37+f7Iq/+JT/AMQxlvcf2syeQqZls3V8MVFQJ5HeSC0/Apjcb4A+lcfH/eCqrxTOeHsMxUIjkdRJ/wDNONs7Ud9uQp0W+xlq9YiElGRFPViwBIG8AX2kbjLe67spW4nnxWqAmjTqeJXqHZmnVo9Sx3HIEnpIG4d4XYMcWoUFNdqL0zM6S4MgagU1KJ2g8rjnjPu13dlwjK5KqVzkZmmjMuutTl2UE6PDtvsALzG/NflA9q81TzCZKlUanS8IO+gwahYsIJF9IC7bEkzNoi812G4Nl+GHNVM8amYagTTVaiQarLKqEAL2aAZPIzGADfycOKv4+ZyZJNJqXixNgysiGP2g4n9kYqPe92by+QzwoZZWWmaKvDMWuS4Nz7DE9+Tj/aVb/VH/APUoYZ/KHX/pRfXLpH96rgDTe7ru7yFGnk88iuK5oo8lyRqen5vL/tHHHbjuno5/Ofa6maemhUCokT8NvKzNCCItpImTzxM93PabJ18rlcvSro1ZMtT10wfMulVVpHobYxDtpx6vxLizZXMZk0csMwaIBPkpqradREgFrTLczuALAF97HY/hmTo0nyWYD1C+h6XirUMFWOuBcQRB5eYbY07uE4tUr8LC1CT4FVqSkmfIFRlHy16R6KMZX3ndlOFZChTXKZlq2ZaoNQNRXinpaTCKAvm0xN9/XGifk4f2bW/1pv8A06OANM4rw9MxRqUKglKqMjRYwwIMeuPmftH3WcUyNQvRR6yKZSrQnVHIlB51MbxI9Tj6M7WdoKWQytTNVbqgso3ZjZVHuefK55YofZnvwyFZYzatlXHo1RD7FVkH3WPU4AzXs13ucTybhK7HMU1MMlb4wBvD/ED+1qxqfeTwvJcS4WeIQzGnl3qUDqKxqAMMNiQRcehxk/fP2nyefzdOplPMFp6XqaSmsySLEA2FpI5+mNZHCqmX7LvRqAh1ybswO6ltTkH2mPlgDJu5rsnluI5mtSzIYqlLUNLFb6lHL0ONR71+DUsnwB8tRBFOm9PSGMm9QE39ycZx3E8ey2UzddszVWkrUCAzbEhkMe8Tb0xqPfZmUq8EqVKbBkdqTKwMggupBHywBkHdp2Ir8VD0jmDSy1Fg7W1S7iPKsgSVX4jtA3nGj9ruyCcM7OZzLpUNTVUp1CxXTJNWgAIk7BRgT8mj81nf26X7nxdu+XLs/Bs2FEkKjR6LUpsx+Sgn5YAz78mb4s97Uf8A82ID8of+1F/1dP8AFUwV3Ado8rlKuaTM1kpeKtMqznSp0F5EmwPmH0OIPvp49l85xHxMtU8RFpKhYAwWBcmJ3FxfAGmdtu0lTJ9ncn4LFalejRpBgYKqacsQeRgaZ3GqeWKV3Od3FDiNOrmM0X8NH8NUQ6ZYBWYsd4AZYA9cWbvM4S9bs7kaqCfAp0XcD9A0tJPyJX5SeWAe4TtllMtQrZTMVUosapqo1Q6VYFUUjUbAjSDB31W2OALn2Z7o8pks79rp1arKFISk33S0gksI1CDAUj3JxjPfB2ay+Qzy0MsrLTNFXhmLXLVAbnlAGN/4b3i8Or5v7HSrh6keVh8DHmqvzaL2t0OMZ/KKX/pOn65ZP8dXAGkd2/d3kaVLJZ9Ff7QaFOoSXJGqpSGry/7Rxj3bb/rBV/1tP3pjd+7XtNk62TymWpV0asmVpa6YPmXQiK0j0P8AHGD95U0OO13cGFrpUjqIRhHywBvPfD/Y+c/ZX/1Exm/5NP57O/sU/wB74sner274dW4VWpUc0lSpWVQiIZPxKx1D7sAH4oxW/wAmn89nf2Kf73wBSO3zVBxzMGiSKozI8MgwQ8rpIPIzGNU7H9yoy1fL5qtmddWkwqNTCeXULgBiZMNB1ReNhjMu1/8A1gq/64v+JcfVWAPlrvS7Qvn+KvSer4dClV8FJkqgDaXqEDe8t1gAcsTPafgvZsZJ/smbP2lElGJqHxWH3WBUKNVxaIJHK2K32+4Z9i4zV8enrpGv4+nYVKTvr0i/TUk9QcaoKPZHwfG/5sFidOt9ft4erVPywBCdzfaXMnhvEcuhLPl6LVMvzILLU8o9AyggfrHGc9hDw582f6Uap4LKfMC35wkQXK+aI1bc4x9Ad3Od4KaVfMcPRaKr+f1SrKq6iGbUxhSNRB2seYIFS4n2X7OcTFSvls4mWqXLEMEWf0mpVNJj9nSDgCxdg+wHCqWZGfyVc1gAQg8RXWmWEEyBMxIhtpPpGkY+Xe5ytVpcapU6NQsjNURys6XRVcyR0kBhPpj6iwBC9r+zdLiGWbLVWdUZlJKEA+UyNwR+GKD/AMgnDv8AtGa/vU//AOeNYwwc0PEFOGkqWmLQCARPW4tgDOOH9xvC6banOYrD9F6gA/8AIqt+OL7wejRpKaFCkKVOnYKqhV57R7Te5kHnjrifE1pDYu8SEXeBzPQev0k2x5Sy71AGeqdJEhaR0iDt5h5z7ggemKrPiYc82RCduewOU4mENfWlRAQtSmQGg/dMggib3FrwRJmtcK7oOG5NhWqCpmSGAC1SugSQJ0qvmi5gyPTni8VOH0/HprDQadQmXYyQ1GDJM2k/XBR4fH5upUQ+rFx8w82/ZIxqyxkypyzj3Kx2M7tMpw3MPmMu9Yl0KaXZSoVmRrQoNtIFybYM7c9g8pxNU8fWr050VKZAYAxIMggiw3FrwRJmYo8S01PBqwHtBHwtMwL/AAsYPlPyJwZ4669E+aJj0/djLRuMlLQofY/ukyeQrrmVq16lRJ06mCgSINlAJtIgmPTHna7uiyOertmC1WjUe7+GRpY/pFWBg+0TvEmcaFivdt+11DhuX8etLEnTTpru7dB0A3J5e8Aw0VvI9zPDKeXqUStR2qAA1mYa0ggjR5dK3HQzcGRbFj7EdkKPDKDUKD1HVqhqE1CpMlVWPKoEQo/HGMJ3j9oOIVGORplUWfLRoq4HQM9QNePab2xK9lu8XjdLO0snnss1VqrAANTFJ4O7KQAhVRJNuW4wBtudylOqjU6qK6MIZWAII9QcZtxbuN4bVctSetQn7isGX5awW/HGoYWAM/7Ld0XDsnUFaHr1FMqaxBCkbEKABPqZg3EYvtakrKVYBlYEEESCDYgjpjvCwBlOb7iOHtULJWzFNCZ0BlMegLKTHvJxa852Byr8OHDQ1VaAIIIeXs2rdgRc8gI6Ri14WAKt2E7C5fha1VoVKriqVLeIVMaZiNKjrizVaaspVgCrAggiQQdwR0x3ihd0faDMZ6lm61ar4ijMslLyqNKAKQBpAmzC5nbAERn+4rhz1C6Va9JSZ8NWUgeillJA95wZxLuV4XVSki+LR8MEFqbLqqTeXLKZPSIiY2iLn2n7QUMjl3zNdoReQuWY7Ko5k/xJgAnGHZjvU41n6xTh1EooMhadIVWC/rs4Kj3AX+IG88N4YlHL08td6dOmtPzwdSqoXzWgyN7RjPOL9x3DqtQvTetQBMlEKlR+zqUke0x7Yp+T7xeP5KvTp53LtV8RgqpUpCmzE2im6AAmSNw2N+pMSoJGkkCQYt6WtbAFN7Hd2WQ4e/i01apWG1SqQxWd9IACr7xNzfBnbjsLlOJogr6ldJ0VEIDAHcXBBBgWI9oxLZPj2Uq1WoUsxSeqk6qaupZdJhpUGRBscSWAM87I90WSyOYXMrVr1KiTp1MFAkRsoBNpEExfbEp257u8nxMq9bWlVRAqUyASt/K0ggiTPUdd8WLivFsvllD5itToqTAaowUEwTAJ5wD9ME5eutRFdGDI6hlZTIYESCDzBF5wBnPB+5ThtEVNfi12dCoNQr5JBGpAFA1XsTMQIxNdhe73LcLaq1CpWc1QobxCpjSSRGlR1xcMLAGe8S7osnWzjZ1q2YFRqoq6QU0yCDEFJi3XGhYWFgCA7Xdj8pxGmEzNOSs6HU6XSd9Lf5GRYWtihr3B5Cb5nM6ek05+uj/LGt4WAK/wrsVkMvlXylOgvg1BFQEkmp+00yfS9uUYpOd7h+Hs5anWzFNT93UrAegJWY9ycathYAqvYru/yXDNRoKzVGENVqHUxEzpEABR7ATAmYGLVhYWAFgbP5kU0ZyJIFh1JIAUe5gYerVQqlmMACScRHHitQUVsyMS3UMApj8WB+WMVJqnBzeiTfoZlfRa/JDZ3PeCUZypaq4DsWC+5E8lE2tYdTeT4Zn1pf1bHyHzUoBM/pIAJJ6gDkT0xF5GvqBag4dAY0s0/RrkemqfkMTvAKAK+Mw8z7T91eQHvuetugx8P8YqktolNu/93N8scLeatg7VrKKilZ8OXj1/d8nT1ahqpUFF9Ko63KAnUaZBA1fqneNxj3NcYVRGlhVNlpsILH3EggbkgmBiUwPncqtRCrfIjdTyI9Rj9DKV1ZeR5tySu0ypLnKZqmgxDOwLO2oGT5dwDKm9p5LbbE9wZgxbXeqkDVJ8ymdJI2/SHuDiEFdhLMKaGdDOzRJUsIAjadUCeeDuFh1zClmB1IywFgfdYcyeR+uPzuwVKlPanCb/AKr3zfvLjjHgempuuEZQWFb0fUsmPm/8ojPO/EkpEnRSorpHKWLFj8/KP9kY+kMYP+UZ2cfxKOfQEoUFKpA+EgkoT6NqI6So64/QHM2DshwenlMnQoUgAFRZI+8xALMepJk4lyomYuNsZZ3ed7WSqZWnSzdYUa9NArFwdL6QAGDAQCREgxeYtiXo97fDHzlPK06jNrOkVgpCByYVZMG5tMRcX6AX3FB4v2ozWbzlTh/Cyimj/wDE5pxrWkbjQi7M8g72kEciRe67EKxAkgEgeuMx/J+qK3D61UtNR8y7VWJvOlDJ+pPzOAGMxV4jk+L5DKHiNXMLmNTVQ9OmBpWSQIBiYO20YK7bds8xleMUMvR11FbLkigoH9dVc1FpgsR5QCAS0gAA4ieEcTGf7TrWUE0qGXfwW5Oo1Iag6qWd4PMRiR4Ygr9qsy5UEZbLKFPRmFO4+TuPrgADtzX43w6inEH4gjnxFFTLrSApgN91SfMwtpkw15kRi59ve2JyWVptSTxMzmCqZekebtFzzIEiw3JAtMiu/lAlnyeWoL8VbNIo/uuP3kY47XEf/wCj4TTf80tJyk7a4qx89S0/wwARmeE8ay+WqZyrxRWqU6bVKlBqK+FCqSyBhBEcmA5YJ7h8to4RSb/5lSo3/mK/+3DvfN2hGX4fWop5q1emV0i+mmbVKjdFg6Qf0mUXxMd2eW8PhWSX/uFb+/5v88AZd+Urn315ShJ0BXqEcixIUfMAN/eONF7ouDU8twvLaANVVBVdubM4m/sCFHoMVP8AKI7OVK2Xo5umpbwCy1ABsjx5/ZSIP7c7A4D7o+9LKU8omTzlTwnpeWnUYEq6XIBIHlK7XtAF5tgDaWUGJG1xiq9pu8Ph+RreBmajLU0hoFNmsZi4HocRPEe+LhVKtTpLVaqGMPURTop+rExP+yDz9sWjiXZjI5pxVr5ajWeAA7oGMchJ5XwBgHYLtflMtxrN5ys7ChV8fQwRiTrqqy2AkWGNw4b2+yFfLVs3TqMaND842hgRsbAiTvyxjvdvwPK1uPZ2hVoU3op9o002UFV01lCwOUC2N0yvZnJU6VShTy1JaVT84gQBW9xzwBinfP29yHEMpSpZWozOtYOQUZfLocbkdSMXLsV3ocMXK5LKmq/jCjRolfDeNYVFiYj4ueK/39dmsnlclRfL5alSY1wpZECkjRUMW5SB9MXfsP2P4ecjkaxydA1Tl6Dl/DGrXoQ6p6zecAXLOIzIwUwxFjMfjGAFyNWSS0FhT1EO8AqRrCqZgETfe/zxK4WKnYWIp8rmJIDyojdiGYeTchfKbNcdeXInJ5Yo9Ukkh2DCXYx5QCINhccuuDMRdfK1TUcqdKt4dw1yFJ1ja0gxv12nFTvggBT4PmkL6a1mJKyzSpZqrTsZCllOnY7bAYdThmZ16vEAlgWhiSY2N1gDcaNr72wbwzK1EYmo2osqydRI1BVDQuwkgmR1wDnuH5lqjujL8JVSXYQC1I2AHlICteTNsRpJhElnqRL0TEqrkt6eRwG+RMf7U8sG4r68NzKrUhwalQUzqNR4BCorwB8NwSCOu2JLhwqgkVJMIg1SIZoOsgQIvF+fpGIUOwsLCwBxVphgVYSCCCOoO+IjjtNaaUmAhUaDAJgMCogC582nE1gTiNSlAp1DAqSo9bdeXvjM4KpFwejuvUkr2utSsK4SSlNKQYganhJJsPKLkkmIMG+J3s/X/q/CJGunY8pX7rAdIt7g4hM9w5XZadcSyMGRttQBBDKRccpA2PoRLepQ4aXEMKVMrJIN9Rm9pEHVbyY/PbNWex1ZRnG3P/DTbz7K3Q7TXaJSi7v7fp95l0wzm8ytNC7GAP5AHUnYDFboccrMQqOjDUVlqTA2BM/EAQYsQIwE3ERVJfxGc0WBIMABTqBIUemoifN5ehv9Sf5Gil3ct8LPor30ycnGecadPuhxnMuXXTXlVZixKxALEtpaQYgmzC3tznOHLqzA6IhJ92IC/gHxFZdGpmpqhhUeUUMzEkhQFGr0E9BJ5CcWLgmQFGnFtRMtBkA/oj0UQB7Y8H4+nKtW7eXC/Rt6+nHyOlTuJUk8Y6q2nqE5KkyrDNqMkz0BMx8se5yjTqIadVVZHBUqwBDCLgg72xxk8ponzu8/pEGPa38xhmpwsM5dqlQkhgLiE1ROkRYxafU4+7dmUlfUofE+5DhdV9SGvRB+7TcFflrViPria7Kd2vDuHuKtOmXqjapVbURy8ogKD6gTix5nKAHxTUqKEJYgMYMCIK9NzA5nA2WpK5ULVqMF83mB+8ogzAE3kTPtbC5d1WuS5OKHU7puHmvUrBq6JVM1KCVStN7kkEAaokny6oE2jFtpcMgoTVqME2DMCCbwWtJN/wABjhcgzVqjuzBYUKAxEgXJte9hFufWcLsbseYJkuyuVo5ts6gKuaK0dMgIlNdMBVjy2Uc4tj3hPZahQzeYziFzVzMa9RBAjbSABHLmdsE/0RMqatUrpIu8klhDTaIiIHWcSNJCBBYt6mJ/AAYIjSWjIHtV2by2bfLVK7ODl6oemFYAM8qQCCCT8OwvvgHtp2dyHEVpis7B6bTTqUT51k3ixtKztbTOLJxGtpXUOUn6Kx6HpG3PAuUzRaoEK1AInzooBP6pG8HGjBBr3cZL7LWy7Gs5rhRVrvU1VWCMrKNZFgCosBGLVkcqtKmlJfhpoqLPRQAPwGO69dUUsxCqNycA5ivTqCVMlWEbg3AJjr5ekmJ54hXpckGUEEEAg2IPPGc8c7nOE16kqHy7NfTRdQD1hWVgB+zAxecgHg+blvBiZMaQfTf5euEnDFDF9R1EzMKTJEWkWt+89cAiodnO6jheTdamlq1QGVauwaDyIUALI9QcX0HEbmsu8i5MsL+WWAmUMkCDc2nn0u5TqU6KsXbTABYs1tgAbnbly2wIGhALwJ9sdY4pVVYSpBExIM3G4x3gU8ZQdwD74azIbRCb2jlaRP4Thyo8AnphoUZu9/TkP4+5/DEuLEXxAVGV9TQrEAKrAmfLadNhZpmbHbDdLizrGoq/oqmY9LkfWx9MSGZ0VKbRIAIKsBYkdBuRy9ZtiLyfCyRIIVdIE6mJAAH3SogxzMx648G1/wDp349lp5e9+HTJunGCTcrlhpuCARcESMRlahWNR9JZVY0/NK7DVrjfkRuOuDcvVX4I0wPKOq8iPwkbj6Eh5/ijIaiqqlkUMNTGCLaiYUwBPO56RfH04XvZHJ6ZOuGUKqs5qMx1aTuNIOlQwA3HmBPS+As5TzxZgjKEBOkgAsQWUixIEgSBcet4wY/FCJJQaFZFLB5Ev4d9vhAeZ/VO2GjxljTZ0RZVVaGcgwwUkwFPlAPxdQcVxlLIukB8ROZQVCviEt4Y1qqtsDrKqCSBMb+uEuRzJQkPUAZleJVWs6NG1iy6pBMTAsMSnE869OkroqsSyAiSQQWGrSRudMx6xiMy3afUqnQLopnVpAnw7tYlVOsEG86WtjmaJnKuxeoCH0jTBaImLxAnpJkjpsRgrEFwvjVSsNIpgOKSsSWgaitMkafiAOowb/CZi0zi+u+APccQpg2MXB6eo+WFWpBhDCRIP0II/EDAlTh9NQCKcwRABI6DryAH0wA7m6NOoArwZut4NuakXtO464g63BCoUqUqLTJI1MUZTeSWFmO8yBznBy5RamhKmXICAwdVlncCDJ5fyMD0aOkVAuVZdYIY67sPPpAmb/QDVzjHOtRhVW7NXX3kRKz3lhgX9HVFZdGWKgMWOk0xMqRPx+o3w/8AYqmq6pTLiJaXJA/VW0DUb6ueLFRfUJgjex9CRjirlVZlYi67X2x5V+O2a6bjp4vrzLvTz3tenwDcN4WlECJZgI1Ncx0HQeg+c4IyuVWnq0zBM3JMe08ufuTgSq8a2iSrfHIAG1p5AbHlvPPHuRHiLNQuHtqQtGmeXkCgj1vzx7tNDMUlhBlStBgXPQEW23+o+uBKj1GqKUDaYhgYj4hveZA1XHpyx5RyieIzIoUbFlsWb36KPkSx5jDxHhmZOg2M30nr7Hn635nA0m0wSpnKwdaYRCxQsykm1zAmIjYbH+LlapmASoWneApv0liw5DkP9+JHSJmL9ce4lje8uQJl2q6m1qIJ8pDbDaCN7xPPc9MP5ippUtEwMOYZzglGuBbc4qMSd9COq512aFKLpLBjJImAIBKQSCRtNxGOczmX0lWN2YAFGOr7htFM2uJJ5E4JGRNgEpxvEm58sTblA+g6YbqZIhzWbTIk7mBYCTblBM+pxoxx4hlCihQeUQYN736nqfXHXgKJKqoaLWjHdFNKgdAB9Md4yasR/wBsOxCyASRe8fER0uDA5+mC6NEC+7Hdj/Nh6DAFTN0WPlYFpkiTcKYaRtMK2/TEpihJrUjszTDtaoV5SrRcagRHPf5QMGxpXyyYFpMz8zgKrlIay2JmBABsBDTy3Ox3PO+DMv8ACt5sL9cQJsArMKpQFnS0+UgXMAXvbeDaTEE4KzWUDKAQGI21Xnax94Hzg8sDU0RXILgXUQbFoAK7m4EjYDbEnihXB1zCBA2wJiI+8TEe82wPU4lEwJhtMA3jTMxG8ysc+uG6ykuxk2kCBN+Xm2WLSDvflGDUZjcQB1ImfYSIGI8EyyL+3sRDhlcEEhQDAsQDJjV+I6HcuuTVOoVB4QABVgSS0yQwkco/3jAWdoMpIMiWYhgCQQSSNudxb0wRw2hUWWAIDECDvA1GfN7gX/DHz6O0VnXlGUbJaYfrfT/vgdd1bizkk281gCF5na3QfxwPXzuh6gKyFpeIIgExqlSWIUbCCSBc9CcGUXBG5tYzv88NV8jTfXqWfEUK4JMFRNona5mN5vj3oyxjMoCoQtpYEaGifRT78j/A45Gd8MBDqqOPjIECTc7m29hJgRguqVmNOojlAt9bDEJxLJPqMA6dWqQpY9YtcGefTHm2mpVhT/jV30vb0yzUVFyW87Exls6jg7gggEHcTYfX0w61dQwUkBjcDriJ4ZkSdU+T4YAgEQdUkGY253+LEicmCQWZmjrAmDImAOeO1JylBOWv306GJa4HqVdWJCkHSYPp/P8AlhzA2VyKU/gGnqATcnckcz674Jx0Ir8RYWFhYFFgHjYXwX1CoRb838Q8wuPbf2BsdsFZhCRAMGQelgQT+E48pvYBmGqL/hOAIfIFPGWGzJMW1ltJs1jytuJ5kRtjniApKC1TxkWCCA0DaqZsZMyTcwJXbE6jggEEEHYi+FqG0/L+fngCO4bmFmB4gB+EPHM1WteTYH5acP8AEc0yKdA1Pa3IAkAsTyAEm+8YKVwdiDhl05hgA0cp9ovv9cCO/AcoUwqgDp7+5nnPXAFXKFKisH004IiB5SY2Y7Lb4Yj5xh3LeLTWKkOJMFRECfKNPO0bEmcOVM0ppsynUAp232mI3n0wDOeF0FRNKjyyYN7+t/p8rWwWygggiQdwcC5fNIKaEncCAdzbaNyfTfHX9Y//AHa/It/mB+PywCGMs1RQ4YhgptuCFgGJO5HU9R6nBdapCyBO0ctyBhjK5CmqgKPLc7kzJJve4kmJw5ngCmk8yABvN5j8D8pxSZI1M07MQHA0GCdUCRGoSVgzqAttEb46zua8y6hcEwodoYi8mE5RaYGHaXDtICqAFE21uSSSrSWN9x1w1W4bDayFkyq3JC6hpkCNzYT7YqJbqTGPGEgjHuFjJsiqOa0qEDAkHSJfzbgT8MSJBiOY64GrtoEtUYBAZPin7pv9y5Or8Bgmlw8a2KhA2oEvovMgxOroFn5Ydq8O1Rq0ECbFSbmLyWmfX1xcGLczmhnVqIwKsthKxHxbD3vgvLZgN1mPS/qIP8zjijSDKwJ3YzAiCCOs9Oe+FSyKr6fs+T3+GN7T7YGlc4zDhmCLW0sDdREmNLRG+0fJj6R7lafhDSWLLE6miZm8mAOc/Xpj1eHoDqXym97E33MsDjzMZdoHmZo/ZBHqLAT79TiFbGUp09XiETUJJWCSYGoC0xEE32vhZqu4ZQ1NyrFRFPlJiWaQYG5j8cO5ak4joTLTubAcrSTc8sPVWbUAAdJBuIsbQbn35HAifM8roAmkAAWEC1iQDjytX2VILNt0AtLH0Ej3kdcROeaqPDFQqdyy9RC3LD4YM7byPXHvD8ypqFyLuYBBIEgQARHpAJm55Tjg69ONTck84/168OZVdxvYknDIV83lFr3JsxJP0GFTY0yJ+Btueknl7E7dNtoh0JzYjoByHX3wLm6qBClTVtyJGoctiN+m2OqdtSvQKJEqwNmtbmIJH8+uHXaAT0GINOIFQo0qFWAq6r2EASdzHLEv4ytT1zCldU+m/wDIxyo7RTrX7N3LKLja6PFqKiyxHUnqYk/8OgwOKb6QZ0s7gtFzuPKOVhafQ9cRdXNgrDBdKkNDkz0BYgwLWiCPfEzkmV1VgNIEjTaxFjt+HocSltNKreMHdrX7x8iuLi7tHLK0lhBdeltS9N/eDyI6TJNGurfCZ2+U/wCfpjnM0iR5TDRY/wAeuIhs2KTGnSCoCx3BOpvvQJEAf5Y3VrQox3p6EUXJ2RO4WInJ8SaoIUAsCCSLBlvcTPoOe++Hzl6pL+fSGBiCWiwAIkWIN7W9OeNQmpxUo6GHdO1g/CwNkMuaa6SZg77T8th8sE42VA2fRSoDLqGpRHSSBP44bXKUUMwAYIux2gTuei/gcG4js49AMdXxxNgSdiZHyH7sAdVeE5c3NNbc9o26ew+mF/Q2XkN4SyIj0iIgbchgOomTJPlk2UwGi50R05/54LNaiXViDqIBUkG/SP7344A4q8PyzkFoJUaR5yIAkxY8r4focOoqhRVGkmSJm9hz2Ige2GX4fl1LsUI3ZjLXkENsbmN4xya+WY+GTqJY2hjeCJNreXmfTqMAOrwihOoIJmbE2IIIgbC4GHHyawulQWUAAncgcid45+8YCf7GpAOnpFyBIETyvIg/TngjJZugLIdwDEGwKyogiRKqT8jikCaFK5YgAnp/H+eWPc3U0rNtwL7XIH+eGv6RpTGqeVgT94ryHUEfLHnEnTTobd9lsdRBFoNukzywJwwRWVrrOqAqrsYLXATkKhggNEHHeZzoWoDKmrDAAA/ApaT8cESLxcTg9eHWUajCiAN945m5/wCOGq+VVASWgMSGaFEap/iB7R0xSW5Ie4g3wyYA80wTcRAABEzMRecA01DKV1agQInXcBQZMuCCSb8+uJTM0gRJMAAzYEEGJmfbAlBEZmC1QWuDAWRHkMW2ER7ziJhrJ1lc5qIAZTDaWAQrFm2JMbqR8sD618QsGXWDeQ0ASq76tNhBjlM2nEgmVgjzWBmIAkwRf64aOQ3ggSZJ0CTeQCeYxcBoCOaWih0FYhjGlpLAiRdp53nbnAwdRzLmnqIAaQI6E6bG/KevLDVfh0wfKSl1GkDzSCDPIyBfD1JQ1OQ8ydU2sRB2+W2BegLTzChiwdIadTENuNAFi1p1Dbe3XA40K2gEa1BZRD8tRE+eN9Vj09sEjwzH9agHJSoE6yIMHqVsed8EjKtBXXYzPl6/PDBm1wtDYY9xC/b8wtGfA88iJJICmbsFUtIiNIB3W9zBFbO1tSaKJZSAWJ8u5OreIKgAwd5Atchum7klhliWMAwBufXoPl+/EfSq1nrqHplKahyDM6jZRMHaCWgjpvBwzmM75WFNnkmz6QQLybSC3O/0xyqzhTtvySXizS8AjP0NTAJdlHmB6GI836XOPX2wPw3h5kbBUbaQTIMxawg4kMm6LTWG1TJkC7HnbeZ3nbnh3KUAq7AG8x6kmPxxwnstKdVVLZxx5aPkVSe7a5znaQIHmYEG2mDJII2II54jX4UEWTUayhQBBvMgRaTIHTblg/OVAhDM0LttJm1gAL7H2v8AITJV9dUlnFp0KVIMczOxPteB6mezlDe3ZPy5mHFADcLIbSdIJbUDqtNhMRJ5W/HE1SojT4QuoGliedr/AD9fXDiLLF4i0C1z8v554GfOBFafK3m0yCZMkzpAmLi/rjjSoU6N3HHn86HScnJZdyOq8JYsVOlrCSWItNpERy9cH5BCANDKyxJmRdjMxG0RHpj3hWY1KxcqCbsLyJ6yBaAALfd3ODMqPL8yR7Ekj8MWjs9KnLep8fG/p4EcnJZYHQyVUMrNU1aZGmTEGdzuSBET0+eB8/wrU5KkXkwWKxO5kTv6+uJrDBYBzJiQIPtNvx/fjpVpQqR3ZrBmF45iB8JyYpEr97SI6RJ2PO++264k8R3E8xpCVFKkgkXJuDuBpBJ5GB+jh7J51GhdUsBeVKk9SAf8tsWPZwtBPor5+Q227sLwsLCnHQCxVqnaVXz75KhR8Z1pzWcABaVm0rUYm5Y2CgTc+sG9t+NHJ5DMZkRqp0zom41mFSR01EYB7DdmEy+Qp06g1Vaq+JmGJkvUqCXJbcxOkHoMAS7tXAkUqYIMAauU9YtMAfS3IN5bNl9SoKTNSOlkDToMTpNrGNEW2aeWPOJ0crl6NSvVGmnTBqOZOyybXn2A3MY+euwfbKqeN+K06M7W8OpTm0VGin80JWDvE9TgD6PpGqzf1lNBFxeYOxM+xI2636wfAO0gzVStSFEUcxRYCrSqwGUSCHESGU+Yhgd49Jn8vw6khJVYJ5yT+/FG7zcquVbK8UpiGy9Radf9fL1DpZW6wxETsSTyGALtlyWIFRFmJmBuBTJ5k/ET9PaSTlkP3F+gwDmMslJC6LtBgTf4OisTZVEAfxx3/SDSg8M+YgdCJEncDa/0wI5JHObL64RC1lsHKASakm3sBhhA0bPAKw2tryyyPi2gx8jiUqZdSZIvtN/X+Jxx9ipxGm3zxq5lxB8k7Fl1KUJVpUuW2KQb+5GwwznHbU40swnfUQFhUO225m8ek7YkaeXVTIF/njx8qhJJG+9ze0demJctiPrlhEBydUBdbDV5WO5tyBtO3W2CcgsEiNPlUlZmCdUied8O/Y0tY228x/jhylRVZgb73J/fhcJDmFhYWIaAMxUbxAoV2BIBgwFHMn+eR5wCNRPlCiQISYP6REjTEDn9cSb0FJm8+jMP3HHH2NIA80CI87ctueNJmWhnIMSRIZZX4W5QYGDsNU6CgyJna7E/vOHcZZURXGKgDJIcrDEhGK7aLkgiwEn/AH4Dq+bV4aVPKzKxNV+XMEPa0nnsLXBxLZ7IrVjVNp2i4MSDIIIsMNPkdKECo4ABtKqP8NsbTM7uuB+kpakBN2QX9xviAqZVgwlWBAAgKWFuakCL/u6YnOH5pWAVQfKikzymRpP6w0mR7Y9zTFCahjQqGZJsN297AY8e07LGvbexa/Ljrrc6QnKGh5wugUSGEEkmOk8v4+pODMVU55FW9Rv6koWQI5EsBpAPuGkiwM9DNnpPqUHqAfrjvCKjFRWiwTvcURfHaLHSy7AEW5TF7e2/tiPyFB2qLBkDTJEwNJkmdpO0b4sGYV5XTFjJkkWg9AecfTArZOoxYFoVjJg6jEiAARAtYi4x5amxQnWVVvOPY12slFxRI4r/ABum4ctsDphiYEDdZg/yfTEqXNGkS0sEXlAJAHOTE9TIHtgGrxqk600BKvXXyKQZg2uVkDnB+eO20UVWg4MQck95IY4NSYvqmQNUsJiDEL9b22j6z4OIDI1vtYq6WZEYKLEGQQpBX9GVmxAMMJG0zmXp6VC2tYQIEcrSeWJs9FUYbiJKUnJtocxy6yCOuOsLHchB8byxEFRA0kTfymZJJF79f1b4G4dRZqgKnVBBmZCwCN+pmPniSzvGkpVfDdWH9W1TVaNK/FzmfSMc0OPUnqpSXVqddQtH6djefuNeI2vcT4p7HCVZVb+XS3wdVKe448GOrSrE0yTGkebzTJ8vKIOzDe0g47yGWempBIckyWJgkmOUfK2DcLHtOG6UbvpQvwjNIJnSj7ckqUy1/aT8sTBanWAddUFEIIdgDqKEEQ0RBxMcSyKV6VSjUEpURkYdQwIPtY74z3sVnKtB/wChsy4TMUVP2eoyyMxQB1IV8w8ygQV6LzgxuDszFSLa5lW78eJVS+X4Xl9R8ZtbLJJctUZKKSTsCCY66emI7t/w1OCU+EiiiVK9JqtVnYEq9T+puYIJAMQJ2UY1PjHY9qnEMln9Ss9AutQaYlWWpoYDVujtMTsT0gynEeArWWMylHMIt1RqIa4nbU5AJmJxHm+SptJJL9FN7reNVM/w5qmYZmq0mqIz6iNVkZTYgSA0fLDverRA4TmUE6qj00QFiZb7RYXPRfwxPdleyByeW8Gm1NC7O9QBCw1ORIB1CygKoMbLiuqx4tn6aUyGyWQqmo9WPLWzNyire6pJMzeT1U41vd21zKh/Je36JntuDSohkZ1YeGJV2G4qzsfQfTFK7PcYrVc0lN6lTSKiAjxHMgtEfMDl1jGlca7PVMwul6ygeXakZ8uqPv8A6x/DEDwfsTTFU1KVaGpupaaMeYeYA+eTuCf2seerFuXMkY1O0jJSsuV3nN3hYd0e9sJpZOrUps6uq0yGDtYl3B59APpjLOH9q847L/zmpBItrOxONq432eetQenUrLoKidNIzClmH+k9TOKjl+7XKKQwzJXzLvTi5GpRdumJtMHOd1k+r+P2inS2dwl3Xnh4Y0uV9+OZnUVWq8gT5qjCdtt5AkXxevtFJPCV3bUyBmms4gQPN8V5YgR6noccJ3aUwSRWAJ3IpAf+7Ew/ZmqyBGzClQABNHpEX1+gx8/a9kq1N3cxzzY8exdrSb7SpfTjJ/tFK4/xGrSzJpK9UKYiKjW8oJ3M/wDEY6pZ2t4ZbW7EEzNVxYCbASSfSMWPiPd+K9Q1KtZWbaTRHp+t6D6YayvY9H1IK4YIx+KiNwSpI83Ihh8jj1TpN7NGml3la76a51Pq0trpxl3pfv4GOzFQ1gGcvcJI8VzpJqIrCZFxJBt1xOvkl0sZeRTn84+8Vv1vQfTHGQ7K1KP5uuoFreDYQwYWD9QMFng+Ygj7SsEafzPLzfr/AKxx12eChTUZrOf2eHaakp1XKE8ea4dDkZBNZHniW/0j8jT/AFvU/XHiZBNDnzT5fvvzCT971OHv6KzEz9pSZJ/M9dP6/wCqMeDhWYgj7SkGP9D0gD7/AKDHfu8jh/J/f7v4GUya6wPPEj/SP+lWH6XoPphjg2WV67qxcgUKDAa33bxNR35wPpgwcIzEz9pSZB/M9Cx/T/WOFkeDVqTs4roSyIl6J2TVp2qC9zi4vjBO8ovelfwzzXPB1nXoUGXyuXILKNZvpj9JgNyMHZHOpWVrEQdLqwBgxcSJU/InDVTKVms70WHMGiduY/OYOo0lUBVAVRYACAPYY1Jq3NnnhGe9fRcsf4++BF5Sl4XieEKdNA5J1at4Ekmbe2O809Rkv4To5C84IYgdbi+OHrpFVS9IN4kgVCIHwEEiZtvgc1kWloatSP8AWLdWgmWBYm9iSWNtsMt6Eclz9wqvRKhyy0IPmfyEzEXI5xbBHD80zlgdNgCCsjfVYg3BBGIzL06TBPFq0wVWIFUNIPViAR0sffBeTVWeotKpA0oNSEMR8ZN2DAk85k3xLYOjaurP7YlcD52qyqNMSWUCRIuQNgRhs5Juder/APbv9EwAuUGXoqGfyiqpuYVBI8onZR/naBAESRqTsgjMq7f1dR6B1/camTqi5sXvjzKU6o1KvgqEaLUyNwrTZ7b4GqrljU1/aRuSR4wHKAAQQQBJt64GzFemxYJWUeeJ8URp0IDPnufWG2xVfl7HNSV7N+5I1q9SmGh6MqNRQIQY5/f/ABjErit1EoLTeMwrsZhQyxJgeUSW2gASRicr5RXMkv8AKo6j6KwBxGuZtNXdncdqVAsSQJMCTEnpgbMVKniBEKjyySyluccmGGc3wWnUGkzp+8JJkdLkx779I3x7VrU6dUBmVB4cDUwGx9cF4CbxkY+wkM7D7OXIOr+qJMG5B8+x/HHdJ6opq+qio0iB4bWmIAh/lAwLw/NKisKmYoMINw4lm5k+/S/vhimKLaGFemkogYiouqQLQPukdZjcEGcas7aexiMot5fuSuXzT61Bem4JYeRSIKiYMsfpiRxE03o+LTFJkJJdm0sCZIuTBxLYzI3BrNhYj87wpajioTDKCEIAlZBBIaJEgwcLCxk01cNooQoBJJAAk8/XHeFhYFFhrL5dKa6UVUUTAUAC9zYet8LCwA7hhcnTBkIoMzOkb9ff1wsLADzqCIIkHcHDK5OmJhEE7wovG0/hhYWAsP4WFhYAWBsvkaaGUUKYIJHOTJJ6meZ6nCwsCWCcLCwsCiwsLCwAsLCwsALCwsLAHJQdB9MeeGvQfTCwsALw16D6Y6VQNhhYWAPcLCwsALCwsLACwsLCwAsLCwsALCwsLACwsLCwB//Z;" vertex="1" parent="1">
          <mxGeometry x="690" y="948.5" width="300" height="168" as="geometry" />
        </mxCell>
        <mxCell id="0kGeUMnXcMIaWcKACGD8-28" style="edgeStyle=orthogonalEdgeStyle;rounded=0;orthogonalLoop=1;jettySize=auto;html=1;" edge="1" parent="1" source="0kGeUMnXcMIaWcKACGD8-26">
          <mxGeometry relative="1" as="geometry">
            <mxPoint x="990" y="1044" as="targetPoint" />
          </mxGeometry>
        </mxCell>
        <mxCell id="0kGeUMnXcMIaWcKACGD8-26" value="" style="shape=image;verticalLabelPosition=bottom;labelBackgroundColor=default;verticalAlign=top;aspect=fixed;imageAspect=0;image=data:image/png,iVBORw0KGgoAAAANSUhEUgAAAPYAAADNCAMAAAC8cX2UAAACGVBMVEX////sIyn67h4AAAASr+YYlNL37x7sJCbE4ef///7BwcHHx8fDw8PFxcXMzMzF5OlkhY7I5u4IAAD///i7u7vQ0NDk5OT7//9fgIf39/cSrujZ2dkAAAjw8PDxISgAAwD///S52N0AAA8qKiock80VldaXl5ff39/p6en28ADuJCKy0dZbeoJsjZQAp94Tr+KEpKsUAADnJiuWs7t7mKCgwccSre0Ul82kpKReXl5xcXGioqJHR0eJiYk2NjYREREfICP999/08mR7e3t6GyL96yHy9Bc/Q0TOyCkVRWSMmp87EBIbibz5IiSbu8IAMEcAjtUVNkFVVVsWFiY9NgBtbgqJihqdnh2zqifIvC7k3StMTSH//8syLRj584zf2imGfihcVxv99qwjIRb58XgAABvy8DUxLDlzbyNQDQ2GJxwnDA5PExqgJiDRICrxoDDmZCztvSD28E+1ICrgTR5rFxr6/MTkOiEVTGANYIDDKy0hWXnz2CaLHRqEGybshikmd5lDEQzxADPpqBo1ERhsHhMgb54VNlHofSWVmopIV1l4enItKw9CQErmaCDzySYTKzMffLf69J0TJD8AMFKvITJBPykZHQXNGzFJVGESLC8YpMkdj7sAW4gaZHwXhqEIREx6IC6a2elSeZQgAAlUv9tiWw0AaXnRYCUAEzQpudhrvOvV9O9knLidx96b3OC65/ySwekvIh2WyIWiAAAgAElEQVR4nO19i0MTZ7p+ks/JBZVkMsBACEnAGTRBEhggI1RFRbCUBFI5p1fX7lr1lCLZXSlbgcLS1sU93Ut1ree4C7p7csrv/FZTyu5feJ73y4VMgrttErTtydtGuQnzzPNenvf9vm8wmWpWs5rVrGY1q1nNalazmtWsZjWrWc1qVrOa1axmNatZzWpWsxdnUmvdiU7Hi76K52ctba0nOgeHGdngi76Y52JN9SdGLk5zwMzbgf/Y0Iu+pP21Y3UvDZ0mtP/yr6+9/sabL7/11nXr6Ftvd7DOF31l+2NtTXWdQ0eA9/SphsZj8qUxq8USxMtqtVqC13/EWMOLvsJq29G6zkEwfHKks6G16Rj/UMB0eWwsaOGogd3yTgdjR1/wZVbNWpoaKGcNnwTBLYbPOByBm6MWjhh/4P+XO9iRlu99Pm9rPdRJMXxy6ETjsb2/5FJwlFBnLfg6+36ntaNgmGIYFDe1/IOvky8Hd1FbR60/7mAnnttFVtF40joDwEcGOw89g+ICkwM3C2DD03/CWONzuMzqWUvr4c7Bk1SWTo+89CynLjbJdCUT3BnYVsv1dxHe+3uh1TIkrZd4WeJ5q/Vb/VtZugq8edhWyzvXvvtqre3owc6hCxzwxaET9U3f+hs4HI6z13ednHC/wdhL+3CpVbImKK0LZ7iUPnWi/ljZjukwXSnIapTOf8zYt/OY52Jtxw6/NPJvGSn9n2+/9/rLlyr7fg7TOQNsSmtn2qpzrdWxowdfGrqY6ZY6fvTea2++TOkoeC5QkcJwBHbdPGNvDX9HqrfcdvjEyIUMYNY78/4b71y37mahS3KF3/5K0FrIdvBN9qKrd0tT44mRkyxrszfOzyU1s++nEFf5uhM8V+kPkQxuDgd67QWG9zHqh4/kELOJVSC2+eI2m9ln+8i6C9tiPVvhT5LOFtINsTb2HjtdFQzfxlraGk+cyjMMjmdWHyS1uM8XCvnMmtls1uI/G8vDtlpHK6QbVeyKMalZ0IQ+z/A+1thwavBIMWKz2QewNpiZG/7+OdDuaspLuPRKfmwgcNMQ3pYgmrHn03u3NpwqcGnm751ZmU9qRLGtGLbZZv5gdGwXNkW3VMGPDphkuPlu1MDPg28w/7dXP9/KGgZPFuCF4ppYmFsCYJ8tFNI4t1mO82+ZzZ98OlYgpYO/qAS1ySE5TJfzGjXzPRHeJ6sFcE+TMuzyP2/fOA+KNZ/NFrLlEOYoLjSb+cPCRnn0nKMy3A5H4LrFUMVGrT9inaZ9nDmMML/f37FwHlGcNIPinO2BthD3p2OFsXip0gtENi9Ka291sIP7h7uVMXevm8354pxgW8ab/znsD0YLuTlXEdswyXHZCNuK8N5HkdrA3Ldii97eJZ85ixavUNa3Ed30EcR5CW7fzws65dHgL3DhlVyGQw7ctBrc3Gp9bx970DY/W0sIi2xCK+Q3btNwC1CnOWQN7xQBt5l/NmbZrd3Wm1KFsE3SL4JWQ1azXn97H0XqIFsWVPUOez+u5UH5tAUvpOjC+3NLKNuhUDweL/HzTz6yju7CDl6pLA7xj+WrxmRupeq9bxPkBjalbiZijC0VEKppyeTS3MrCx71eP2mW+aQx1m3w/1+OFcxFRq9XxjaqmBQYGzXApvC+sG9JjcHLFWGZ3daMjuwj/15gD+aBns2HSuj+cLTgMq3BP5hMlREu0cShJLxPVQlliQ2x+7oqCPfZeV8RNlt8la3EffB5zaeVwKakVlBwrktShfUmYDpnKZQD6MWsv0UV2x87xNiyIgjrjM0X5a34HJvxaSFbXFtJlrKtfWC4RMvlCotYZrBmDG/LO2x4f6qYo+UM64gpuj6ObO4z0JrsndXMmi1uW2ILJSUMNezzMcvY7iVaA4HKLiTj5gYvp5WS/apiI4zd0XU1Ngw31wp1yoo/6SPhZjbf9u/h5OYPCvswq/VqhbU7Oz82AB8NvsdO7E9aO8FOszVBUeHmS2ZjXkvO9M4uLMVDc5Bxe9D9S/QMuw4ZDFR8KdJZaxFu61s/2p8q1jJ8up3dB2z1PvvYXIjOpvm9cysTbCZp88+YQ7aSIvbJp6O712e1XJWlyhpvPj8etRpxv7w/vdgQe0V8hS2rqoLiveIrwBbS2O242Tc/61+9wZLmT3zFUl2zXbcYx0sVwg6YAucMLSh919f3o4odZMzuFE+zWEJJLDN3soBunzbDktCo5hXWy87P/0orhm375KcF8wFr8KqjQtwogmfHjLDxzk9YfbXQ5qzlCBtyOsVJZDVFV6fZjAHWPFugoWF8hfm9syslbCMMCmaoVsvo2cpqN2qYQ/6DMbrhTteHq96LnWJsQLTbxSG2Dmm+5mbzu5MFLa5NdCS1pdVZdmMuadaSms8IO6TFSaLuIr8pV9wiZxZ/Rw3I36z2RLGRsQtAbXe2s2lFUIQ7bDZpy9Vu9F3z/onbbGIVgONLvf6leHEjFv/wo7EC2NZLlTbemYmD1RjewR9XeaJ4hLE+0QncyGq3EijeHVAmeUpDNt8C+1USvhyyzTH05Lai8o0b8+tC2MFzgUqvSDIFLo9Zigw9aDUnip2MnSbQhPsIu6cn9GXGdoUoapS2REOHOHqSBS2kmUvnDaHRQraDl+QKpTnEGty8qHxDpF6saDprsFYGsnOw+9gdVUkIZ9iEcWyo+ULxpdvM+3DvOVOG7nxWuwm+Kl0Uky8VixYLetB/rwpksguMXRQ56HanXfyMreuU1fxGRYZ35vwzq2y4VJ9mAuGjQtjBK6bKlkBN1HtfLR4oWtCDVmtd7CWQ3ZWBbW+3i11sWtAV9ZZ7GFktT60vpJGDmxe8C/Sx4rEaPvbrsd2NGEjmAbli2HLx4i/f1vJvLZWqIW5NQP1KFjXodqKILauCGvOymbiWXxQwP5zw30AjlvQj6EMhs1YyVLV9VKgwglcqhg2xdsVaHN7Bl9lvKscMu8jYoJiNbI67fZhtIps/crOlUJZUFLP3P551M79/wuudXVhdnY8Xo/ZRdBfU2estFece3LdzxbCtY6+xuiqQfQIl2+7Merjd2QW6X4FWUxXhPps15wIZ0hRlK/lwaX5+ZXV14caqr3iICg/4vPASg3+oNKVJ5OajRajRhL7dUblYa8uidsKIajtF+RH3uiJQB7oaNxc6M82OQ3Ff3JZ8f26PhP77Qtij1oBUcedtkq4YVgN5i/dWBSOH3KaiQXbSntFnQA6qnV14p49dU1RdGUdLEi9kVQuFfL7k/EIv603uMVYzf2SkuwqLOJLpXLAINW3vKHtwPpj5lw3gmgc2x2yn1wDevsDGBVVQkNW0wulZ3PZw7gbzn7/B3rf5Suj22Qx0W6+frTyZm5DNg0WwqYqVK9YG2el6WgzxE9fcydvh4l14DeA1yVhM1dVF1jGfg4dgXlqdYBMraEbc/tIhC181+8gwHLgsByqGnZkfGxwdVey3vytz6/UgWx4fkoYypQuY4d4DRDX+hmBzDkKrJRThLrudXx2yxZM3HmhUsRe8K3vCRnQbumTr2Ypjm0TLuWLYNGopU6ydYmv6Iir2SBY2vboydHchvNsZW1RpruZdyaPy8f9Bun92D9CZRvVzQ/65WoXodsiXrgeLYAeDr5U5cmhjUyrH3U4ezguXk6J6MkO3OMKu6XDzcebNtSQ24t0GtTbD5qgp07Riym18JbAgmY/RdpYKkTsk0+WiZRLi+yfT5e307ESnpY67IVV4zSaa2weIasDvwq0Yzmu1UCE8LT7HPjbHkc79CyW4QfjnYwWXF7wqVTpNNPGJg1Gb0wT5HTZSVi/W8vdxVdCnM1MVEE5RPWknqp3OHic13u61hKA+olWSgiIW0ma9q0jnsyvJUtRoTn9mnID9onI3d0jypbHieaLF8kaZI4cGJiiJ9RzdnGY7MHcR5ZNOaryn0IEqd/kqSR6YbxWBMTO3hNy2116H0CcFUg0Bec4kV6pRHdDmfyiim2L9J6wsseY4DboVuPlAJqsRzQNdotgj2sUefKCPudGBCvfcbIW0WhZicnZhaWm1F9hvzCV9oaKBA6r5B9bRgqWhYBXGS+hJHDct1qIJk+X68MWyvtlBJghKrCM7ReM024G5vU8Uu/pEp3iSTSO69XHmT4bysEPJuHbb/yCZXFr50r+QLFnnt9l+bljwPheoVJqTyZdKYFst5Yk1WTo5nln76QNW4O6hRD4AutF099ud4gBjy2i8FTdb2GXbrMHNl+K0Q888559IFvfdNvMH+aTGl4Yq26yWMYfkuFo8T+TrYuWsDzlaEd2qMkX6tIvoBnxnv1NsB+VdPVyzQKsp6ED9S7acatHivhl/EoEdQkc2z26U7mby/dygqG4GqiLNacdaEW6r5be/K+tbDy2jNN8jukmqEM3OAbh4D0U4aRfGpuDl+hS74ctnNZtvhT3MOj3enCtZE/vkg7FCTixXqjIMMV0qKWIk1so6BtvEAFu9xY6I1IDYQbPT2Y+uux9e34/7MIIipurCPeZ/kOtIUMw0/0zW6W0am/CV5HPfp4ZKc7PyjsS016kKK99yXtZ5sRFEty642SukyO0ZintEsW+S0y22D7P7m3DzcfZlfuAA937AzmuZXXtJ/4KvuBWzaR9wlnNXV+nupSxsKXDdOGHivdhvp8vpSdpYTNATy+yInRovu70bRay/S7R328X2bpE0C1sWhATS/WqhVlthE/OaL25Ofuyft5Xs0rP5DDtwrTcrnqGSSfKVkhpGk7WyxFrnOFDpd0G3fRIw+yDJu7pFcZIiHJrFfiTTgT5ye5d8udbbZ4s/XPCyiYlZ1oucniwpYeYP87Wbu2LF4yUyhyyfC5Zkc8vrrK6M79Xy9xhvtIhumqt0o3D1Q790t4t2lx3YGbtD6f4+WyhY8APBtF8NWu3h6uyXxiLGdyV/WqBYrMHRQBVQmyTH2ZI5qtU69ra3HLHWMJ7QE+p99N1O1C1nH7JaF/AO9CPCUdDEC4whqyXWUMR2F4dAqC1u1uZ/5XYvQKtld9jvWujDwr1qoDsgVyOby8bDQ7lNTGVN1o7EErq6xvxQ5ZOi0+5CEeuBi3cjwl3tTrGP0X41XaANTKFd2Nr8+xPs45V5LRRHB17Sk/g+NUyCrgeqUsMc8rnRYthjwdfL6kkOf6FCo94B3VDiTnEShau9uV0cQIT39aCIfUYDB5060JV4HrbvvJd22tviIdraUNp/2kLGscDlatQwZLVLJWzzrbjf8ORwockXEd3Cmnu4HTINScwFad4DF6cIb4ZugWZhCG51mfHdWZn49q1M0ORc0+ioUHJlqUia4z781LC9oeLTUhlzoBUrTuY0QC5nM0/jFypsnGp3D00QXaD7eJfY5RKdfdAt4hBzj4NutOYLvlBWo/rmvaTTQ3Ft6fwsuz1XvF0TydygJYPVGC+RSTdHi3FbkM3LOf07FKMxCm3ZIWnm7J5ERMPF+5HRXF20wcHtjimZ/Wr5XdehBTYXN88v+NnEA03zFQ3N4fif/HS0UKNaz1YHtny2hG5897e/fU8im5q+UIHqFgO9PfDwgWbI0+ZJset4uzjpgnY7xdxT8HL9DruRh61pt93/5Wcz88l46TZUnuo/NEQ3TROrA/wPxTu3LNbgO95ydl6PrANVjHnbM9KsG0WsrxnNJyqaCyLGPswYvkK5597dWO2Lz/tZZnzs4zmuFPtPC9kOWi5VPGbhBo0azD6txJqdI6NCvlfO+aG2V1WBhPcI4NKM4TikeTO6MkT4pIvvZ3FPo3Yjq/XmdzigEaMZouaDPinZusTDQDPkneDN6uy+kEy/sGT4zsO2jFquD5dzGrRznUqUm4bHBLMfIT4JF6eE7iLNcgbSPKELyjDLrQtAr5hn2Aol83iS9a6UoOYnfgsrTeUnnbOwTZeDo5ZC2EHLO2/+x+/K+V53FFUVHrERp5NqdddxFC9XP+geEAeOt/OxmlchVeP2F2zkSX485zNTh5JcYBPFO81p/DBqKfBzy7mKN7NkLXA960AE+603X3v7P72MXSjjG8kN64oqbHZwuuHh/ZCnk8DcB+4p0u0XUMQEQdWn2MLuWMEWt83fmKH9HQh0f9FWHlIxvyxc5h8NXqkW7Eu0Kha0vPXy6++9ywCZ3b9bDmzI/D8qgiosE92T3UQ3XLsb6Q0RPkCRPsmoExOUNerEchs7Qit+/3nqvxDaSe9sSQ0D3YUHVS2Vb1bLmOS4OvbyG++9TYCZ+0+L9zYia+XsT0QOPIRUnQDdXU6RyzRE9sDxSbEPf3eTZvmMipggQJrP+LLjMy0+z2ZJp9tCmmY+z9CBF+XzT35pPE9xhfbQVmA8V8vHGk79LnP69u74WuxA9EAkGo2xU+XpoT8KXIAOieKAC13J8R50I82Qqj0iRTokqhtFTFCQ9+ZzU0Obb56550NxpHNaGCs+YkKMG9b5LTelCotYU33nIH/ciXv61mJMjxw4EPUcOIC/FOi0smA3PkLKEhinu4/o7gLdPYjwLrHfxSUqu6uA7kV2OztIowO/ydv+mQdJLflghq0Wb0TNnCsohI0GtHzIjScyz/Bh3lcfx8KRyAEPDH8BtscjoAsrTw0dp37jERtyUvKGKu9GIUMrgoTeBW/nHckiYKt3+SIJoaIzkNr8wqy3wzuxkPTNLywZy7ftkxBt6yhAfr0sJ287emLkdMarbz1e0z2eAxwzAPM/8FdYYK3lwZaOLqoJqsxdlLyJ7gHg7cc9GKDEbhebGRsWBF1YRye2u9SPPgxtmJZcWnD7Z0qLmO/XY4ZHoV2Rv+VC/9GGUxe5W1+7s/jnzYgneqDUPAfC98pbD4M5TukqHW4dEu0k09qbUcT6gb3blUnsdqJbVRX9C7aQ6zMh0cxx89LKx/6J8w8R4cUzVNrWYTi6OBb45rDbDnUOugnx9J3Hfw7DlRHHnj1QH/BE1HV3mc81cpjaHukQ3pTMnf0oYn3NyGbNLtDdB29HRwqJ2hFD/Mfc3ofZMPbZ4ks3WO8CwptjLoXt+7WxY7r8jXzxWGP2oZhnbi3+eSMS8Xiy7sxjuRR2YrncJ5Xgajo3EbrLbFDk0Wx3NXfB1fuQ0NuR2J1O+xHmXoY011HEdiEmV5bMc7f93t6FeTN/bIWxfCO6Rw0t09l/NlVrbRg5zUn+Czj2RHIBTG/sSTVeYfVuBYfjJNq+wOkWe9CA9TUjmzVzzGIPaZZXUDhigqrGetnu/iX0YA/YgpacX2C357R4qZ//fswwcLjseKabtzQ1ZB708qe/PN4MozjtFch7mbpZ0WmKhhhSNeh2Ai41nYjsHrzRf7yrvZnWhk5n5ixIALNarvMG/olZ6sR8UOY3HpZsRbWZPzfAtp7dM5k3Hc48NvHarcebOi/GEfy/l0sfKKE9DBet4KyU7PjvhKrHphnJNNSuyePdyGzHu7pAOxI7n6KCboW2fszFd7dwzN7waXQIjk6KzfmKpbnv9/klEo7/Kj/4YzLlxw4t9S/xxxdfG3+MOAZkgpspT6Vu7aFQfmL8mKJMV3KGxGE6eE8luj8TAReStBuSvKe5mzAjsUOzXGRsStFpN2pvfi3E5lvwJm0hXzwU0v6r5DgwKZvP81mNt4pncyqTHgaaqcjTf1ncJAXyDbwa9yIlho1kr7FKToiBhP/Wwbeb1dl53Z5sdrW3NzcPtB93ATqy3ADofgxVI0yx1dxAJWRegkKLh5ZWJtjt1WIvJ9i/NzzeMfeoraMNIydpL8iri5vgmNenZzl1gcEbIumvjWSr05U9akuWWteRzB+DbjvRiyTeg8zWTQnd7iLNMsIyK/3rzJunWzNDj5//krZl+nyhkjNDcPPPC7i2jlovHWvopNR1beoxcRwhKMU+Hcn+kZVhnqx7A/aTlBzx7N4fTxhFm5WtVrLWD0ybw7SLp+94n3PgeHOXvbm5Dy96H433GeZ+FYGg32ELttzKtm/Jz2YI895PaaE9enwMYg2OWT9687Wf/JaxDiiQzcjeJYngRgHUE41EIyS4w7g34Uh0K4V/EImGpVQ0e5e4ewgxJIaRylA7jsZ4I0Z0u1ztzm6EeB9hbu5xNjfzPbhutkYDR3fB9Dg+974WspUc/czjpk1bVpoK/L93gXjqf7gCiUb3yFi5+I1wSB6CvZUS01JATEW+DuxsRA9EU1JkNwWEBVqmqvwwoPSKqtCYBcz2oV4PILKdLlcPaZe+4/38IIl7WFBpvjyh5cJbo03nvj33qZEz+Gz//53X//VfCDE0F/DSZUeeWZ44HGIWOT2VdgQCsiiKDjkSTkvik2hESmVuVzisC2Rr1XiAvdx2T1FB9wWn0wmoUOQuZDZgRoTT+3a4OXukqspmL60PZAcORpjZfpweVBPyaQ/nzs98ydhfb61BgngKAngvsqMb/JZEtxwpSuuRlOTc2kIoR50tG8hlgZ2IUw5TQOs6dcH0mi5rjFZifYKiEN1waNSuruPovrtdhHlgkooairfXTXXuERtO7vnQJRsFPR2v0B4+OP8xiS4gJqd+Nrn5O5FKcfCRtEOmqI5utOyEKcafBJwIdI8oiYGnYWRdIWMKPSDndOWP/XWYHG20e2GZ/c5uR2RPiv0Icbj6JO5BO6A77eIgaTVB1a+x1b33X9KjSpLzKzMoT96//E9Mz7TH1FA8E272Mx6nyGFvOZwS8AJpixiO0G0wPUH+82zsSGIiIRTYMjtSxnJnKWzZ0ZDgU7VXRES2yw5V3oNC5mqHdgF0Ox2PY+57kGq7dGed2qwRYh8h/pLPBNY2oatzmitrvH/MYIx4iFF6PaWSRBVKFPH1no20GBYlyuPhdBot51aLvBWN6oqS+FsgrJDRvEPRdSqkVTvrupagZH7anqnb/Yhs0N2HF0EXefEeB9vCXfYrSFF+Do6iGHoNiG/Qk+buTkF17TkSOOA5EMnfAMQoFW1PRP46U7sBG+9Ft6Qtz1ZgB5+Jiukwcnd6Q1AQzKoud+Hasg4uJOjgcfUeCVqf0OnhSq9AlTUfb0fP3e3s55h7QH+7nQ8clARNoGg47ov7Qj549YPVG7f5UIAimafhvTO1Z7dwbaA4iamtSKRNErfoLnl20hQO4NwTbXdsIajFto20tKMkUF/w/3ZAEXKwSU/er+JjzB3yVwlaERtG2u6nLsTVPAlX78erC9AR86D7kS7o6rD3Yx/q9dL86kTmaYJ30UwQYj7OLMjZGXYzIb6xFeGUeyIpWWpLy4FAKtIWkOQUBe9O+kAkvOXYiqScsuREc78dkFu29afb29vOmLrheIor07OwCXWdqUpLDrTxzZlQaD/1K9SANlMX4gL+5gHcA/J0WvFmU5ROH7nZ+YWJ7BMUpx6vbUT2SlqEkOIYcgvaAzk6lSbYW2kpFQlHw0/TcqTN6ZQkEY5OwtOzE2hzSFLbscBTJbEtSfwAgkOSY3pbOp/D8eM371T17L7scHylqvoym6adxtSANbt6yNVJu5Bsszs/Y94YzVkgC71+t9vdcQvCy/MM2UVJK1OEdyQT5NZWSiKpSSWJ9Fg0FdhK74RTUqBtSwXs6BMZAmX7K33DlBbAtpja/tvTMD0oQ29/mq9cigJ9nNvD0NJ27GhrY+PBw4fqDteXndgd8rF7XH6O0LJQcx9k6vH2HhSx/mYXqXSns492bUGqLYLo3lcXN0hER56huzzhJynnVnQL7izBn/GlwBZ5IjlzHciWKdK2E45uiPh0qiWs7rSEY0JCUBOitJ3YlhHDqkrrbyptHMzBTmy+yk7JbU2tjQcbjFb+s3hk6W9IHON0agjJzGUH3Yhsl4sSej/NWdqHGZ08wK3pvUXJOMqbJQ8fitBb9AFepj3UMUmOwFbUCb0FvHQjtuVoREwfyLRRkejXLeF0imr0dosky0o4sM1xKsJGIJ14mt7kHq3ynKbgsvDCp5U7bLAYMFl9Ja2Y3MYx8eEx6ra9GUIFdPcA/yTeFJ0X2B1+NVPDRoJ5tuK0Rz1blLtQjALilunr6BMUYeQquhUpCY6cysxPotEn6KjSdnyzRGID0lvZloWsIFG2N1VB343mbEwnIEzX7rOTh0pBN1Ym2OTANu72OJ0aQmSTInd1g+5mYO7pd3WLyOXTJBmEP70aNWpr5C1kLvQJkQPOtjBaCoe4FQ3LKaIf4muLqlRKDlPqoq/GDUJlVtNigrhMCF3yhpjKAUxQleS6O+fahFrfXL/TwdjJumLMBysXLo4A1AHo/swptjdDm7kAGfj7QTf60D7aecyvwb1onA5QrhZlWU6nwlEnqi94RnMR2dniemzL8ZSz7YjuyBu8o47qeEtN2MWEQk6sqluoTzl+Ec4Kd+5McKsqKvX68n0qGydHGoywDx+twi/kcMiBFH7GLTfr43SjC0H7Bex9Llc/RfskY3T377k3Dcnbkwo4WtLO1A56RIiOyAHSloAd5l/leep4GuFfFE2Bd/TKm5CdX4HE7e08VKHUoEIBX4/dW5xi9BtaTp04fLiuEPXBamA20S5Hh7SJH+Rmp2ma6EIXAvcmV+9B8403octJNS27w0bYWy1fRyCio5GdwNaOGCaVySt2NvJNT+m9VCCyIQW2v3q6nZbST8m7OZ3PMk52bPHONfq9Q50Nh4yQGxr/4e/l+VYmA3c7QusvXLOQWxPdA4Td5epGUzZAGzJ1deputKhmHXNGqXGMADAkphOKOrz7FRHHNsJe3ZagvloCkCTpbYU7sVIYwdkgzkLGK7Y45WW9J0+dqDt0qM6Aua616k9IlCKKsOlmZyDKALe9G+4NFwfXLsB2sQ5cWsz9uHhSnxajGW+Xo84dvBfmw6HIzg4fApq2KUkDNhx3e/spSvIzCc78ocSW4dinBztPkBbZNYJcf3QfngrpcDhpdORmp2gVkHchSOTADPzdruPsrkLz001PpBg23YhoJJBCSgu37HioxXoiBlLhMCh1dBHOp+16xnMVZW/UxLau6+uPpih5vQS/PnTIAJlo3qffKSTJkKgxehKNXQEvWN4AAAVdSURBVATdA4CLLM657nZ9BrmiJO78tXh04HHS6N7zRBY36M30MUjWyLaM5kalVJ3+Wz5zKbrwLK7x2di98b+yvyN5HaTsZaT5UBWjudRkk6jQSUdaAZ3kihweTlTT64+0PS/Blg8UmzONyrQlp59Ew862yLYjvSPKkp0eZ0Lc5mI4MybYJZe4z0xNKHutj0/z5HX44KE6o+2TZxtMkrdURDcdfXV2w8O7M5HtItin6fnWa2yzuPfwOFsS0Nxpymo7bareheQoPn0mrbvA0VpQwb736M614cHfnKgrgQzHPrjvkMlkR1qhHVnsouikyCa6KbLJhqdjqnpruKTRjKbSW2nH19GIHtbtaT2h6Bt6AnH6j0GrCu0WWF+e6uXJy5i9spBbqzAy+4a4padqIkO32M1laYZuNGT0GB69Y7mk40IXaWrZ4sQRWIpnQd9Lg1BvodCXkH/rGb8eOUF+fagEMyA/39+JBrrpgPcF6kiQ0FyZyHa5LrB1JbHm3jRijtBYX04pz0zQhagVBTcE8Qy5+cU1nrwOHixGXPdcWc6bLG2rNFVjfXYaHPf3ZyIbPu4GTa/+ybAw66ESlQiTY//TUKbuERns3vr4fe/JoZcaDhY59qFM+nreLOdhtyk0ROUnnZu5Iuf2GbsFx2Rru8MyGtlTNwECDTl6b6ZVuP364hfXegdHePIilouYRsZ+Yb/szxGQt/mxdTo+05+RpWRn2D1VHXdnF9cza1H/3LEFLlBIeYFkSl4N9fUgOW85xIcbn0vGfrbJDoeEbm/ZzYZpG2pGlrq6iWxFcd+iJVjw9o/aCCNolVeoDq68uF8XYOaoGw637qcU+YZGA8ttIaGfYbQFN1uzXc3D7J6gLLMYbWNTvhlq/mUgmZQXIc5CPlxA9KHnnrCfZfR7H1rgwmu9fjTelMy7eRpfBo4OOiwkPFtWCzQVEHQl49pri+MdvZS8yK8LWc5AJr/+bkDOmiylcN13GfN3OXM1+1oMec69/s8p1gk6IvmvrBcVqo5IJjNi/s6QbDBJ1vXEGv0WpS57Np+towV231H/sfSiDU3K+vKrzP0fv+lsaKzPYc7DJsQvOnk922RHiiSq28uG+1DAui9kei9WSrbCVYiuZ7wbNfkuowpFfp1HnEHNK1Rr03cVMjeHTApkGrjZZ8dRsqd1NNrucZ0iuwg3MZxIKJtrNOej5FVfADnn4MhdjU3frUjey2TTDiRIrNfr578vrCOm6kqHOyYU+bjKTdlcvHWNualCNRJkbru+TW79XYzkPUw2SV+B7nVg9jO3ew1vT7mX1SLY1Cdzkt0g+VAG8eFd1AS5/rtQk7+FoQFVkNam3fScBr6x+r5CI1zeYFEgQ3c9usNY7+mhzrpdkjOwCfPh73og72k0NKdstbZGR2ChSt2bAu8aqWhzqcnYuySvGxvzkHOIDxHi7xXJeXNI8lP0GSCW1tLHGbK4wrvGWGaN4t2hzoaD9fUGyAT6+4uYm8PhOErb56G5ErEpN3sEt95ce3QLuf3dk0RyvQEzZe3G7zfivI2ofM636GXe5dj6rbtEMpLX4UYjy3Dr7znHBdZ2tLHubiy2tuh1u1kH/Y5PnryMkJHAGluPff8y1zOs7Siw1TfSlmp+coWW3uqKECOMvy/1+JtYy7HWekpWsMN0ruEIkld9Ecs/lDDOGzDvWmPnyInDHHE+gf3gAJt4PNcbrLEgYTeST//QEMOaijDnANf/EBnOGYFuNAKuJ4J/sIC5HT1Y6NutR5t+4Hiz1nKs6ejRJoD9P4G2ZjWrWc1qVrOa1axmNatZzWpWs5rVrGY1q1nNalazmtWsZt9f+18Y4Zehh4qSYQAAAABJRU5ErkJggg==;" vertex="1" parent="1">
          <mxGeometry x="1110" y="971.5" width="174" height="145" as="geometry" />
        </mxCell>
        <mxCell id="0kGeUMnXcMIaWcKACGD8-27" value="" style="endArrow=none;html=1;rounded=0;" edge="1" parent="1">
          <mxGeometry width="50" height="50" relative="1" as="geometry">
            <mxPoint x="1010" y="1140" as="sourcePoint" />
            <mxPoint x="1010" y="670" as="targetPoint" />
          </mxGeometry>
        </mxCell>
        <mxCell id="0kGeUMnXcMIaWcKACGD8-29" value="" style="endArrow=none;html=1;rounded=0;" edge="1" parent="1">
          <mxGeometry width="50" height="50" relative="1" as="geometry">
            <mxPoint x="-10" y="1200" as="sourcePoint" />
            <mxPoint x="1710" y="1200" as="targetPoint" />
          </mxGeometry>
        </mxCell>
        <mxCell id="0kGeUMnXcMIaWcKACGD8-30" value="" style="rounded=0;whiteSpace=wrap;html=1;fillColor=#e51400;fontColor=#ffffff;strokeColor=#B20000;" vertex="1" parent="1">
          <mxGeometry x="60" y="1250" width="160" height="70" as="geometry" />
        </mxCell>
        <mxCell id="0kGeUMnXcMIaWcKACGD8-31" value="" style="rounded=0;whiteSpace=wrap;html=1;fillColor=#76608a;fontColor=#ffffff;strokeColor=#432D57;" vertex="1" parent="1">
          <mxGeometry x="60" y="1490" width="160" height="70" as="geometry" />
        </mxCell>
        <mxCell id="0kGeUMnXcMIaWcKACGD8-32" value="" style="rounded=0;whiteSpace=wrap;html=1;fillColor=#6a00ff;fontColor=#ffffff;strokeColor=#3700CC;" vertex="1" parent="1">
          <mxGeometry x="60" y="1570" width="160" height="70" as="geometry" />
        </mxCell>
        <mxCell id="0kGeUMnXcMIaWcKACGD8-33" value="" style="rounded=0;whiteSpace=wrap;html=1;fillColor=#60a917;fontColor=#ffffff;strokeColor=#2D7600;" vertex="1" parent="1">
          <mxGeometry x="60" y="1410" width="160" height="70" as="geometry" />
        </mxCell>
        <mxCell id="0kGeUMnXcMIaWcKACGD8-34" value="" style="rounded=0;whiteSpace=wrap;html=1;fillColor=#e3c800;fontColor=#000000;strokeColor=#B09500;" vertex="1" parent="1">
          <mxGeometry x="60" y="1330" width="160" height="70" as="geometry" />
        </mxCell>
        <mxCell id="0kGeUMnXcMIaWcKACGD8-35" value="Constructor" style="rounded=0;whiteSpace=wrap;html=1;fillColor=#76608a;fontColor=#ffffff;strokeColor=#432D57;" vertex="1" parent="1">
          <mxGeometry x="270" y="1230" width="160" height="70" as="geometry" />
        </mxCell>
        <mxCell id="0kGeUMnXcMIaWcKACGD8-36" value="RAM" style="pointerEvents=1;shadow=0;dashed=0;html=1;strokeColor=none;fillColor=#4495D1;labelPosition=center;verticalLabelPosition=bottom;verticalAlign=top;align=center;outlineConnect=0;shape=mxgraph.veeam.ram;" vertex="1" parent="1">
          <mxGeometry x="350" y="1570" width="230" height="70" as="geometry" />
        </mxCell>
        <mxCell id="0kGeUMnXcMIaWcKACGD8-37" value="&lt;div style=&quot;background-color: rgb(43, 43, 43); color: rgb(169, 183, 198); font-size: 16px;&quot;&gt;&lt;pre style=&quot;font-family: &amp;quot;JetBrains Mono&amp;quot;, monospace;&quot;&gt;DefaultConstructor defaultConstructor&lt;span style=&quot;color:#cc7832;&quot;&gt;;&lt;br&gt;&lt;/span&gt;defaultConstructor = &lt;span style=&quot;color:#cc7832;&quot;&gt;new &lt;/span&gt;DefaultConstructor()&lt;span style=&quot;color:#cc7832;&quot;&gt;;&lt;/span&gt;&lt;/pre&gt;&lt;/div&gt;" style="rounded=0;whiteSpace=wrap;html=1;" vertex="1" parent="1">
          <mxGeometry x="400" y="1380" width="390" height="40" as="geometry" />
        </mxCell>
        <mxCell id="0kGeUMnXcMIaWcKACGD8-38" value="&lt;font style=&quot;font-size: 15px;&quot;&gt;DefaultConstructor&lt;/font&gt;&lt;div style=&quot;font-size: 15px;&quot;&gt;defaultConstructor&lt;/div&gt;" style="rounded=0;whiteSpace=wrap;html=1;fillColor=#6a00ff;fontColor=#ffffff;strokeColor=#3700CC;" vertex="1" parent="1">
          <mxGeometry x="630" y="1490" width="160" height="70" as="geometry" />
        </mxCell>
        <mxCell id="0kGeUMnXcMIaWcKACGD8-39" value="" style="endArrow=none;html=1;rounded=0;entryX=0.063;entryY=0.429;entryDx=0;entryDy=0;entryPerimeter=0;" edge="1" parent="1" source="0kGeUMnXcMIaWcKACGD8-36" target="0kGeUMnXcMIaWcKACGD8-38">
          <mxGeometry width="50" height="50" relative="1" as="geometry">
            <mxPoint x="540" y="1560" as="sourcePoint" />
            <mxPoint x="370" y="1390" as="targetPoint" />
            <Array as="points">
              <mxPoint x="540" y="1520" />
            </Array>
          </mxGeometry>
        </mxCell>
        <mxCell id="0kGeUMnXcMIaWcKACGD8-40" value="Reference to memory" style="edgeLabel;html=1;align=center;verticalAlign=middle;resizable=0;points=[];rotation=-30;" vertex="1" connectable="0" parent="0kGeUMnXcMIaWcKACGD8-39">
          <mxGeometry x="0.1439" y="3" relative="1" as="geometry">
            <mxPoint x="-29" y="-7" as="offset" />
          </mxGeometry>
        </mxCell>
        <mxCell id="0kGeUMnXcMIaWcKACGD8-42" value="19/11/2024" style="text;html=1;align=center;verticalAlign=middle;resizable=0;points=[];autosize=1;strokeColor=none;fillColor=none;" vertex="1" parent="1">
          <mxGeometry x="270" y="10" width="80" height="30" as="geometry" />
        </mxCell>
        <mxCell id="0kGeUMnXcMIaWcKACGD8-45" value="20/11/2024" style="text;html=1;align=center;verticalAlign=middle;resizable=0;points=[];autosize=1;strokeColor=none;fillColor=none;" vertex="1" parent="1">
          <mxGeometry x="570" y="1200" width="80" height="30" as="geometry" />
        </mxCell>
        <mxCell id="0kGeUMnXcMIaWcKACGD8-47" value="&lt;font style=&quot;font-size: 15px;&quot;&gt;DefaultConstructor&lt;/font&gt;&lt;div style=&quot;font-size: 15px;&quot;&gt;defaultCLonstructor&lt;/div&gt;" style="rounded=0;whiteSpace=wrap;html=1;fillColor=#6a00ff;fontColor=#ffffff;strokeColor=#3700CC;" vertex="1" parent="1">
          <mxGeometry x="170" y="1760" width="160" height="70" as="geometry" />
        </mxCell>
        <mxCell id="0kGeUMnXcMIaWcKACGD8-48" value="&lt;div style=&quot;background-color:#2b2b2b;color:#a9b7c6&quot;&gt;&lt;pre style=&quot;font-family: &amp;quot;JetBrains Mono&amp;quot;, monospace; font-size: 21px;&quot;&gt;Inheritance&lt;/pre&gt;&lt;/div&gt;" style="text;html=1;align=center;verticalAlign=middle;resizable=0;points=[];autosize=1;strokeColor=#B20000;fillColor=#e51400;fontColor=#ffffff;" vertex="1" parent="1">
          <mxGeometry x="1122" y="1200" width="150" height="80" as="geometry" />
        </mxCell>
        <mxCell id="0kGeUMnXcMIaWcKACGD8-52" value="" style="edgeStyle=orthogonalEdgeStyle;rounded=0;orthogonalLoop=1;jettySize=auto;html=1;" edge="1" parent="1" source="0kGeUMnXcMIaWcKACGD8-50" target="0kGeUMnXcMIaWcKACGD8-51">
          <mxGeometry relative="1" as="geometry" />
        </mxCell>
        <mxCell id="0kGeUMnXcMIaWcKACGD8-50" value="Parent Class" style="rounded=0;whiteSpace=wrap;html=1;fillColor=#b1ddf0;strokeColor=#10739e;" vertex="1" parent="1">
          <mxGeometry x="970" y="1310" width="160" height="70" as="geometry" />
        </mxCell>
        <mxCell id="0kGeUMnXcMIaWcKACGD8-51" value="Child Class" style="rounded=0;whiteSpace=wrap;html=1;fillColor=#b1ddf0;strokeColor=#10739e;" vertex="1" parent="1">
          <mxGeometry x="970" y="1420" width="160" height="70" as="geometry" />
        </mxCell>
      </root>
    </mxGraphModel>
  </diagram>
  <diagram id="QbJQENX2cMoC8rOdsLdL" name="Page-2">
    <mxGraphModel dx="1059" dy="595" grid="1" gridSize="10" guides="1" tooltips="1" connect="1" arrows="1" fold="1" page="1" pageScale="1" pageWidth="850" pageHeight="1100" math="0" shadow="0">
      <root>
        <mxCell id="0" />
        <mxCell id="1" parent="0" />
        <mxCell id="7fevqUkYXEHLghx4DyVa-1" value="&lt;font style=&quot;font-size: 21px;&quot;&gt;Exceptions&lt;/font&gt;" style="rounded=0;whiteSpace=wrap;html=1;" vertex="1" parent="1">
          <mxGeometry x="260" y="180" width="200" height="120" as="geometry" />
        </mxCell>
        <mxCell id="7fevqUkYXEHLghx4DyVa-2" value="Checked" style="rounded=0;whiteSpace=wrap;html=1;" vertex="1" parent="1">
          <mxGeometry x="460" y="180" width="120" height="60" as="geometry" />
        </mxCell>
        <mxCell id="7fevqUkYXEHLghx4DyVa-4" value="Unchecked" style="rounded=0;whiteSpace=wrap;html=1;" vertex="1" parent="1">
          <mxGeometry x="460" y="240" width="120" height="60" as="geometry" />
        </mxCell>
      </root>
    </mxGraphModel>
  </diagram>
</mxfile>
